<svg width="174" height="100" viewBox="0 0 174 100" fill="none" xmlns="http://www.w3.org/2000/svg">
<g opacity="0.25">
<path d="M165.675 32.0112C166.308 32.6701 166.587 33.6332 166.562 34.5456C166.511 35.4579 166.182 36.345 165.751 37.156C164.889 38.7273 163.267 39.9945 161.721 40.9069C160.834 39.1328 161.392 36.9025 161.721 35.7874C162.279 34.0133 164.332 31.1495 165.675 32.0112Z" fill="#EBEBEB"/>
<path d="M162.203 44.2763C162.355 43.2625 163.166 42.4008 164.129 42.046C165.092 41.7165 166.207 41.8433 167.119 42.2995C167.55 42.5022 167.956 42.8317 168.083 43.3132C168.184 43.744 167.956 44.2002 167.626 44.5044C167.297 44.7831 166.841 44.9352 166.41 45.0112C164.889 45.2647 163.394 45.2393 162.203 44.2763Z" fill="#EBEBEB"/>
<path d="M158.351 48.5864C158.351 48.5864 158.401 48.4597 158.528 48.2823C158.68 48.0542 158.857 47.7754 159.06 47.4459C159.516 46.7363 160.175 45.7479 161.189 44.9115C162.203 44.1005 163.343 43.6443 164.205 43.543C164.636 43.4923 164.965 43.4923 165.219 43.5176C165.345 43.5176 165.421 43.543 165.497 43.5683C165.548 43.5683 165.599 43.5937 165.599 43.5937C165.599 43.619 165.067 43.5176 164.23 43.6443C163.394 43.7711 162.304 44.2019 161.29 45.0129C160.277 45.8239 159.643 46.8123 159.136 47.4966C158.908 47.8514 158.705 48.1302 158.553 48.3076C158.452 48.485 158.376 48.5864 158.351 48.5864Z" fill="#E0E0E0"/>
<path d="M164.281 34.3169C164.281 34.3169 164.281 34.3676 164.23 34.469C164.18 34.5703 164.154 34.7224 164.078 34.8998C163.951 35.28 163.749 35.8122 163.495 36.4711C162.988 37.8143 162.279 39.6391 161.442 41.6413C160.606 43.6434 159.82 45.4428 159.212 46.7354C158.908 47.3943 158.68 47.9012 158.503 48.256C158.427 48.4334 158.35 48.5601 158.3 48.6615C158.249 48.7629 158.224 48.8136 158.224 48.8136C158.224 48.8136 158.249 48.7629 158.274 48.6615C158.325 48.5601 158.376 48.4081 158.452 48.2306C158.629 47.8505 158.857 47.3183 159.136 46.6847C159.719 45.3921 160.479 43.5674 161.316 41.5652C162.152 39.5631 162.887 37.7383 163.394 36.4204C163.647 35.7615 163.85 35.2293 164.002 34.8491C164.078 34.6717 164.129 34.545 164.18 34.4183C164.256 34.3676 164.281 34.3169 164.281 34.3169Z" fill="#E0E0E0"/>
<path d="M159.39 44.3018C159.896 42.1983 159.288 39.8413 157.844 38.2193C157.463 37.8138 156.931 37.4083 156.399 37.6111C155.867 37.7885 155.715 38.4474 155.689 39.005C155.639 41.3113 157.159 43.5669 159.288 44.4285" fill="#EBEBEB"/>
<path d="M157.413 39.865C157.413 39.865 157.514 39.941 157.666 40.1184C157.742 40.1945 157.844 40.2958 157.92 40.4226C158.021 40.5493 158.122 40.7013 158.224 40.8534C158.325 41.0308 158.452 41.2082 158.553 41.411C158.68 41.6137 158.781 41.8418 158.883 42.0952C159.085 42.5768 159.238 43.1343 159.339 43.7426C159.415 44.3508 159.44 44.9338 159.39 45.466C159.364 45.7194 159.339 45.9729 159.263 46.2009C159.212 46.429 159.161 46.6318 159.111 46.8345C159.06 47.0373 158.984 47.1894 158.933 47.3414C158.883 47.4935 158.807 47.6202 158.756 47.7216C158.655 47.9243 158.604 48.0257 158.579 48.0257C158.553 48.0257 158.781 47.5695 159.009 46.8092C159.06 46.6064 159.111 46.4037 159.161 46.1756C159.212 45.9475 159.238 45.6941 159.263 45.4406C159.314 44.9338 159.288 44.3508 159.212 43.7426C159.111 43.1597 158.959 42.6021 158.756 42.1206C158.655 41.8925 158.553 41.6391 158.452 41.4363C158.35 41.2336 158.249 41.0561 158.148 40.8787C157.742 40.2451 157.413 39.8903 157.413 39.865Z" fill="#E0E0E0"/>
</g>
<g opacity="0.25">
<path d="M8.18839 16.1948C8.18839 16.1948 5.85676 16.9551 8.11236 21.9478C10.368 26.9406 11.99 29.4496 11.99 29.4496C11.99 29.4496 12.3701 30.6154 11.4071 30.7421C10.444 30.8688 8.3658 30.438 7.88427 31.5785C7.37739 32.7696 8.21374 33.9608 9.93712 35.0506C11.6858 36.1404 15.386 38.6494 15.7155 38.8775C16.045 39.1056 16.3491 39.6378 15.7155 39.8406C15.0819 40.0433 10.3173 40.2967 10.5961 42.5523C10.8495 44.8079 16.197 47.0382 16.7799 47.2916C17.3629 47.5451 17.4896 47.7985 17.4135 48.128C17.3629 48.4575 15.7408 48.3814 14.3976 48.5335C13.0544 48.6602 11.5084 49.0657 11.7619 50.3329C12.0153 51.6254 15.1073 54.4386 22.8878 55.5537L26.512 55.8325L28.6409 52.8419C32.7972 46.1765 32.6452 41.9948 31.8342 40.981C31.0232 39.9419 29.7306 40.8797 28.7676 41.8174C27.8045 42.7551 26.7908 44.0223 26.512 43.8702C26.2332 43.7182 26.1065 43.4394 26.2839 42.8311C26.4613 42.2229 28.21 36.7233 26.664 35.0506C25.1181 33.4032 21.8487 36.85 21.2911 37.2048C20.7336 37.5596 20.5055 36.9767 20.5562 36.5712C20.6069 36.1657 21.0884 31.7052 21.3672 29.6777C21.6713 27.6502 21.2911 26.2563 20.0746 25.8761C18.8835 25.496 17.8697 27.3714 17.1601 28.0303C16.4251 28.6893 15.8169 27.6248 15.8169 27.6248C15.8169 27.6248 14.9552 24.7863 12.5982 19.8189C10.2412 14.8516 8.11236 16.1948 8.11236 16.1948" fill="#EBEBEB"/>
<path d="M26.6894 56.6942C24.966 53.0447 22.0515 46.506 19.4917 40.905C16.932 35.304 14.6257 30.2353 12.9277 26.5858C12.0914 24.761 11.3817 23.2911 10.9255 22.252C10.6974 21.7451 10.4947 21.3396 10.368 21.0862C10.3173 20.9594 10.2666 20.8581 10.2159 20.782C10.2413 20.8581 10.2919 20.9594 10.368 21.0862C10.4947 21.3649 10.6974 21.7451 10.9255 22.252C11.4071 23.2657 12.1167 24.7357 12.9784 26.5604C14.7018 30.2099 17.0081 35.2787 19.5678 40.8543C22.1275 46.4553 25.042 52.994 26.7401 56.6435" fill="white"/>
<path d="M10.7735 32.3135C10.7735 32.3135 10.8749 32.3388 11.0269 32.3895C11.179 32.4402 11.4071 32.5416 11.6859 32.6683C12.2434 32.8964 13.0038 33.2512 13.8401 33.6314C14.6511 34.0115 15.4114 34.3917 15.969 34.6451C16.2224 34.7718 16.4505 34.8732 16.6279 34.9492C16.78 35.0253 16.856 35.076 16.856 35.076C16.856 35.076 16.7546 35.0506 16.6026 34.9999C16.4505 34.9492 16.2224 34.8479 15.9436 34.7211C15.3861 34.493 14.6258 34.1382 13.7894 33.7327C12.9531 33.3526 12.2181 32.9978 11.6605 32.719C11.4071 32.5923 11.179 32.4909 11.0016 32.4149C10.8495 32.3642 10.7735 32.3135 10.7735 32.3135Z" fill="white"/>
<path d="M17.1094 34.8743C17.084 34.8743 17.7176 33.2523 18.5286 31.3008C19.3396 29.324 20.0239 27.7527 20.0746 27.7527C20.0999 27.7527 19.4664 29.3747 18.6553 31.3262C17.8443 33.2776 17.1601 34.8743 17.1094 34.8743Z" fill="white"/>
<path d="M20.6575 43.6412C20.6575 43.6412 20.7082 43.5651 20.8096 43.4131C20.9363 43.261 21.0884 43.0583 21.2658 42.8555C21.6459 42.374 22.1782 41.715 22.7357 40.9547C23.2933 40.1944 23.7748 39.4848 24.1296 38.9779C24.2817 38.7498 24.4338 38.5471 24.5351 38.3697C24.6365 38.2176 24.6872 38.1416 24.6872 38.1669C24.6872 38.1669 24.6619 38.2683 24.5605 38.395C24.4844 38.5471 24.3324 38.7498 24.1803 39.0286C23.8509 39.5608 23.3693 40.2704 22.8118 41.0308C22.2542 41.7911 21.6966 42.45 21.3165 42.9316C21.1137 43.1596 20.9363 43.3624 20.8349 43.4891C20.7336 43.5651 20.6575 43.6412 20.6575 43.6412Z" fill="white"/>
<path d="M14.3976 42.5752C14.3976 42.5752 14.499 42.5752 14.6511 42.6005C14.8285 42.6259 15.0566 42.6512 15.31 42.6766C15.8676 42.7526 16.6532 42.8793 17.5149 43.006C18.3766 43.1328 19.1623 43.2595 19.7198 43.3609C19.9733 43.4115 20.2014 43.4369 20.3788 43.4876C20.5308 43.5129 20.6322 43.5383 20.6322 43.5383C20.6322 43.5383 20.5308 43.5383 20.3788 43.5129C20.2014 43.4876 19.9733 43.4622 19.7198 43.4369C19.1623 43.3609 18.3766 43.2341 17.5149 43.1074C16.6532 42.9807 15.8676 42.854 15.31 42.7526C15.0566 42.7019 14.8285 42.6766 14.6511 42.6259C14.4737 42.6005 14.3976 42.6005 14.3976 42.5752Z" fill="white"/>
<path d="M16.5266 50.7146C16.5266 50.7146 16.6533 50.7146 16.856 50.7399C17.0841 50.7653 17.3629 50.7906 17.7177 50.8413C18.4527 50.9427 19.4411 51.0694 20.5562 51.2215C21.6713 51.3735 22.6598 51.5256 23.3947 51.6523C23.7495 51.703 24.0283 51.7537 24.2564 51.8044C24.4592 51.8297 24.5605 51.8551 24.5605 51.8804C24.5605 51.8804 24.4338 51.8804 24.2311 51.8551C24.003 51.8297 23.7242 51.8044 23.3694 51.7537C22.6344 51.6523 21.646 51.5256 20.5309 51.3735C19.4157 51.2215 18.4273 51.0694 17.6924 50.9427C17.3376 50.892 17.0588 50.8413 16.8307 50.7906C16.6279 50.7653 16.5266 50.7399 16.5266 50.7146Z" fill="white"/>
<path d="M24.3577 51.8028C24.3577 51.8028 24.4084 51.7014 24.5605 51.524C24.7125 51.3213 24.8899 51.0932 25.118 50.7891C25.5742 50.1555 26.2332 49.2938 26.9175 48.3054C27.6017 47.317 28.21 46.4299 28.6155 45.771C28.8182 45.4669 28.9956 45.1881 29.1224 44.9853C29.2491 44.8079 29.3251 44.7065 29.3251 44.7065C29.3251 44.7065 29.2744 44.8079 29.1731 45.0107C29.0717 45.2134 28.8943 45.4669 28.6915 45.7963C28.286 46.4553 27.7031 47.3676 27.0188 48.3561C26.3345 49.3445 25.6756 50.2061 25.1941 50.8144C24.9406 51.1185 24.7632 51.372 24.6112 51.524C24.4338 51.7014 24.3577 51.8028 24.3577 51.8028Z" fill="white"/>
</g>
<path d="M135.693 15.0035C135.693 10.8724 131.359 8.23665 126.924 10.3148C125.936 10.771 125.099 11.582 124.592 12.5451C123.477 14.6993 123.959 17.1577 124.973 19.2105L128.419 27.9541C128.926 29.2213 130.7 29.196 131.182 27.9541L134.553 19.1598C135.744 16.4987 135.693 15.0035 135.693 15.0035ZM131.537 18.6023C128.571 20.3257 125.53 17.1323 127.178 13.9644C127.406 13.5335 127.735 13.204 128.115 12.9506C131.106 11.2272 134.122 14.4205 132.474 17.5885C132.272 18.0194 131.942 18.3742 131.537 18.6023Z" fill="#F5F5F5"/>
<path d="M171.631 99.2718C171.631 99.2972 133.615 99.3479 86.7542 99.3479C39.8681 99.3479 1.85242 99.3225 1.85242 99.2718C1.85242 99.2211 39.8428 99.1958 86.7542 99.1958C133.615 99.1958 171.631 99.2211 171.631 99.2718Z" fill="#263238"/>
<path d="M73.8542 99.2719L40.1723 99.1198C36.1173 99.0945 32.8479 95.7998 32.8733 91.7448L33.2281 7.29916C33.2534 3.24415 36.5481 -0.0251975 40.6031 0.000146357L74.285 0.152209C78.3401 0.177553 81.6094 3.47225 81.5841 7.52726L81.2293 91.9729C81.2039 96.0025 77.9092 99.2972 73.8542 99.2719Z" fill="#455A64"/>
<path d="M74.209 3.04192L67.6703 3.01658C66.7832 3.01658 66.0736 3.75155 66.0736 4.66392V5.85508C66.0736 6.76746 65.364 7.50243 64.477 7.50243L51.7544 7.45174C50.8673 7.45174 50.183 6.69143 50.183 5.77905V4.58789C50.183 3.67551 49.4734 2.9152 48.6117 2.9152H46.3054L40.6031 2.88986C37.7646 2.86451 35.4583 5.1708 35.4329 8.00931L35.0781 90.4527C35.0781 93.2912 37.3591 95.5975 40.1976 95.6229L73.8288 95.7749C76.6673 95.8003 78.9736 93.494 78.999 90.6555L79.3538 8.21206C79.3538 5.37355 77.0475 3.06726 74.209 3.04192Z" fill="#FAFAFA"/>
<path d="M35.4076 17.9182H40.9072L45.8239 22.8349L40.7044 27.929L35.4583 22.6828L35.4076 17.9182Z" fill="#EBEBEB"/>
<path d="M46.939 20.6553L44.1766 17.9182H50.3858L46.939 20.6553Z" fill="#EBEBEB"/>
<path d="M49.3721 22.911L54.2127 18.0703H71.1171C71.1171 18.0703 73.7021 29.6271 63.5139 37.0528L49.3721 22.911Z" fill="#EBEBEB"/>
<path d="M47.2939 24.457L42.1237 29.6525L56.443 43.9718L61.6131 38.6242L47.2939 24.457Z" fill="#EBEBEB"/>
<path d="M35.3316 32.566L38.5756 29.1953L35.4076 26.0273L35.3316 32.566Z" fill="#EBEBEB"/>
<path d="M40.5271 31.198L35.5344 36.1654V43.1096L45.824 53.6273L54.5422 45.5173L40.5271 31.198Z" fill="#EBEBEB"/>
<path d="M65.4401 38.5235C65.4401 38.5235 76.1098 30.6923 72.6631 18.0964H79.3031L79.2271 53.6792L65.4401 38.5235Z" fill="#EBEBEB"/>
<path d="M63.4379 40.5752L58.2678 45.9481L74.1076 61.788L78.9483 56.6432L63.4379 40.5752Z" fill="#EBEBEB"/>
<path d="M56.1135 47.418L48.0035 55.4773L64.2235 71.596L72.3335 63.7647L56.1135 47.418Z" fill="#EBEBEB"/>
<path d="M51.8558 87.7914L64.2742 74.9167L76.0591 86.9551L51.8558 87.7914Z" fill="#EBEBEB"/>
<path d="M66.2004 73.2703L79.1257 60.4717C79.1257 61.0292 79.0244 87.0067 79.0244 87.0067L66.2004 73.2703Z" fill="#EBEBEB"/>
<path d="M55.1505 66.0718L62.4748 73.3961L48.0035 88.349L41.3127 80.315L55.1505 66.0718Z" fill="#EBEBEB"/>
<path d="M35.3569 81.3542C36.0412 81.2781 53.7565 64.7033 53.7565 64.7033L35.3569 45.6194V81.3542Z" fill="#EBEBEB"/>
<path d="M35.0781 85.1307L39.3612 81.3545L45.2663 88.3494H35.0781V85.6629" fill="#EBEBEB"/>
<path d="M40.6031 12.8752C40.5777 12.9006 40.0202 12.419 39.3359 11.7854C39.3359 11.5827 39.3359 11.7348 39.3359 11.6841L39.3612 11.6587L39.3866 11.6334L39.4373 11.5827C39.4879 11.532 39.5133 11.5067 39.564 11.4813C39.64 11.4053 39.716 11.3293 39.7921 11.2786C39.9188 11.1518 40.0708 11.0251 40.1976 10.9238C40.4257 10.721 40.5777 10.6196 40.5777 10.6196C40.5777 10.645 40.4763 10.7717 40.2483 10.9998C40.1215 11.1265 39.9948 11.2532 39.8681 11.3799C39.7921 11.456 39.716 11.532 39.64 11.608C39.5893 11.6334 39.564 11.6841 39.5133 11.7348L39.4626 11.7854L39.4373 11.8108L39.4119 11.8361C39.4119 11.7854 39.4119 11.9375 39.4119 11.7348C40.1215 12.3177 40.6284 12.8499 40.6031 12.8752Z" fill="#263238"/>
<path d="M75.6536 10.9482C75.6536 11.1003 75.5269 11.227 75.3748 11.227C75.2227 11.227 75.096 11.1003 75.096 10.9482C75.096 10.7962 75.2227 10.6694 75.3748 10.6694C75.5269 10.6694 75.6536 10.7962 75.6536 10.9482Z" fill="#263238"/>
<path d="M75.5522 11.7095C75.6536 11.8109 75.6536 11.9883 75.5522 12.0897C75.4508 12.1911 75.2734 12.1911 75.172 12.0897C75.0707 11.9883 75.0707 11.8109 75.172 11.7095C75.2734 11.5828 75.4508 11.5828 75.5522 11.7095Z" fill="#263238"/>
<path d="M75.6536 12.8496C75.6536 13.0016 75.5269 13.1284 75.3748 13.1284C75.2227 13.1284 75.096 13.0016 75.096 12.8496C75.096 12.6975 75.2227 12.5708 75.3748 12.5708C75.5269 12.5708 75.6536 12.6975 75.6536 12.8496Z" fill="#263238"/>
<path d="M63.7673 12.064H51.9064V13.0524H63.7673V12.064Z" fill="#263238"/>
<path d="M62.4748 29.805C62.4748 25.1925 57.6342 22.2526 52.6668 24.5842C51.5517 25.1164 50.6139 26.0035 50.0564 27.0679C48.8145 29.4756 49.3721 32.2381 50.4872 34.519L54.3395 44.2764C54.897 45.6703 56.8992 45.6703 57.4314 44.251L61.2077 34.443C62.5255 31.4777 62.4748 29.805 62.4748 29.805ZM57.8369 33.8347C54.5169 35.7608 51.1462 32.1874 52.9709 28.6646C53.2244 28.183 53.5792 27.8029 54.0354 27.5495C57.3554 25.6233 60.7261 29.1968 58.9014 32.7196C58.6479 33.1758 58.2678 33.5813 57.8369 33.8347Z" fill="#FFAE12"/>
<path d="M163.292 65.0608H22.685V85.6907H163.292V65.0608Z" fill="#E8505B"/>
<g opacity="0.5">
<path d="M163.292 65.0608H22.685V85.6907H163.292V65.0608Z" fill="black"/>
</g>
<path d="M42.4745 99.0902C49.9456 98.5875 55.5947 92.1234 55.092 84.6522C54.5894 77.1811 48.1253 71.532 40.6541 72.0346C33.1829 72.5373 27.5338 79.0014 28.0365 86.4726C28.5392 93.9438 35.0033 99.5928 42.4745 99.0902Z" fill="#263238"/>
<path d="M28.0073 85.3289V85.3542C27.9059 92.8306 33.887 98.9892 41.3634 99.1159C48.8399 99.2173 54.9984 93.2361 55.1251 85.7597V85.7344L28.0073 85.3289Z" fill="#263238"/>
<path d="M32.037 85.4092C31.9609 90.6554 36.168 94.9892 41.4142 95.0652C46.6603 95.1413 50.9941 90.9342 51.0702 85.688C51.1462 80.4418 46.9391 76.1081 41.693 76.032C36.4468 75.956 32.113 80.1631 32.037 85.4092Z" fill="#FAFAFA"/>
<path d="M41.693 76.032C36.4468 75.956 32.113 80.1631 32.037 85.4092L51.0702 85.688C51.1716 80.4418 46.9645 76.1081 41.693 76.032Z" fill="#E0E0E0"/>
<path d="M35.7625 85.4872C35.7118 88.6805 38.2715 91.3163 41.4648 91.367C44.6581 91.4177 47.2939 88.8579 47.3446 85.6646C47.3953 82.4713 44.8355 79.8355 41.6422 79.7849C38.4489 79.7088 35.8131 82.2685 35.7625 85.4872Z" fill="#263238"/>
<path d="M146.028 99.0936C153.504 98.6605 159.213 92.2493 158.78 84.7736C158.347 77.2979 151.936 71.5888 144.46 72.0218C136.984 72.4549 131.275 78.8661 131.708 86.3418C132.141 93.8175 138.552 99.5266 146.028 99.0936Z" fill="#263238"/>
<path d="M131.689 85.3296V85.3549C131.587 92.8314 137.569 98.9899 145.045 99.1166C152.521 99.218 158.68 93.2369 158.807 85.7604V85.7351L131.689 85.3296Z" fill="#263238"/>
<path d="M135.718 85.4097C135.642 90.6559 139.85 94.9897 145.096 95.0657C150.342 95.1417 154.676 90.9347 154.752 85.6885C154.828 80.4423 150.621 76.1085 145.374 76.0325C140.128 75.9565 135.795 80.1636 135.718 85.4097Z" fill="#FAFAFA"/>
<path d="M145.375 76.0325C140.128 75.9565 135.795 80.1636 135.719 85.4097L154.752 85.6885C154.853 80.4423 150.646 76.1085 145.375 76.0325Z" fill="#E0E0E0"/>
<path d="M139.444 85.4872C139.393 88.6805 141.953 91.3163 145.146 91.367C148.34 91.4177 150.975 88.8579 151.026 85.6646C151.077 82.4713 148.517 79.8355 145.324 79.7849C142.13 79.7088 139.495 82.2685 139.444 85.4872Z" fill="#263238"/>
<path d="M59.3322 53.4526C59.3322 53.4526 39.3613 54.9225 31.9609 56.5952C26.7401 57.7611 16.6786 59.7886 16.8053 66.0992L17.5909 70.6357C17.5909 70.6357 13.8654 72.3337 13.8654 76.6929C13.8654 81.052 12.953 87.7935 21.6713 88.0469C23.1159 88.0976 25.8277 88.0469 25.8277 88.0469C25.8277 88.0469 24.155 69.4952 41.186 68.963C58.5212 68.4055 57.3554 87.8695 57.3554 87.8695H129.687C129.687 87.8695 126.721 68.9123 145.374 68.8616C164.028 68.8363 161.189 87.9709 161.189 87.9709C161.189 87.9709 168.057 88.5538 171.25 82.8007C174.444 77.0224 173.607 72.9167 173.607 72.9167L173.506 69.2671C173.481 68.0253 172.467 67.0369 171.225 66.9862C171.225 66.9862 172.467 57.8117 170.566 56.2151C168.665 54.6184 158.173 45.0385 158.173 45.0385L158.68 44.7343C159.516 44.2021 159.364 42.9603 158.427 42.6308C154.448 41.2622 146.566 38.5504 144.716 37.9168C144.437 37.8155 144.158 37.7648 143.854 37.7394C142.739 37.6634 139.621 37.4607 133.894 37.3846C126.899 37.3086 99.1473 37.3846 99.1473 37.3846C99.1473 37.3846 89.5927 38.1703 84.2705 40.5019C78.7202 43.011 59.3322 53.4526 59.3322 53.4526Z" fill="#FFAE12"/>
<g opacity="0.4">
<path d="M18.9595 76.1842C18.2246 76.0322 17.1348 76.0322 16.5772 76.5137C16.1717 76.8685 16.0703 77.4768 15.9943 78.009C15.9183 78.7693 15.8676 79.5296 16.045 80.2646C16.2224 80.9995 16.6533 81.7092 17.3122 82.064C17.9711 82.4188 18.8835 82.3681 19.3904 81.8105C19.8719 81.3037 19.9226 80.5434 19.8973 79.8591C19.8719 78.8707 19.948 78.0597 19.7705 77.0966C19.7452 76.9192 19.6438 76.6911 19.5171 76.539C19.3397 76.3109 19.1876 76.2096 18.9595 76.1842Z" fill="black"/>
</g>
<path d="M17.6163 70.634C19.7452 70.634 21.798 70.5073 23.9016 70.3806C24.1297 70.3552 24.3831 70.3299 24.5352 70.1778C24.7379 70.0004 24.7633 69.671 24.7633 69.4175C24.7633 68.2771 24.7126 66.9845 23.8509 66.2495C23.3187 65.7934 22.609 65.6666 21.8994 65.5906C20.2014 65.4385 18.402 65.5653 16.8053 66.0975L17.6163 70.634Z" fill="#FAFAFA"/>
<path d="M61.6385 87.312C61.6385 87.312 61.6385 87.2613 61.6132 87.1346C61.6132 87.0079 61.5878 86.8305 61.5878 86.6024C61.5625 86.1209 61.5372 85.4366 61.4865 84.5496C61.4358 83.6625 61.3851 82.5727 61.2584 81.3309C61.1316 80.089 60.9289 78.6444 60.5234 77.1238C60.0926 75.6032 59.459 73.9558 58.4706 72.3592C57.5075 70.7625 56.2403 69.1912 54.5169 67.9494C51.0955 65.5163 46.4829 64.1478 41.6423 64.0717C36.8016 64.0211 32.189 65.5417 28.869 68.1014C27.1963 69.3433 25.8024 70.8132 24.7126 72.3338C23.6228 73.8545 22.8371 75.4258 22.2796 76.8957C21.722 78.391 21.4179 79.7849 21.2658 81.0521C21.0884 82.294 21.1138 83.3837 21.1391 84.2708C21.2151 85.1578 21.2912 85.8421 21.3925 86.2983C21.4432 86.5264 21.4686 86.7038 21.4939 86.8305C21.5193 86.9572 21.5193 87.0079 21.5193 87.0079C21.5193 87.0079 21.4939 86.9572 21.4686 86.8305C21.4432 86.7038 21.4179 86.5264 21.3672 86.2983C21.2658 85.8421 21.1645 85.1578 21.0884 84.2708C21.0377 83.3837 21.0124 82.294 21.1898 81.0268C21.3419 79.7849 21.646 78.3403 22.2036 76.845C22.7611 75.3497 23.5468 73.7784 24.6366 72.2325C25.701 70.6865 27.1203 69.2165 28.7929 67.9747C32.1383 65.3896 36.7762 63.869 41.6423 63.9197C46.5083 63.9704 51.1462 65.3643 54.5929 67.8226C56.3163 69.0645 57.5835 70.6611 58.5719 72.2578C59.535 73.8798 60.1939 75.5018 60.5994 77.0478C61.0303 78.5938 61.2077 80.013 61.3344 81.2802C61.4611 82.5474 61.5118 83.6372 61.5372 84.5242C61.5625 85.4112 61.6132 86.0955 61.6132 86.5771C61.6132 86.8052 61.6385 86.9826 61.6385 87.1093C61.6385 87.236 61.6385 87.312 61.6385 87.312Z" fill="white"/>
<path d="M62.3987 87.6144C62.3987 87.6144 62.3987 87.5637 62.3987 87.4623C62.3987 87.3609 62.3987 87.2089 62.3734 87.0061C62.3734 86.6006 62.3481 86.0177 62.3227 85.2574C62.272 83.7114 62.2213 81.4811 62.1453 78.6173C62.0693 75.7534 61.9679 72.2813 61.8665 68.3024C61.8412 67.3139 61.8158 66.2749 61.7905 65.2104C61.7652 64.6782 61.8158 64.146 61.8665 63.5884C61.9172 63.3096 61.9426 63.0562 61.9932 62.7774C62.0439 62.4986 62.0946 62.2452 62.1707 61.9664C62.4241 60.8766 62.8042 59.7868 63.3111 58.7224C63.818 57.658 64.4009 56.6189 65.1612 55.6304C69.0388 53.1974 73.2459 50.5363 77.6811 47.7485C78.7962 47.0389 79.9113 46.3293 81.0518 45.6196C82.1669 44.8593 83.3834 44.2004 84.6253 43.6175C85.8671 43.0346 87.185 42.5024 88.5029 42.0715C89.1618 41.8434 89.8461 41.6407 90.5304 41.4379C91.2147 41.2605 91.8989 41.0578 92.6086 40.931C95.295 40.3228 98.0322 40.044 100.693 39.9173C103.354 39.7906 105.965 39.7906 108.499 39.9426H108.575L108.55 40.0187C107.359 45.3915 106.218 50.435 105.179 55.0729C104.546 56.112 104.039 57.2018 103.658 58.3169C103.304 59.432 103.076 60.5472 103.152 61.6623C103.228 62.7774 103.278 63.8672 103.304 64.9316C103.329 65.9961 103.354 67.0098 103.354 67.9982C103.405 71.9772 103.43 75.4493 103.43 78.3132C103.43 81.177 103.43 83.4073 103.43 84.9533C103.43 83.4073 103.405 81.177 103.38 78.3132C103.354 75.4493 103.329 71.9772 103.278 67.9982C103.253 67.0098 103.228 65.9707 103.202 64.9316C103.177 63.8672 103.152 62.8027 103.05 61.6876C102.974 60.5725 103.202 59.4067 103.557 58.2915C103.937 57.1764 104.444 56.0866 105.078 55.0222V55.0475C106.117 50.4096 107.232 45.3409 108.423 39.9933L108.474 40.0693C105.939 39.9173 103.329 39.9173 100.668 40.044C98.0068 40.1707 95.295 40.4748 92.6086 41.0578C91.8989 41.2098 91.2147 41.3872 90.5304 41.5646C89.8461 41.7674 89.1618 41.9701 88.5029 42.1982C87.1597 42.6544 85.8671 43.1613 84.6253 43.7442C83.3834 44.3271 82.1669 44.986 81.0518 45.721C79.9113 46.4306 78.7709 47.1403 77.6557 47.8499C73.1952 50.6631 68.9881 53.2988 65.1105 55.7318H65.1359C64.3756 56.6949 63.7927 57.734 63.2858 58.7984C62.7789 59.8629 62.4241 60.9527 62.1707 62.0171C61.6131 64.1967 61.8919 66.3255 61.8919 68.3277C61.9932 72.3067 62.0693 75.7788 62.1453 78.6426C62.2213 81.5065 62.272 83.7621 62.2974 85.2827C62.3227 86.043 62.3227 86.6259 62.3227 87.0314C62.3227 87.2342 62.3227 87.3863 62.3227 87.4876C62.3987 87.5637 62.3987 87.6144 62.3987 87.6144Z" fill="#263238"/>
<path d="M108.398 40.3486C108.398 40.3486 108.449 40.3486 108.525 40.3486C108.601 40.3486 108.727 40.3486 108.879 40.3486C109.183 40.3486 109.64 40.3233 110.223 40.3233C111.388 40.2979 113.086 40.2726 115.215 40.2219C119.448 40.1459 125.353 40.0445 132.044 39.9431H132.069L132.094 39.9685C132.855 40.8808 133.64 41.8692 134.451 42.8577C136.834 45.7975 139.115 48.5854 141.193 51.1197C141.446 51.4492 141.7 51.7533 141.953 52.0575C142.206 52.3616 142.409 52.7164 142.587 53.0712C142.916 53.7808 143.094 54.5412 143.094 55.2761C143.094 56.0111 142.941 56.7207 142.688 57.3543C142.409 57.9626 142.156 58.5708 141.928 59.1284C140.939 61.4093 140.154 63.2341 139.596 64.5013C139.317 65.1349 139.115 65.6164 138.962 65.9712C138.886 66.1233 138.836 66.25 138.785 66.3514C138.734 66.4274 138.734 66.4781 138.734 66.4781C138.734 66.4781 138.76 66.4274 138.785 66.3514C138.81 66.25 138.886 66.1233 138.937 65.9712C139.089 65.6417 139.292 65.1349 139.545 64.5013C140.078 63.2341 140.863 61.384 141.826 59.103C142.257 57.9626 143.043 56.7461 142.967 55.2761C142.967 54.5665 142.789 53.8062 142.46 53.1219C142.283 52.7671 142.08 52.4376 141.852 52.1335C141.598 51.8294 141.345 51.4999 141.091 51.1958C139.013 48.6614 136.732 45.8736 134.35 42.959C133.539 41.9706 132.753 41.0076 131.993 40.0698L132.044 40.0952C125.353 40.1966 119.448 40.2726 115.215 40.3486C113.112 40.374 111.414 40.3993 110.223 40.3993C109.64 40.3993 109.183 40.3993 108.879 40.3993C108.727 40.3993 108.626 40.3993 108.525 40.3993C108.449 40.374 108.398 40.3486 108.398 40.3486Z" fill="#263238"/>
<path d="M99.9076 62.7292C99.9076 62.7292 99.9836 62.7292 100.11 62.7038C100.237 62.6785 100.44 62.6278 100.643 62.5011C100.845 62.3744 101.073 62.1209 101.175 61.7915C101.225 61.6141 101.251 61.4367 101.251 61.2339C101.251 61.0312 101.2 60.8284 101.099 60.6257C100.896 60.2455 100.465 59.916 99.9329 59.916C99.4007 59.916 98.8178 59.916 98.2349 59.916C97.0184 59.916 95.7005 59.916 94.3066 59.916C93.9771 59.916 93.6477 60.0428 93.4196 60.2708C93.1915 60.4989 93.0394 60.7777 92.9887 61.1072C92.9634 61.4367 92.9887 61.7408 93.1408 61.9942C93.2929 62.2477 93.521 62.4504 93.7997 62.5771C94.0785 62.7038 94.3573 62.6785 94.6361 62.6785C94.9149 62.6785 95.1937 62.6785 95.4724 62.6785C96.0047 62.6785 96.5115 62.6785 96.9677 62.6785C97.8801 62.6785 98.5897 62.7038 99.1219 62.7038C99.3754 62.7038 99.5528 62.7038 99.7049 62.7038C99.8569 62.7292 99.9076 62.7292 99.9076 62.7292C99.9076 62.7292 99.8316 62.7292 99.7049 62.7545C99.5528 62.7545 99.3754 62.7545 99.1219 62.7545C98.5897 62.7545 97.8548 62.7545 96.9677 62.7799C96.5115 62.7799 96.0047 62.7799 95.4724 62.7799C95.1937 62.7799 94.9402 62.7799 94.6361 62.7799C94.484 62.7799 94.3573 62.7799 94.2052 62.7799C94.0532 62.7799 93.9011 62.7292 93.7491 62.6785C93.4703 62.5518 93.1915 62.349 93.0394 62.0449C92.862 61.7661 92.8367 61.4113 92.862 61.0818C92.8874 60.7524 93.0648 60.3976 93.3182 60.1695C93.5716 59.9414 93.9265 59.7893 94.3066 59.7893C95.7005 59.7893 97.0184 59.7893 98.2349 59.7893C98.8432 59.7893 99.4007 59.7893 99.9329 59.7893C100.491 59.7893 100.972 60.1441 101.175 60.575C101.276 60.7777 101.327 61.0058 101.327 61.2086C101.327 61.4113 101.302 61.6141 101.251 61.7915C101.124 62.1463 100.896 62.3744 100.668 62.5264C100.44 62.6532 100.237 62.7038 100.11 62.7292C99.9836 62.7545 99.9076 62.7292 99.9076 62.7292Z" fill="#263238"/>
<path d="M137.417 62.7292C137.417 62.7292 137.493 62.7292 137.619 62.7038C137.746 62.6785 137.949 62.6278 138.151 62.5011C138.354 62.3744 138.582 62.1209 138.684 61.7915C138.734 61.6141 138.76 61.4367 138.76 61.2339C138.76 61.0312 138.709 60.8284 138.608 60.6257C138.405 60.2455 137.974 59.916 137.442 59.916C136.91 59.916 136.327 59.916 135.744 59.916C134.527 59.916 133.209 59.916 131.816 59.916C131.486 59.916 131.157 60.0428 130.929 60.2708C130.7 60.4989 130.548 60.7777 130.498 61.1072C130.472 61.4367 130.498 61.7408 130.65 61.9942C130.802 62.2477 131.03 62.4504 131.309 62.5771C131.587 62.7038 131.866 62.6785 132.145 62.6785C132.424 62.6785 132.703 62.6785 132.981 62.6785C133.514 62.6785 134.02 62.6785 134.477 62.6785C135.389 62.6785 136.099 62.7038 136.631 62.7038C136.884 62.7038 137.062 62.7038 137.214 62.7038C137.34 62.7292 137.417 62.7292 137.417 62.7292C137.417 62.7292 137.34 62.7292 137.214 62.7545C137.062 62.7545 136.884 62.7545 136.631 62.7545C136.099 62.7545 135.364 62.7545 134.477 62.7799C134.02 62.7799 133.514 62.7799 132.981 62.7799C132.703 62.7799 132.449 62.7799 132.145 62.7799C131.993 62.7799 131.866 62.7799 131.714 62.7799C131.562 62.7799 131.41 62.7292 131.258 62.6785C130.979 62.5518 130.7 62.349 130.548 62.0449C130.371 61.7661 130.346 61.4113 130.371 61.0818C130.396 60.7524 130.574 60.3976 130.827 60.1695C131.081 59.9414 131.435 59.7893 131.816 59.7893C133.209 59.7893 134.527 59.7893 135.744 59.7893C136.352 59.7893 136.91 59.7893 137.442 59.7893C137.999 59.7893 138.481 60.1441 138.684 60.575C138.785 60.7777 138.836 61.0058 138.836 61.2086C138.836 61.4113 138.81 61.6141 138.76 61.7915C138.633 62.1463 138.405 62.3744 138.177 62.5264C137.949 62.6532 137.746 62.7038 137.619 62.7292C137.467 62.7545 137.417 62.7292 137.417 62.7292Z" fill="#263238"/>
<path d="M170.287 56.6208H162.786C161.747 56.6208 160.809 57.1784 160.327 58.0908C159.947 58.8258 159.896 59.7128 160.251 60.4985L163.191 67.1892L170.693 67.1132C170.693 67.1132 172.29 58.6484 170.287 56.6208Z" fill="#FAFAFA"/>
<path d="M66.099 55.6549L104.799 54.9453L129.991 54.4891L138.304 49.6991C138.988 49.3189 139.165 48.4319 138.684 47.7983L133.514 41.0062C132.981 40.2965 132.145 39.891 131.258 39.8657L103.076 39.6376C103.076 39.6376 92.4566 39.0294 84.1185 43.6926C75.2988 48.6347 66.099 55.6549 66.099 55.6549Z" fill="#263238"/>
<path d="M83.8397 40.3484C83.8397 40.3484 85.7911 41.2354 84.524 42.0464C83.2568 42.8574 63.6407 55.2252 63.6407 55.2252L59.1295 53.1724C67.1128 48.7372 75.1974 44.4287 83.8397 40.3484Z" fill="#455A64"/>
<path d="M64.2743 55.5295C64.2743 55.5295 64.2236 55.5548 64.1475 55.5548C64.0715 55.5802 63.9448 55.6055 63.7927 55.6309C63.4633 55.7069 63.0071 55.7829 62.4242 55.9097C61.233 56.1377 59.4843 56.4926 57.3554 56.8474C53.047 57.5823 47.0912 58.444 40.4511 59.0269C38.8037 59.179 37.1817 59.2804 35.6104 59.3818C34.0391 59.4831 32.5438 59.5845 31.0992 59.7112C28.2354 59.9647 25.6503 60.3702 23.5721 61.0038C21.4686 61.612 19.8719 62.3723 18.8328 62.9806C18.3006 63.2594 17.9204 63.5381 17.6416 63.7155C17.5149 63.7916 17.4136 63.8676 17.3375 63.9183C17.2615 63.969 17.2361 63.969 17.2361 63.969C17.2361 63.969 17.2615 63.9436 17.3375 63.893C17.4136 63.8423 17.5149 63.7662 17.6416 63.6902C17.9204 63.5128 18.3006 63.234 18.8328 62.9299C19.8719 62.2963 21.4686 61.5106 23.5721 60.9024C25.6756 60.2688 28.2354 59.8379 31.1246 59.5845C32.5692 59.4578 34.0644 59.3564 35.6358 59.255C37.2071 59.1537 38.8291 59.0269 40.4764 58.8749C47.1165 58.292 53.0723 57.4556 57.3808 56.746C59.535 56.3912 61.2584 56.0617 62.4749 55.8336C63.0578 55.7322 63.5393 55.6309 63.8434 55.5802C63.9955 55.5548 64.1222 55.5295 64.1982 55.5042C64.2236 55.5548 64.2743 55.5295 64.2743 55.5295Z" fill="#263238"/>
<path d="M173.278 72.8651C173.278 72.8904 170.693 72.9411 167.525 72.9411C164.332 72.9411 161.772 72.9158 161.772 72.8651C161.772 72.8144 164.357 72.7891 167.525 72.7891C170.693 72.8144 173.278 72.8397 173.278 72.8651Z" fill="#263238"/>
<path d="M126.088 79.4544C126.088 79.4798 111.515 79.5305 93.5717 79.5305C75.603 79.5305 61.0556 79.5051 61.0556 79.4544C61.0556 79.4291 75.6283 79.3784 93.5717 79.3784C111.515 79.4038 126.088 79.4291 126.088 79.4544Z" fill="#263238"/>
<path d="M24.1043 73.0931C24.1043 73.1185 22.0514 73.1692 19.517 73.1692C16.9827 73.1692 14.9298 73.1438 14.9298 73.0931C14.9298 73.0424 16.9827 73.0171 19.517 73.0171C22.0514 73.0171 24.1043 73.0678 24.1043 73.0931Z" fill="#263238"/>
<path d="M158.021 44.8093C158.021 44.8093 156.298 46.7355 156.982 48.1547C157.666 49.574 164.686 54.5414 164.686 54.5414L169.781 55.5044L158.021 44.8093Z" fill="#455A64"/>
<path d="M109.564 41.3381L108.398 53.7313L128.926 53.1484L137.188 48.333L131.841 41.3381H109.564Z" fill="#455A64"/>
<path d="M70.965 54.3638C70.965 54.3638 83.3328 45.4175 88.2242 43.6434C92.9381 41.92 95.3965 41.4892 99.8063 41.3625C104.039 41.2358 106.624 41.3625 106.624 41.3625L103.354 53.933L70.965 54.3638Z" fill="#455A64"/>
<path d="M69.1403 54.39C69.1403 53.6043 69.5711 52.8947 70.2554 52.4892L73.0939 50.8925C73.9049 50.4363 74.8173 50.2083 75.755 50.2083C76.3379 50.2083 76.8955 50.3096 77.453 50.487C78.6695 50.8925 79.4805 52.033 79.5312 53.3255C79.6073 55.0996 78.188 56.5696 76.4139 56.5696H71.3452C70.1033 56.5696 69.1403 55.6065 69.1403 54.39Z" fill="#FFAE12"/>
<path d="M69.1403 54.3891C69.1403 54.3891 69.1403 54.4905 69.1656 54.6679C69.191 54.8453 69.2417 55.0987 69.4191 55.4029C69.5965 55.707 69.8753 56.0365 70.2808 56.2646C70.4835 56.3659 70.737 56.4673 71.0157 56.4926C71.2945 56.518 71.5733 56.518 71.8774 56.518C73.1193 56.518 74.5892 56.518 76.2112 56.4926C76.6167 56.4926 77.0222 56.442 77.4277 56.2899C77.8079 56.1378 78.188 55.9097 78.4922 55.6056C78.7963 55.3015 79.0497 54.9213 79.2271 54.5158C79.3792 54.085 79.4552 53.6288 79.4045 53.1726C79.3285 52.2602 78.847 51.3985 78.1373 50.8917C77.7825 50.6382 77.377 50.4862 76.9715 50.3848C76.566 50.2834 76.1352 50.2327 75.755 50.2327C74.944 50.2327 74.1837 50.4101 73.5248 50.7143C73.1953 50.8663 72.8912 51.0437 72.6124 51.1958C72.3083 51.3479 72.0295 51.5253 71.776 51.6773C71.2438 51.9814 70.7369 52.2349 70.3314 52.4883C69.9006 52.7164 69.6218 53.0459 69.4698 53.35C69.2924 53.6541 69.2417 53.9076 69.2163 54.085C69.1403 54.3131 69.1403 54.3891 69.1403 54.3891C69.1403 54.3891 69.1149 54.2877 69.1403 54.1103C69.1656 53.9329 69.2163 53.6541 69.3684 53.35C69.5204 53.0459 69.7992 52.6911 70.2554 52.463C70.6863 52.2095 71.1678 51.9308 71.7 51.6266C71.9788 51.4746 72.2576 51.3225 72.5364 51.1451C72.8405 50.993 73.1193 50.7903 73.4741 50.6382C74.133 50.3341 74.9187 50.1313 75.755 50.1313C76.1605 50.1313 76.5914 50.182 77.0222 50.2834C77.4277 50.3848 77.8839 50.5369 78.2387 50.7903C78.999 51.2972 79.5059 52.1842 79.5819 53.1473C79.6073 53.6288 79.5566 54.1103 79.3792 54.5412C79.2018 54.972 78.9483 55.3775 78.6189 55.6816C78.2894 55.9858 77.9093 56.2392 77.5038 56.3913C77.0983 56.5433 76.6674 56.594 76.2619 56.594C74.6399 56.594 73.17 56.594 71.9281 56.5687C71.624 56.5687 71.3199 56.5687 71.0411 56.5433C70.7623 56.4926 70.5089 56.4166 70.2808 56.2899C69.8499 56.0365 69.5711 55.707 69.3937 55.4029C69.2417 55.0987 69.191 54.82 69.1656 54.6425C69.1403 54.4905 69.1403 54.3891 69.1403 54.3891Z" fill="#263238"/>
<path d="M164.458 87.4129C164.458 87.4129 164.458 87.3622 164.458 87.2355C164.458 87.1088 164.484 86.9314 164.484 86.7286C164.509 86.5005 164.534 86.2218 164.534 85.8923C164.534 85.5628 164.56 85.1827 164.585 84.7518C164.585 84.321 164.585 83.8394 164.585 83.3326C164.56 82.8004 164.56 82.2428 164.484 81.6345C164.382 80.418 164.18 79.0241 163.749 77.5542C163.521 76.8192 163.293 76.0589 162.938 75.2732C162.608 74.5129 162.203 73.7273 161.721 72.9669C160.758 71.4463 159.39 70.0271 157.768 68.8359C156.12 67.6447 154.194 66.6817 152.091 66.0227C149.987 65.3638 147.681 65.1357 145.324 65.1104C142.992 65.1104 140.686 65.4145 138.582 66.0988C137.518 66.4282 136.529 66.8591 135.592 67.3406C134.654 67.8222 133.792 68.4304 132.981 69.0387C131.385 70.3058 130.041 71.6998 128.977 73.1444C128.445 73.8793 128.014 74.6396 127.634 75.3746C127.279 76.1349 126.95 76.8699 126.721 77.6049C125.708 80.5194 125.378 83.0031 125.251 84.7265C125.201 85.5882 125.226 86.2471 125.226 86.7033C125.251 86.9314 125.251 87.1088 125.251 87.2102C125.251 87.3369 125.251 87.3876 125.251 87.3876C125.251 87.3876 125.251 87.3369 125.226 87.2102C125.226 87.0835 125.201 86.9314 125.175 86.7033C125.15 86.2471 125.125 85.5882 125.175 84.7265C125.277 83.0031 125.581 80.4941 126.595 77.5795C126.848 76.8446 127.152 76.1096 127.507 75.3493C127.887 74.589 128.318 73.8286 128.85 73.0937C129.915 71.6237 131.283 70.2045 132.88 68.9373C133.691 68.3037 134.553 67.7208 135.49 67.2139C136.428 66.7324 137.442 66.3015 138.506 65.9721C140.635 65.2878 142.941 64.9836 145.298 64.9836C147.655 65.009 149.962 65.2371 152.091 65.896C154.219 66.5296 156.171 67.518 157.818 68.7345C158.629 69.3428 159.39 70.0017 160.049 70.7113C160.707 71.421 161.316 72.1559 161.797 72.9163C162.279 73.6766 162.71 74.4622 163.014 75.2479C163.343 76.0082 163.597 76.7939 163.825 77.5288C164.23 79.0241 164.433 80.3927 164.534 81.6345C164.61 82.2428 164.61 82.8257 164.636 83.3326C164.636 83.8648 164.636 84.3463 164.636 84.7772C164.61 85.208 164.61 85.5882 164.585 85.9176C164.56 86.2471 164.534 86.5259 164.509 86.754C164.484 86.9821 164.484 87.1595 164.458 87.2609C164.484 87.3622 164.458 87.4129 164.458 87.4129Z" fill="white"/>
<path d="M102.797 55.656C102.797 55.656 102.772 55.656 102.746 55.656C102.695 55.656 102.645 55.656 102.569 55.656C102.417 55.656 102.189 55.656 101.91 55.6814C101.327 55.6814 100.491 55.7067 99.4768 55.732C97.424 55.7827 94.5855 55.8334 91.4682 55.9348C88.3255 56.0108 85.487 56.0869 83.4342 56.0869C82.3951 56.0869 81.5841 56.0869 81.0012 56.0869C80.7224 56.0869 80.4943 56.0869 80.3422 56.0869C80.2662 56.0869 80.2155 56.0869 80.1648 56.0869C80.1141 56.0869 80.1141 56.0869 80.1141 56.0869C80.1141 56.0869 80.1395 56.0869 80.1648 56.0869C80.2155 56.0869 80.2662 56.0869 80.3422 56.0869C80.4943 56.0869 80.7224 56.0869 81.0012 56.0615C81.5841 56.0615 82.4204 56.0362 83.4342 56.0108C85.487 55.9601 88.3255 55.9094 91.4428 55.8081C94.5855 55.732 97.3986 55.656 99.4515 55.656C100.491 55.656 101.302 55.656 101.884 55.656C102.163 55.656 102.391 55.656 102.543 55.656C102.619 55.656 102.67 55.656 102.721 55.656C102.772 55.656 102.797 55.656 102.797 55.656Z" fill="white"/>
<path d="M99.4261 59.4845C99.4261 59.5098 98.4377 59.5605 97.1958 59.5605C95.9793 59.5605 94.9656 59.5352 94.9656 59.4845C94.9656 59.4591 95.954 59.4084 97.1958 59.4084C98.4377 59.4084 99.4261 59.4338 99.4261 59.4845Z" fill="white"/>
<path d="M100.262 45.9243C100.288 45.9497 97.5254 47.1155 94.1039 48.484C90.6825 49.8779 87.92 50.9677 87.8947 50.917C87.8694 50.8663 90.6318 49.7259 94.0532 48.3573C97.4493 46.9634 100.237 45.8736 100.262 45.9243Z" fill="white"/>
<path d="M94.6614 46.7866C94.6868 46.8119 92.051 47.9777 88.807 49.3716C85.563 50.7655 82.9019 51.8553 82.9019 51.83C82.8766 51.8046 85.5123 50.6388 88.7563 49.2449C92.0003 47.851 94.6614 46.7612 94.6614 46.7866Z" fill="white"/>
<path d="M130.092 45.4409C130.117 45.4662 127.355 46.632 123.934 48.0006C120.512 49.3945 117.75 50.4843 117.724 50.4336C117.699 50.4083 120.461 49.2424 123.883 47.8739C127.304 46.5053 130.067 45.3902 130.092 45.4409Z" fill="white"/>
<path d="M124.491 46.3039C124.516 46.3292 121.881 47.4951 118.637 48.889C115.393 50.2829 112.732 51.3727 112.732 51.3473C112.706 51.322 115.342 50.1562 118.586 48.7622C121.83 47.3683 124.491 46.2786 124.491 46.3039Z" fill="white"/>
<path d="M130.624 55.6562C130.624 55.6816 125.15 55.7576 118.383 55.7829C111.617 55.8336 106.142 55.8336 106.142 55.7829C106.142 55.7576 111.617 55.6816 118.383 55.6562C125.15 55.6309 130.624 55.6309 130.624 55.6562Z" fill="white"/>
<path d="M136.707 59.2553C136.707 59.2807 135.161 59.3314 133.285 59.3567C131.385 59.382 129.839 59.3567 129.839 59.3314C129.839 59.306 131.385 59.2553 133.26 59.23C135.161 59.2046 136.707 59.23 136.707 59.2553Z" fill="white"/>
<path d="M31.7328 57.4046C31.7328 57.4046 31.6821 57.4299 31.5807 57.4299C31.4793 57.4553 31.3273 57.4553 31.1499 57.4806C30.9725 57.506 30.7444 57.5313 30.4656 57.582C30.2121 57.6327 29.908 57.658 29.5785 57.7341C28.9196 57.8608 28.1339 58.0128 27.2723 58.2409C26.4106 58.469 25.4982 58.7732 24.5351 59.1533C23.5721 59.5335 22.685 59.939 21.8994 60.3445C21.1137 60.75 20.4294 61.1555 19.8719 61.5356C19.5931 61.713 19.3396 61.8904 19.1115 62.0425C18.8835 62.1946 18.706 62.3213 18.554 62.448C18.4019 62.5494 18.3005 62.6254 18.1992 62.7014C18.1231 62.7521 18.0724 62.7775 18.0724 62.7775C18.0724 62.7775 18.0978 62.7268 18.1738 62.6761C18.2499 62.6001 18.3766 62.524 18.5033 62.3973C18.6554 62.2706 18.8328 62.1439 19.0609 61.9918C19.289 61.8398 19.517 61.6623 19.7958 61.4849C20.3534 61.1048 21.0377 60.6993 21.8233 60.2684C22.609 59.8629 23.496 59.4321 24.4591 59.0519C25.4222 58.6718 26.3599 58.393 27.2216 58.1396C28.0833 57.9115 28.8689 57.7594 29.5279 57.658C29.8573 57.6073 30.1614 57.5566 30.4402 57.5313C30.6937 57.506 30.9471 57.4806 31.1245 57.4553C31.3019 57.4299 31.454 57.4299 31.5554 57.4299C31.6821 57.3792 31.7328 57.3792 31.7328 57.4046Z" fill="white"/>
<path d="M76.9969 51.4242C76.9969 51.4242 76.9208 51.3228 76.7434 51.1961C76.566 51.0694 76.2872 50.9173 75.9071 50.8667C75.5269 50.816 75.0454 50.892 74.5639 51.0187C74.057 51.1454 73.5248 51.3228 72.9672 51.5509C71.8774 52.0325 70.965 52.6661 70.3821 53.1729C69.7739 53.6798 69.4697 54.06 69.4444 54.0346C69.4444 54.0346 69.5204 53.9333 69.6472 53.7558C69.7992 53.5784 70.0273 53.3503 70.3061 53.0969C70.889 52.5647 71.8014 51.9057 72.9165 51.4242C73.4741 51.1708 74.0316 50.9934 74.5385 50.892C75.0454 50.7653 75.5269 50.7146 75.9324 50.7653C76.3379 50.816 76.6167 50.9934 76.7941 51.1454C76.8701 51.2215 76.9208 51.2975 76.9715 51.3482C76.9715 51.3735 76.9969 51.4242 76.9969 51.4242Z" fill="white"/>
<path d="M158.579 44.7319C158.579 44.7319 158.198 44.8333 157.489 44.8333C157.134 44.8333 156.703 44.7826 156.222 44.6812C155.74 44.5798 155.183 44.4024 154.6 44.1743C154.017 43.9462 153.383 43.6674 152.724 43.3887C152.395 43.2619 152.04 43.1099 151.66 42.9578C151.305 42.8058 150.925 42.679 150.519 42.5523C148.973 42.0201 147.225 41.5386 145.349 41.1331C141.624 40.3474 138.177 40.0179 135.693 39.9419C135.06 39.9166 134.502 39.9166 134.02 39.8912C133.539 39.8912 133.108 39.8912 132.753 39.8912C132.424 39.8912 132.145 39.9166 131.942 39.9166C131.866 39.9166 131.79 39.9166 131.74 39.9166C131.79 39.9166 131.866 39.9166 131.942 39.8912C132.145 39.8912 132.398 39.8659 132.753 39.8405C133.108 39.8405 133.539 39.8152 134.02 39.8152C134.527 39.8152 135.085 39.8152 135.693 39.8405C138.177 39.9166 141.649 40.2207 145.375 41.0063C147.25 41.4118 148.999 41.8934 150.545 42.4256C150.925 42.5777 151.305 42.7044 151.685 42.8311C152.04 42.9832 152.395 43.1352 152.75 43.2619C153.434 43.5661 154.042 43.8449 154.625 44.0729C155.208 44.301 155.74 44.4784 156.222 44.5798C156.703 44.6812 157.134 44.7319 157.464 44.7572C157.818 44.7572 158.072 44.7572 158.275 44.7319C158.351 44.7319 158.427 44.7065 158.477 44.7065C158.553 44.7065 158.579 44.7065 158.579 44.7319Z" fill="#263238"/>
<path d="M36.6495 45.0614C35.6357 39.5111 34.9515 38.6748 34.3939 36.7487C33.8363 34.8732 32.924 33.606 31.7835 33.1752C31.0232 32.8711 27.1963 31.5025 25.8784 31.9587C24.4084 32.4656 23.1159 33.2005 22.2035 33.8088C21.3165 34.3917 20.6322 35.2534 20.2774 36.2671L18.2245 41.9948L21.798 45.543L23.5974 41.7414L25.5489 46.3033L25.2701 50.9159L36.3961 53.9064C37.3845 52.2844 37.2324 48.2041 36.6495 45.0614Z" fill="#FFAE12"/>
<g opacity="0.2">
<path d="M33.7603 39.0305C33.2788 41.9197 33.2027 42.3252 32.6959 45.2144C32.5185 46.2028 32.0369 47.7488 31.3273 48.4584C30.7951 48.9906 30.2882 49.4975 29.5786 49.6749C28.8943 49.827 27.8805 49.8523 27.2469 49.5735C26.6133 49.2948 26.0811 48.0529 26.3346 47.4193C27.2723 47.6221 27.5764 47.9262 28.3874 47.4193C29.097 46.9631 30.1108 45.9747 30.4909 45.2144C32.0876 42.0464 32.5438 41.9451 33.7603 39.0305Z" fill="black"/>
</g>
<path d="M25.7009 44.6048C25.6756 44.6048 25.4982 44.326 25.2194 43.8444C24.9153 43.3376 24.5098 42.6786 24.0789 41.969C23.6227 41.2594 23.2172 40.6258 22.9131 40.1189C22.609 39.6374 22.4316 39.3586 22.4316 39.3333C22.4316 39.3333 22.5076 39.3839 22.5836 39.5107C22.685 39.6374 22.8117 39.8148 22.9638 40.0429C23.2933 40.4991 23.7241 41.158 24.1803 41.8676C24.6365 42.6026 25.0166 43.2615 25.2954 43.7684C25.4222 44.0219 25.5489 44.2246 25.5996 44.3513C25.6756 44.5287 25.7009 44.6048 25.7009 44.6048Z" fill="#263238"/>
<path d="M33.4562 49.8005C33.4562 49.8005 33.3548 49.8512 33.2027 49.9019C33.1267 49.9272 33 49.9526 32.8986 49.9779C32.7719 50.0033 32.6452 50.054 32.4678 50.0793C32.1383 50.13 31.7581 50.1807 31.3526 50.1807C30.9218 50.1807 30.4656 50.1553 29.9587 50.054C29.4772 49.9526 29.021 49.8259 28.6155 49.6738C28.21 49.5217 27.8805 49.3443 27.6018 49.1923C27.4497 49.1162 27.3483 49.0402 27.2469 48.9642C27.1456 48.8882 27.0442 48.8375 26.9935 48.7614C26.8414 48.6601 26.7654 48.584 26.7908 48.584C26.8161 48.5587 27.1202 48.8121 27.6778 49.1162C27.9566 49.2683 28.3114 49.4204 28.6915 49.5724C29.097 49.7245 29.5279 49.8512 30.0094 49.9272C30.4909 50.0033 30.9471 50.054 31.378 50.054C31.8088 50.054 32.1636 50.0286 32.4931 49.9779C33.076 49.8766 33.4562 49.7752 33.4562 49.8005Z" fill="#263238"/>
<path d="M28.9956 41.1604C28.9703 41.2618 27.7791 43.6441 27.7791 43.6441L22.1274 40.6789L21.5445 38.2459C21.4431 37.8657 21.2151 37.5362 20.8856 37.3335C20.5308 37.1054 20.0999 37.0294 19.7198 37.1307L18.0471 37.815C17.9204 37.8657 17.7936 37.9924 17.7683 38.1445C17.7429 38.2712 17.7683 38.3979 17.9964 38.3726C18.4019 38.3472 19.2636 38.2459 19.2636 38.2459L18.8581 39.6398C18.7567 39.9946 18.8074 40.4001 18.9595 40.7296L19.2129 41.2111L19.7705 42.0981C19.7705 42.0981 25.2701 47.7244 28.3367 48.1046C30.1868 48.3327 32.2903 43.1372 32.2903 43.1372L28.9956 41.1604Z" fill="#B78876"/>
<path d="M19.2382 38.2984C19.2382 38.2984 19.2889 38.2477 19.3649 38.1716C19.4663 38.121 19.6184 38.0449 19.7958 38.0449C19.9732 38.0449 20.1253 38.1716 20.1759 38.2984C20.2266 38.3997 20.2013 38.5011 20.1759 38.4758C20.1506 38.4758 20.1759 38.3997 20.1253 38.3237C20.0746 38.2477 19.9478 38.1463 19.7958 38.1463C19.6437 38.1463 19.4917 38.197 19.3903 38.2477C19.3143 38.273 19.2382 38.3237 19.2382 38.2984Z" fill="#AA6550"/>
<path d="M19.9478 39.1562C19.9478 39.1562 19.9225 39.1055 19.8464 39.0549C19.7957 38.9788 19.6944 38.9028 19.593 38.8521C19.4663 38.8014 19.3649 38.8014 19.2635 38.8268C19.1875 38.8268 19.1368 38.8521 19.1115 38.8521C19.1115 38.8521 19.1621 38.8014 19.2382 38.7761C19.3395 38.7507 19.4663 38.7254 19.593 38.8014C19.7197 38.8521 19.8211 38.9535 19.8718 39.0295C19.9478 39.1055 19.9478 39.1562 19.9478 39.1562Z" fill="#AA6550"/>
<path d="M30.1614 33.632L28.6408 40.8803L32.6958 43.3133L34.2418 38.8528C34.2418 38.8528 33.6082 33.4546 30.1614 33.632Z" fill="#FFAE12"/>
<path d="M32.341 33.7595C32.341 33.7595 32.3157 33.7849 32.2396 33.8355C32.1636 33.8862 32.0622 33.9369 31.9355 33.9876C31.6567 34.1143 31.2766 34.3171 30.7697 34.5452C29.7813 34.976 28.3874 35.5336 26.74 35.8124C25.0927 36.0912 23.572 35.9644 22.533 35.6603C22.0007 35.5082 21.5952 35.3562 21.3165 35.2295C21.1897 35.1788 21.0884 35.1027 21.0123 35.0774C20.9363 35.0267 20.9109 35.0267 20.9109 35.0014C20.9109 35.0014 21.063 35.0521 21.3418 35.1788C21.6206 35.3055 22.0261 35.4322 22.5583 35.5589C23.5974 35.8124 25.118 35.9391 26.7147 35.6603C28.3367 35.3815 29.7306 34.8493 30.719 34.4438C31.2259 34.2411 31.606 34.0636 31.8848 33.9369C32.1889 33.8102 32.341 33.7595 32.341 33.7595Z" fill="#EBEBEB"/>
<path d="M33.4054 34.5699C33.4054 34.5699 33.3801 34.5952 33.3041 34.6459C33.2027 34.6966 33.1013 34.7726 32.9746 34.8486C32.8225 34.95 32.6451 35.0514 32.417 35.1781C32.1889 35.3048 31.9608 35.4315 31.682 35.5583C31.53 35.6343 31.4033 35.685 31.2512 35.761C31.0991 35.837 30.9217 35.8877 30.7697 35.9638C30.4402 36.1158 30.06 36.2172 29.6799 36.3439C28.8942 36.572 28.0072 36.7748 27.0695 36.9015C26.1318 37.0029 25.2194 37.0282 24.4084 36.9775C24.0029 36.9522 23.5974 36.9268 23.2426 36.8508C23.0651 36.8255 22.8877 36.8001 22.7103 36.7748C22.5329 36.7494 22.3809 36.6987 22.2288 36.6734C21.9247 36.6227 21.6459 36.5467 21.4178 36.4706C21.1897 36.42 20.987 36.3439 20.8095 36.2932C20.6575 36.2426 20.5308 36.1919 20.4294 36.1665C20.3534 36.1412 20.3027 36.1158 20.3027 36.1158C20.3027 36.1158 20.3534 36.1158 20.4294 36.1412C20.5308 36.1665 20.6575 36.2172 20.8095 36.2425C20.987 36.2932 21.1897 36.3439 21.4178 36.3946C21.6459 36.4453 21.9247 36.5213 22.2288 36.572C22.3809 36.5974 22.5329 36.6227 22.7103 36.648C22.8877 36.6734 23.0398 36.6987 23.2426 36.7241C23.5974 36.7748 23.9775 36.8001 24.4084 36.8255C25.2194 36.8508 26.1318 36.8508 27.0695 36.7241C28.0072 36.5974 28.8689 36.42 29.6545 36.1919C30.0347 36.0651 30.4149 35.9638 30.7443 35.8117C30.9217 35.7357 31.0738 35.685 31.2259 35.6343C31.3779 35.5583 31.53 35.5076 31.682 35.4315C31.9608 35.3048 32.2143 35.1781 32.4424 35.0767C32.6705 34.9754 32.8479 34.874 32.9999 34.7726C33.152 34.6966 33.2534 34.6205 33.3547 34.5699C33.3801 34.5699 33.4054 34.5445 33.4054 34.5699Z" fill="#EBEBEB"/>
<path d="M32.6958 43.3136C32.6958 43.3136 32.5691 43.2629 32.3664 43.1362C32.1383 43.0095 31.8341 42.832 31.4793 42.6293C30.719 42.1731 29.6546 41.5649 28.4381 40.8806L28.3874 40.8552V40.8045C28.4888 40.2723 28.6155 39.6894 28.7422 39.0812C28.9196 38.1688 29.097 37.3324 29.2744 36.5468C29.3505 36.1666 29.4265 35.7865 29.5025 35.4317C29.5785 35.0768 29.6799 34.7727 29.832 34.4939C30.1108 33.9364 30.567 33.6322 30.8711 33.5309C31.0231 33.4802 31.1752 33.4548 31.2512 33.4548C31.3526 33.4548 31.378 33.4548 31.378 33.4802C31.378 33.5055 31.1752 33.4548 30.8711 33.5816C30.567 33.7083 30.1361 33.9871 29.8827 34.5446C29.756 34.7981 29.6546 35.1275 29.5785 35.457C29.5025 35.8118 29.4265 36.1666 29.3505 36.5721C29.1984 37.3578 29.021 38.2195 28.8436 39.1065C28.7169 39.7148 28.6155 40.2977 28.4888 40.8299L28.4634 40.7539C29.6799 41.4635 30.719 42.0971 31.4793 42.5533C31.8341 42.7814 32.1383 42.9588 32.341 43.0855C32.5945 43.2375 32.6958 43.3136 32.6958 43.3136Z" fill="#263238"/>
<path d="M33.9377 38.6499C33.963 38.6499 33.963 38.9033 33.9123 39.3342C33.8617 39.7397 33.7856 40.3226 33.6336 40.9308C33.4815 41.5391 33.2787 42.0967 33.1013 42.4768C32.9239 42.857 32.7972 43.0851 32.7972 43.0851C32.7719 43.0851 32.8732 42.8316 33.0253 42.4515C33.1774 42.0713 33.3548 41.5138 33.5322 40.9055C33.6843 40.2973 33.7856 39.7397 33.8617 39.3342C33.887 38.9033 33.9123 38.6499 33.9377 38.6499Z" fill="#263238"/>
<path d="M11.9395 78.9446L11.8889 82.8222C11.8889 82.8222 7.93522 84.064 7.85919 84.799L15.361 85.1538L15.6904 79.122L11.9395 78.9446Z" fill="#455A64"/>
<path d="M14.2456 82.5953C14.3976 82.646 14.4737 82.7981 14.4483 82.9501C14.3976 83.1022 14.2456 83.1782 14.0935 83.1529C13.9414 83.1022 13.8401 82.8994 13.8907 82.7727C13.9414 82.6206 14.1442 82.5193 14.2709 82.6206" fill="#E0E0E0"/>
<path d="M15.3607 85.1288V84.5206L8.16306 84.4192C8.16306 84.4192 7.83359 84.5459 7.85893 84.774L15.3607 85.1288Z" fill="#E0E0E0"/>
<path d="M11.7872 82.7713C11.7872 82.7966 11.9646 82.822 12.142 82.9487C12.3194 83.0754 12.3955 83.2275 12.4462 83.2275C12.4715 83.2275 12.4462 82.9994 12.2181 82.8473C11.99 82.6953 11.7619 82.746 11.7872 82.7713Z" fill="#263238"/>
<path d="M10.9762 83.0506C10.9762 83.0759 11.1283 83.1519 11.2296 83.304C11.3564 83.4561 11.3817 83.6335 11.407 83.6335C11.4324 83.6335 11.4831 83.4307 11.331 83.228C11.2043 83.0506 10.9762 83.0252 10.9762 83.0506Z" fill="#263238"/>
<path d="M10.4947 83.9881C10.52 83.9881 10.596 83.8107 10.4947 83.6079C10.4186 83.4052 10.2412 83.3038 10.2159 83.3545C10.1905 83.3798 10.2919 83.5065 10.3679 83.6586C10.444 83.8107 10.444 83.9627 10.4947 83.9881Z" fill="#263238"/>
<path d="M11.8886 81.8852C11.9139 81.9105 12.066 81.8852 12.2687 81.9105C12.4715 81.9359 12.6236 82.0119 12.6489 81.9866C12.6742 81.9612 12.5222 81.8092 12.2687 81.7838C12.0406 81.7585 11.8632 81.8598 11.8886 81.8852Z" fill="#263238"/>
<g opacity="0.3">
<path d="M11.9393 79.7051V80.3894L15.6141 80.5414L15.6395 79.9332L11.9393 79.7051Z" fill="black"/>
</g>
<path d="M11.9139 81.0986C11.9139 81.1239 12.066 81.1493 12.2941 81.1239C12.4208 81.0986 12.5475 81.0732 12.6996 81.0225C12.7756 80.9972 12.8517 80.9719 12.9277 80.9212C12.953 80.8958 13.0037 80.8705 13.0544 80.8451C13.1051 80.8198 13.1304 80.7184 13.0798 80.6424C13.0544 80.5917 12.9784 80.5664 12.9277 80.541C12.877 80.541 12.8263 80.541 12.7756 80.5664C12.6996 80.5917 12.6236 80.617 12.5475 80.6424C12.3955 80.6931 12.2688 80.7691 12.1927 80.8451C12.0153 80.9972 11.9393 81.1239 11.9646 81.1493C11.99 81.1746 12.066 81.0479 12.2434 80.9212C12.3448 80.8705 12.4462 80.7945 12.5982 80.7438C12.6743 80.7184 12.7503 80.6931 12.8263 80.6931C12.9023 80.6677 12.9784 80.6677 13.0037 80.7184C13.0037 80.7438 13.0037 80.7438 13.0037 80.7691C12.9784 80.7945 12.953 80.8198 12.9277 80.8198C12.8517 80.8705 12.801 80.8958 12.7249 80.9212C12.5982 80.9719 12.4715 81.0225 12.3448 81.0479C12.0407 81.0986 11.9139 81.0986 11.9139 81.0986Z" fill="#263238"/>
<path d="M11.9647 81.1755C11.99 81.1755 12.066 81.0488 12.0914 80.8207C12.0914 80.694 12.0914 80.5673 12.066 80.4152C12.0407 80.3392 12.0154 80.2632 11.99 80.1871C11.9393 80.1111 11.8886 80.0097 11.7619 79.9844C11.6859 79.9844 11.6352 80.0351 11.6099 80.0857C11.5845 80.1364 11.5845 80.1871 11.5592 80.2125C11.5338 80.2885 11.5338 80.3899 11.5592 80.4659C11.5845 80.618 11.6352 80.77 11.7112 80.8714C11.838 81.0742 11.99 81.1248 12.0154 81.0995C12.0407 81.0742 11.914 80.9981 11.8126 80.8207C11.7619 80.7193 11.7112 80.5926 11.7112 80.4659C11.7112 80.3899 11.7112 80.3138 11.7366 80.2378C11.7619 80.1618 11.7873 80.0858 11.8126 80.1111C11.838 80.1111 11.914 80.1871 11.9393 80.2378C11.9647 80.3138 11.99 80.3645 12.0154 80.4406C12.066 80.5673 12.066 80.7193 12.066 80.8207C11.99 81.0235 11.9393 81.1502 11.9647 81.1755Z" fill="#263238"/>
<path d="M27.2216 50.9414C27.2216 50.9414 15.5128 46.0247 11.8886 45.8219C9.60766 45.6952 7.88428 47.1398 8.21375 49.4968C8.36581 50.6626 11.6098 64.4496 11.6098 64.4496L16.5519 62.194L14.1695 52.6648L23.8002 57.3534L27.2216 50.9414Z" fill="#263238"/>
<path d="M12.6743 50.2578C12.6236 50.2832 13.0291 50.7901 13.4346 51.449C13.8401 52.1079 14.1189 52.6909 14.1696 52.6655C14.2203 52.6402 14.0175 52.0319 13.5867 51.373C13.1812 50.6887 12.725 50.2325 12.6743 50.2578Z" fill="#455A64"/>
<path d="M11.7112 50.8144C11.6858 50.8651 12.2687 51.2453 12.9784 51.7522C13.6627 52.259 14.2202 52.7152 14.2456 52.6899C14.2709 52.6645 13.7894 52.1323 13.0798 51.6255C12.3701 51.0932 11.7365 50.7638 11.7112 50.8144Z" fill="#455A64"/>
<path d="M36.3707 53.9064C36.3707 53.9064 34.9007 55.8072 33.4815 56.3141C31.7074 56.973 18.6554 63.1315 18.6554 63.1315C18.6554 63.1315 16.2984 80.7201 16.4758 79.9852L11.0015 79.8585L11.5844 63.6638C11.6605 61.5856 13.3078 59.2032 15.1072 58.1388L27.1962 50.9412L36.3707 53.9064Z" fill="#263238"/>
<path d="M11.5084 66.6054C11.5084 66.6054 11.5337 66.5294 11.5337 66.3773C11.5337 66.2253 11.5591 65.9972 11.5591 65.7437C11.5844 65.1862 11.6098 64.4005 11.7872 63.4121C11.9392 62.449 12.2434 61.2832 12.9783 60.1934C13.3331 59.6612 13.8147 59.1797 14.3722 58.7488C14.9298 58.318 15.5634 57.9378 16.2223 57.583C18.8581 56.0877 21.1137 54.5418 22.7864 53.4773C23.6227 52.9451 24.307 52.5143 24.7632 52.2355C24.9913 52.1088 25.1687 51.982 25.2954 51.906C25.4221 51.83 25.4728 51.7793 25.4728 51.7793C25.4728 51.7793 25.3968 51.8046 25.2701 51.8807C25.1434 51.9567 24.9406 52.0581 24.7125 52.1848C24.231 52.4636 23.5467 52.8691 22.685 53.376C20.987 54.4151 18.706 55.9103 16.0956 57.431C15.4367 57.8111 14.8031 58.1913 14.2202 58.6221C13.6373 59.053 13.1557 59.5598 12.7756 60.1174C12.0406 61.2325 11.7618 62.4237 11.6098 63.3868C11.4577 64.3752 11.4577 65.1862 11.4577 65.7437C11.4577 65.9972 11.4577 66.2253 11.4577 66.3773C11.5084 66.5294 11.5084 66.6054 11.5084 66.6054Z" fill="#455A64"/>
<path d="M31.5554 55.7567C31.5807 55.7313 31.4287 55.5793 31.2259 55.3005C31.0232 55.0217 30.8204 54.5909 30.7191 54.084C30.6177 53.5771 30.643 53.0956 30.7191 52.7661C30.7951 52.4366 30.8711 52.2339 30.8458 52.2339C30.8204 52.2339 30.6937 52.4113 30.5923 52.7408C30.491 53.0702 30.4403 53.5771 30.5416 54.1347C30.643 54.6669 30.8965 55.1231 31.1246 55.3765C31.3527 55.6553 31.5301 55.7567 31.5554 55.7567Z" fill="#455A64"/>
<path d="M13.0291 79.8337C13.0291 79.8337 13.0291 79.8084 13.0544 79.7324C13.0544 79.6563 13.0797 79.5803 13.0797 79.4789C13.1051 79.2255 13.1304 78.896 13.1811 78.4652C13.2825 77.5528 13.3839 76.2856 13.5613 74.689C13.6373 73.9033 13.7133 73.0163 13.8147 72.0785C13.9161 71.1408 13.9921 70.1524 14.0682 69.088C14.1442 68.0235 14.2456 66.9337 14.4483 65.7933C14.6511 64.6781 14.9298 63.5123 15.4621 62.4225C15.9689 61.3328 16.6786 60.3697 17.4389 59.508C18.2245 58.6717 19.0609 57.962 19.9226 57.3284C21.6206 56.0866 23.2933 55.1742 24.6872 54.3632C26.0811 53.5776 27.1709 52.8933 27.9059 52.3864C28.286 52.133 28.5648 51.9302 28.7422 51.7781C28.8183 51.7021 28.8943 51.6514 28.945 51.6007C28.9957 51.55 29.021 51.55 29.021 51.55C29.021 51.55 28.9957 51.5754 28.945 51.6007C28.8943 51.6514 28.8183 51.7021 28.7169 51.7528C28.5141 51.8795 28.2353 52.0823 27.8552 52.3357C27.1202 52.8172 26.0051 53.5015 24.6112 54.2618C23.2173 55.0475 21.5446 55.9599 19.8212 57.2017C18.9595 57.8353 18.0978 58.5449 17.3122 59.3813C16.5265 60.243 15.8169 61.206 15.2847 62.3212C14.7778 63.4363 14.4737 64.6021 14.2709 65.7426C14.0681 66.8831 13.9921 67.9982 13.9161 69.0373C13.8401 70.1017 13.764 71.0901 13.6626 72.0279C13.5866 72.9656 13.5106 73.8273 13.4346 74.6383C13.3078 76.2096 13.2065 77.5021 13.1304 78.4145C13.1051 78.8453 13.0797 79.2002 13.0544 79.4536C13.0544 79.555 13.0544 79.6563 13.0291 79.7324C13.0291 79.8084 13.0291 79.8337 13.0291 79.8337Z" fill="#455A64"/>
<path d="M25.9037 23.0384C25.5743 22.0754 24.4338 21.4924 23.4707 21.7205C23.2426 21.7712 23.0145 21.8726 22.7864 21.8726C22.5077 21.8726 22.2289 21.7205 21.9501 21.6445C21.3418 21.5178 20.6829 21.9486 20.5562 22.5569C20.0746 22.4555 19.5424 22.5315 19.1623 22.8357C18.7821 23.1398 18.6047 23.7227 18.8328 24.1535C18.9342 24.331 19.0862 24.483 19.1876 24.6858C19.3397 24.9899 19.2636 25.37 19.365 25.6995C19.5171 26.1811 20.0493 26.4852 20.5562 26.5359C21.0631 26.5866 21.5699 26.4598 22.0768 26.3078" fill="#263238"/>
<path d="M23.5467 33.0708C23.4707 32.5893 23.4454 32.2345 23.4454 32.2345C23.4454 32.2345 21.8234 32.2345 21.1644 30.207C20.835 29.1932 20.6069 27.4952 20.4801 26.1013C20.3534 24.8341 21.3165 23.7443 22.5837 23.6683L26.9175 23.4402L27.0188 24.1245L28.1593 32.4626C28.3367 33.7298 27.4497 34.8956 26.1572 35.073C24.8646 35.2251 23.6988 34.338 23.5467 33.0708Z" fill="#B78876"/>
<path d="M21.0884 27.2956C21.1137 27.4477 21.2404 27.549 21.3925 27.5237C21.5445 27.4984 21.6459 27.3716 21.6206 27.2449C21.5952 27.0929 21.4685 26.9915 21.3164 27.0168C21.1644 27.0168 21.063 27.1435 21.0884 27.2956Z" fill="#263238"/>
<path d="M20.987 26.91C21.0377 26.9353 21.2151 26.7579 21.4939 26.7072C21.7726 26.6566 22.0007 26.7833 22.0261 26.7326C22.0514 26.7072 22.0007 26.6565 21.8994 26.6059C21.798 26.5552 21.6459 26.5045 21.4685 26.5552C21.2911 26.5805 21.139 26.6819 21.063 26.7579C20.987 26.834 20.9616 26.91 20.987 26.91Z" fill="#263238"/>
<path d="M23.8002 26.8366C23.8256 26.9887 23.9523 27.0901 24.1044 27.0647C24.2564 27.0394 24.3578 26.9127 24.3325 26.7859C24.3071 26.6339 24.1804 26.5325 24.0283 26.5578C23.9016 26.5578 23.8002 26.6846 23.8002 26.8366Z" fill="#263238"/>
<path d="M23.8002 26.5389C23.8508 26.5642 24.0282 26.3868 24.307 26.3361C24.5858 26.2855 24.8139 26.4122 24.8393 26.3615C24.8646 26.3361 24.8139 26.2855 24.7125 26.2348C24.6112 26.1841 24.4591 26.1334 24.2817 26.1841C24.1043 26.2094 23.9522 26.3108 23.8762 26.3868C23.8002 26.4375 23.7748 26.5136 23.8002 26.5389Z" fill="#263238"/>
<path d="M23.0905 28.8154C23.0905 28.79 22.9131 28.79 22.6089 28.8154C22.5329 28.8154 22.4569 28.8154 22.4315 28.7647C22.4062 28.714 22.4315 28.638 22.4569 28.5366C22.5076 28.3592 22.5329 28.1564 22.5836 27.9537C22.761 27.1173 22.8624 26.4331 22.837 26.4077C22.8117 26.4077 22.6343 27.0667 22.4569 27.9283C22.4062 28.1311 22.3809 28.3338 22.3302 28.5112C22.3048 28.5873 22.2795 28.6887 22.3302 28.8154C22.3555 28.8661 22.4062 28.8914 22.4569 28.8914C22.5076 28.8914 22.5583 28.8914 22.5836 28.8914C22.9131 28.8661 23.0905 28.8407 23.0905 28.8154Z" fill="#263238"/>
<path d="M23.4454 32.2351C23.4454 32.2351 24.8646 32.1084 26.1065 31.0439C26.1065 31.0439 25.6503 32.5646 23.5467 32.7166L23.4454 32.2351Z" fill="#AA6550"/>
<path d="M23.9775 28.8674C23.9268 28.8674 23.9775 29.1716 23.7494 29.4503C23.5213 29.7038 23.1918 29.7291 23.1918 29.7798C23.1918 29.8052 23.2679 29.8305 23.4199 29.8052C23.5466 29.7798 23.7494 29.7038 23.9015 29.5517C24.0535 29.3997 24.0789 29.1969 24.0789 29.0702C24.0282 28.9435 24.0028 28.8674 23.9775 28.8674Z" fill="#263238"/>
<path d="M23.5467 25.4193C23.5974 25.4953 23.8762 25.4193 24.2057 25.394C24.5605 25.3686 24.8393 25.4193 24.8646 25.3433C24.89 25.3179 24.8139 25.2419 24.6872 25.1912C24.5605 25.1405 24.3831 25.0898 24.1803 25.0898C23.9776 25.0898 23.8002 25.1659 23.6735 25.2419C23.5721 25.3179 23.5214 25.3686 23.5467 25.4193Z" fill="#263238"/>
<path d="M20.9617 26.0793C21.0124 26.13 21.2151 26.0286 21.4432 26.0033C21.6713 25.9526 21.8994 25.9779 21.9247 25.9019C21.9501 25.8766 21.8994 25.8005 21.798 25.7498C21.6967 25.6992 21.5446 25.6738 21.3925 25.6992C21.2405 25.7245 21.0884 25.8005 21.0377 25.9019C20.9363 25.9779 20.911 26.054 20.9617 26.0793Z" fill="#263238"/>
<path d="M20.252 25.1924C20.252 25.1924 21.3925 25.5726 22.7104 24.6856C23.572 24.1027 24.6365 23.7478 24.8899 23.8999C25.1434 24.052 25.3208 24.9897 26.2838 25.1671C26.2838 25.1671 26.4612 26.9918 27.1709 26.8398C27.6777 26.7384 27.3736 24.7109 27.1709 23.5704C27.0948 23.1142 26.6893 22.7848 26.2331 22.7594L24.8899 22.7087L23.2172 23.1649L21.4178 23.6465L20.0493 24.204L20.252 25.1924Z" fill="#263238"/>
<path d="M26.9935 26.1099C27.0189 26.0845 28.134 25.5016 28.3368 26.7181C28.5395 27.9346 27.2977 27.8839 27.2723 27.8586C27.2723 27.8079 26.9935 26.1099 26.9935 26.1099Z" fill="#B78876"/>
<path d="M27.5765 27.3245C27.5765 27.3245 27.6019 27.3245 27.6272 27.3499C27.6526 27.3499 27.7286 27.3499 27.7793 27.3245C27.906 27.2485 27.982 27.0458 27.9313 26.8177C27.906 26.7163 27.8806 26.6149 27.83 26.5135C27.7793 26.4375 27.7032 26.3868 27.6525 26.3868C27.5765 26.3868 27.5512 26.4375 27.5258 26.4629C27.5258 26.4882 27.5258 26.5135 27.5258 26.5135C27.5258 26.5135 27.5005 26.4882 27.5005 26.4375C27.5005 26.4122 27.5005 26.3868 27.5258 26.3615C27.5512 26.3361 27.6019 26.3108 27.6272 26.3108C27.7286 26.3108 27.83 26.3615 27.8806 26.4629C27.9567 26.5389 27.982 26.6656 28.0074 26.7923C28.0327 27.0458 27.9567 27.2739 27.7793 27.3752C27.7032 27.4006 27.6272 27.4006 27.5765 27.3752C27.5765 27.3499 27.5765 27.3245 27.5765 27.3245Z" fill="#AA6550"/>
<path d="M20.835 22.1267C20.835 22.1267 20.8856 22.2027 20.9617 22.2787C21.0377 22.3801 21.1898 22.5068 21.4179 22.5829C21.646 22.6589 21.9247 22.6842 22.2289 22.6082C22.533 22.5575 22.8625 22.4308 23.1919 22.3041C23.5468 22.1774 23.9016 22.1013 24.231 22.1267C24.5605 22.152 24.8393 22.3041 25.0167 22.4815C25.1941 22.6589 25.2448 22.8617 25.2701 23.0137C25.2701 23.1658 25.2448 23.2165 25.2448 23.2165C25.2448 23.2165 25.2448 23.1404 25.2194 23.0137C25.1941 22.887 25.1181 22.7096 24.966 22.5322C24.8139 22.3801 24.5352 22.2534 24.231 22.2281C23.9269 22.2027 23.5974 22.3041 23.2426 22.4055C22.8878 22.5322 22.5583 22.6589 22.2542 22.7096C21.9247 22.7603 21.6206 22.7349 21.3925 22.6336C21.1644 22.5322 21.0124 22.4055 20.9363 22.2787C20.835 22.2027 20.835 22.1267 20.835 22.1267Z" fill="#455A64"/>
<path d="M24.9153 23.2938C24.9153 23.2938 24.8646 23.2177 24.7379 23.1417C24.6112 23.0657 24.4085 22.9643 24.1297 22.9643C23.8509 22.939 23.5468 23.0403 23.2173 23.1924C22.8878 23.3445 22.533 23.5726 22.1275 23.6993C21.2658 23.9781 20.4548 23.75 19.9733 23.4712C19.7198 23.3191 19.5424 23.1671 19.4411 23.0657C19.3397 22.939 19.289 22.8883 19.289 22.8629C19.3143 22.8376 19.5171 23.1164 20.024 23.3952C20.5055 23.6486 21.2912 23.8513 22.1022 23.5979C22.5077 23.4712 22.8371 23.2431 23.1919 23.091C23.5214 22.939 23.8762 22.8629 24.1804 22.8883C24.4591 22.9136 24.6872 23.015 24.814 23.1164C24.89 23.1924 24.9153 23.2684 24.9153 23.2938Z" fill="#455A64"/>
<path d="M21.1644 43.8723L15.2847 38.8542L13.3332 39.2851C13.3332 39.2851 15.386 43.5429 16.856 45.0888C16.856 45.0888 18.3259 47.0403 20.7336 46.204C23.1412 45.3676 21.1644 43.8723 21.1644 43.8723Z" fill="#B78876"/>
<path d="M14.8285 33.3291H12.3194C11.9393 33.3291 11.6098 33.7599 11.7365 34.1148L14.2456 39.0061C14.3469 39.1835 14.5497 39.3102 14.7524 39.3102H17.7937C18.1485 39.2596 18.2752 38.8794 18.1232 38.6766L15.6902 33.8867C15.5634 33.5572 15.2086 33.3291 14.8285 33.3291Z" fill="#455A64"/>
<path d="M14.6764 33.6318H12.1674C11.8632 33.6318 11.6605 33.9613 11.7872 34.2401L14.2456 39.0301C14.3469 39.2075 14.5497 39.3342 14.7524 39.3342H17.7683C17.9458 39.3342 18.0725 39.1314 17.9964 38.9794L15.5634 34.1894C15.386 33.8599 15.0566 33.6318 14.6764 33.6318Z" fill="#263238"/>
<path d="M14.4483 35.6345L12.9277 36.2428L12.5982 37.4593L13.3332 39.284L16.0196 39.6895L15.234 38.8785L15.3353 38.1689C15.3353 38.1689 16.0957 37.9408 16.0957 37.8141C16.121 37.6874 15.9943 37.3072 15.8929 37.3072C15.7662 37.2819 14.9805 37.586 14.9805 37.586C14.9805 37.586 15.9182 36.851 15.8929 36.7243C15.8676 36.5976 15.7662 36.2935 15.5888 36.2681C15.4114 36.2428 13.8907 36.9524 13.8907 36.9524L13.6373 37.51L13.4346 36.6229C13.4599 36.6229 14.7778 36.2428 14.4483 35.6345Z" fill="#B78876"/>
<path d="M14.651 38.5234C14.651 38.5234 14.6257 38.4727 14.6003 38.3713C14.575 38.27 14.6003 38.1432 14.651 37.9912C14.7017 37.8391 14.8031 37.7377 14.8791 37.6617C14.9551 37.5857 15.0058 37.5603 15.0058 37.5857C15.0312 37.611 14.8284 37.7377 14.7271 38.0165C14.6003 38.27 14.6764 38.4981 14.651 38.5234Z" fill="#AA6550"/>
<path d="M13.9161 38.2473C13.9161 38.2473 13.9668 38.0952 13.9668 37.8417C13.9668 37.715 13.9922 37.563 14.0429 37.4109C14.0682 37.3349 14.1189 37.2335 14.1949 37.1828C14.271 37.1068 14.347 37.0561 14.4484 37.0307C14.8032 36.904 15.1326 36.8027 15.3861 36.7266C15.6142 36.6506 15.7662 36.5999 15.7916 36.6252C15.7916 36.6252 15.6395 36.7013 15.4114 36.7773C15.1833 36.8787 14.8539 36.9801 14.499 37.1068C14.423 37.1321 14.3216 37.1828 14.271 37.2335C14.2203 37.2842 14.1696 37.3602 14.1442 37.4363C14.0935 37.5883 14.0682 37.7404 14.0429 37.8671C14.0175 38.1205 13.9415 38.2473 13.9161 38.2473Z" fill="#AA6550"/>
<path d="M13.5612 37.9645C13.5359 37.9645 13.5359 37.8378 13.5612 37.6604C13.5866 37.5083 13.6373 37.3816 13.6373 37.3816C13.6626 37.3816 13.6626 37.5083 13.6373 37.6857C13.6373 37.8378 13.5866 37.9645 13.5612 37.9645Z" fill="#AA6550"/>
<path d="M13.5359 34.5455C13.5359 34.7229 13.688 34.875 13.8654 34.875C14.0428 34.875 14.1948 34.7229 14.1948 34.5455C14.1948 34.3681 14.0428 34.2161 13.8654 34.2161C13.6626 34.2414 13.5359 34.3935 13.5359 34.5455Z" fill="#FAFAFA"/>
<path d="M4.76694 82.8741C5.57795 83.1022 6.21154 83.7105 6.61704 84.4455C6.9972 85.1804 7.14926 86.0168 7.17461 86.8531C7.22529 88.4498 6.56635 90.1732 5.7807 91.5924C4.28541 90.6293 3.67716 88.6525 3.44907 87.6134C3.06891 85.9661 3.34769 82.8235 4.76694 82.8741Z" fill="#FFAE12"/>
<path d="M7.70684 93.9504C7.35202 93.0887 7.60546 92.0496 8.18837 91.34C8.79662 90.6303 9.709 90.2248 10.6214 90.1741C11.0522 90.1488 11.5338 90.1995 11.8125 90.5036C12.0913 90.8077 12.1167 91.2639 11.9899 91.6441C11.8632 92.0242 11.5844 92.3284 11.2803 92.5818C10.2412 93.4688 9.0754 94.1278 7.70684 93.9504Z" fill="#FFAE12"/>
<path d="M6.69312 99.0172C6.69312 99.0172 6.69312 98.8905 6.69312 98.6877C6.69312 98.4597 6.71846 98.1555 6.71846 97.8007C6.76915 97.0404 6.79449 95.976 7.22534 94.8608C7.63084 93.7711 8.31512 92.9094 8.92337 92.4278C9.2275 92.1997 9.50628 92.0223 9.68369 91.9463C9.78506 91.8956 9.86109 91.8703 9.91178 91.8449C9.96247 91.8196 9.98781 91.8196 9.98781 91.8196C10.0132 91.8449 9.53162 91.997 8.97406 92.4785C8.39115 92.96 7.73221 93.7964 7.32671 94.8862C6.92121 95.976 6.87052 97.0404 6.79449 97.7754C6.76915 98.1555 6.7438 98.4597 6.71846 98.6624C6.71846 98.9158 6.71846 99.0172 6.69312 99.0172Z" fill="#263238"/>
<path d="M4.767 85.281C4.767 85.281 4.79235 85.3317 4.79235 85.4077C4.81769 85.5091 4.84303 85.6358 4.86838 85.8132C4.94441 86.168 5.04578 86.6749 5.14716 87.3085C5.37525 88.5757 5.65404 90.2991 5.93282 92.2506C6.2116 94.1767 6.41435 95.9254 6.54107 97.2179C6.6171 97.8515 6.66779 98.3584 6.69313 98.7132C6.71848 98.8906 6.71848 99.0174 6.71848 99.1187C6.71848 99.2201 6.71848 99.2708 6.71848 99.2708C6.71848 99.2708 6.69313 99.2201 6.69313 99.1187C6.66779 99.0174 6.66779 98.8906 6.64244 98.7132C6.59176 98.3331 6.54107 97.8262 6.46504 97.2179C6.31297 95.9508 6.08488 94.202 5.83144 92.2759C5.55266 90.3498 5.27388 88.601 5.07113 87.3339C4.96975 86.7256 4.89372 86.2187 4.81769 85.8386C4.79235 85.6612 4.767 85.5344 4.767 85.4331C4.767 85.3317 4.74166 85.281 4.767 85.281Z" fill="#263238"/>
<path d="M5.55264 95.2407C4.96973 93.3653 3.42376 91.8446 1.57366 91.2617C1.09213 91.1097 0.509219 91.059 0.179749 91.4391C-0.14972 91.8193 0.0276867 92.4022 0.281125 92.833C1.29488 94.6325 3.49979 95.6969 5.55264 95.3674" fill="#FFAE12"/>
<path d="M2.00454 92.7083C2.00454 92.7083 2.10592 92.7336 2.30867 92.7843C2.41004 92.8096 2.51142 92.8603 2.66348 92.911C2.7902 92.9617 2.94226 93.0124 3.09432 93.1137C3.24639 93.1898 3.42379 93.2912 3.6012 93.3925C3.77861 93.4939 3.95601 93.6206 4.15877 93.7727C4.53892 94.0515 4.91908 94.4063 5.27389 94.8371C5.62871 95.268 5.88214 95.7242 6.08489 96.155C6.18627 96.3831 6.2623 96.5858 6.33833 96.7886C6.41436 96.9914 6.46505 97.1688 6.4904 97.3462C6.54108 97.5236 6.56643 97.6756 6.59177 97.8277C6.61712 97.9798 6.61712 98.0811 6.64246 98.1825C6.6678 98.3853 6.6678 98.4866 6.64246 98.4866C6.61712 98.4866 6.59177 98.0558 6.41436 97.3462C6.36368 97.1688 6.31299 96.9914 6.23696 96.7886C6.16093 96.5858 6.0849 96.3831 5.98352 96.1804C5.78077 95.7495 5.50199 95.3187 5.17252 94.8878C4.8177 94.4823 4.46289 94.1275 4.08273 93.8234C3.90533 93.6713 3.72792 93.5446 3.55051 93.4432C3.37311 93.3165 3.1957 93.2405 3.04364 93.1644C2.41004 92.8603 1.9792 92.7336 2.00454 92.7083Z" fill="#263238"/>
</svg>
