<svg width="344" height="629" viewBox="0 0 344 629" fill="none" xmlns="http://www.w3.org/2000/svg">
<path d="M1 27C1 21.3995 1 18.5992 2.08993 16.4601C3.04867 14.5785 4.57847 13.0487 6.46009 12.0899C8.59921 11 11.3995 11 17 11H327C332.601 11 335.401 11 337.54 12.0899C339.422 13.0487 340.951 14.5785 341.91 16.4601C343 18.5992 343 21.3995 343 27V599C343 604.601 343 607.401 341.91 609.54C340.951 611.422 339.422 612.951 337.54 613.91C335.401 615 332.601 615 327 615H17C11.3995 615 8.59921 615 6.46009 613.91C4.57847 612.951 3.04867 611.422 2.08993 609.54C1 607.401 1 604.601 1 599V27Z" fill="#FFAE12"/>
<path d="M0 196.5C5.30433 196.5 10.3914 198.66 14.1421 202.504C17.8929 206.349 20 211.563 20 217C20 222.437 17.8929 227.651 14.1421 231.496C10.3914 235.34 5.30433 237.5 3.8147e-06 237.5L0 217V196.5Z" fill="#0C172B"/>
<path d="M0 196.5C5.30433 196.5 10.3914 198.66 14.1421 202.504C17.8929 206.349 20 211.563 20 217C20 222.437 17.8929 227.651 14.1421 231.496C10.3914 235.34 5.30433 237.5 3.8147e-06 237.5L0 217V196.5Z" fill="#0C172B"/>
<path d="M343.5 238C338.196 238 333.109 235.84 329.358 231.996C325.607 228.151 323.5 222.937 323.5 217.5C323.5 212.063 325.607 206.849 329.358 203.004C333.109 199.16 338.196 197 343.5 197L343.5 217.5V238Z" fill="#0C172B"/>
<path d="M343.5 238C338.196 238 333.109 235.84 329.358 231.996C325.607 228.151 323.5 222.937 323.5 217.5C323.5 212.063 325.607 206.849 329.358 203.004C333.109 199.16 338.196 197 343.5 197L343.5 217.5V238Z" fill="#0C172B"/>
<line x1="23.5" y1="216.5" x2="320.5" y2="216.5" stroke="white" stroke-opacity="0.65" stroke-dasharray="6 6"/>
<path d="M17 619C17 616.348 18.0799 613.804 20.0022 611.929C21.9244 610.054 24.5315 609 27.25 609C29.9685 609 32.5756 610.054 34.4978 611.929C36.4201 613.804 37.5 616.348 37.5 619L27.25 619H17Z" fill="black"/>
<path d="M17 619C17 616.348 18.0799 613.804 20.0022 611.929C21.9244 610.054 24.5315 609 27.25 609C29.9685 609 32.5756 610.054 34.4978 611.929C36.4201 613.804 37.5 616.348 37.5 619L27.25 619H17Z" fill="#0C172B"/>
<path d="M43.5 619C43.5 616.348 44.5799 613.804 46.5022 611.929C48.4244 610.054 51.0315 609 53.75 609C56.4685 609 59.0756 610.054 60.9978 611.929C62.9201 613.804 64 616.348 64 619L53.75 619H43.5Z" fill="black"/>
<path d="M43.5 619C43.5 616.348 44.5799 613.804 46.5022 611.929C48.4244 610.054 51.0315 609 53.75 609C56.4685 609 59.0756 610.054 60.9978 611.929C62.9201 613.804 64 616.348 64 619L53.75 619H43.5Z" fill="#0C172B"/>
<path d="M70 619C70 616.348 71.0799 613.804 73.0022 611.929C74.9244 610.054 77.5315 609 80.25 609C82.9685 609 85.5756 610.054 87.4978 611.929C89.4201 613.804 90.5 616.348 90.5 619L80.25 619H70Z" fill="black"/>
<path d="M70 619C70 616.348 71.0799 613.804 73.0022 611.929C74.9244 610.054 77.5315 609 80.25 609C82.9685 609 85.5756 610.054 87.4978 611.929C89.4201 613.804 90.5 616.348 90.5 619L80.25 619H70Z" fill="#0C172B"/>
<path d="M96.5 619C96.5 616.348 97.5799 613.804 99.5022 611.929C101.424 610.054 104.032 609 106.75 609C109.468 609 112.076 610.054 113.998 611.929C115.92 613.804 117 616.348 117 619L106.75 619H96.5Z" fill="black"/>
<path d="M96.5 619C96.5 616.348 97.5799 613.804 99.5022 611.929C101.424 610.054 104.032 609 106.75 609C109.468 609 112.076 610.054 113.998 611.929C115.92 613.804 117 616.348 117 619L106.75 619H96.5Z" fill="#0C172B"/>
<path d="M123 619C123 616.348 124.08 613.804 126.002 611.929C127.924 610.054 130.532 609 133.25 609C135.968 609 138.576 610.054 140.498 611.929C142.42 613.804 143.5 616.348 143.5 619L133.25 619H123Z" fill="black"/>
<path d="M123 619C123 616.348 124.08 613.804 126.002 611.929C127.924 610.054 130.532 609 133.25 609C135.968 609 138.576 610.054 140.498 611.929C142.42 613.804 143.5 616.348 143.5 619L133.25 619H123Z" fill="#0C172B"/>
<path d="M149.5 619C149.5 616.348 150.58 613.804 152.502 611.929C154.424 610.054 157.032 609 159.75 609C162.468 609 165.076 610.054 166.998 611.929C168.92 613.804 170 616.348 170 619L159.75 619H149.5Z" fill="black"/>
<path d="M149.5 619C149.5 616.348 150.58 613.804 152.502 611.929C154.424 610.054 157.032 609 159.75 609C162.468 609 165.076 610.054 166.998 611.929C168.92 613.804 170 616.348 170 619L159.75 619H149.5Z" fill="#0C172B"/>
<path d="M176 619C176 616.348 177.08 613.804 179.002 611.929C180.924 610.054 183.532 609 186.25 609C188.968 609 191.576 610.054 193.498 611.929C195.42 613.804 196.5 616.348 196.5 619L186.25 619H176Z" fill="black"/>
<path d="M176 619C176 616.348 177.08 613.804 179.002 611.929C180.924 610.054 183.532 609 186.25 609C188.968 609 191.576 610.054 193.498 611.929C195.42 613.804 196.5 616.348 196.5 619L186.25 619H176Z" fill="#0C172B"/>
<path d="M202.5 619C202.5 616.348 203.58 613.804 205.502 611.929C207.424 610.054 210.032 609 212.75 609C215.468 609 218.076 610.054 219.998 611.929C221.92 613.804 223 616.348 223 619L212.75 619H202.5Z" fill="black"/>
<path d="M202.5 619C202.5 616.348 203.58 613.804 205.502 611.929C207.424 610.054 210.032 609 212.75 609C215.468 609 218.076 610.054 219.998 611.929C221.92 613.804 223 616.348 223 619L212.75 619H202.5Z" fill="#0C172B"/>
<path d="M229 619C229 616.348 230.08 613.804 232.002 611.929C233.924 610.054 236.532 609 239.25 609C241.968 609 244.576 610.054 246.498 611.929C248.42 613.804 249.5 616.348 249.5 619L239.25 619H229Z" fill="black"/>
<path d="M229 619C229 616.348 230.08 613.804 232.002 611.929C233.924 610.054 236.532 609 239.25 609C241.968 609 244.576 610.054 246.498 611.929C248.42 613.804 249.5 616.348 249.5 619L239.25 619H229Z" fill="#0C172B"/>
<path d="M255.5 619C255.5 616.348 256.58 613.804 258.502 611.929C260.424 610.054 263.032 609 265.75 609C268.468 609 271.076 610.054 272.998 611.929C274.92 613.804 276 616.348 276 619L265.75 619H255.5Z" fill="black"/>
<path d="M255.5 619C255.5 616.348 256.58 613.804 258.502 611.929C260.424 610.054 263.032 609 265.75 609C268.468 609 271.076 610.054 272.998 611.929C274.92 613.804 276 616.348 276 619L265.75 619H255.5Z" fill="#0C172B"/>
<path d="M282 619C282 616.348 283.08 613.804 285.002 611.929C286.924 610.054 289.532 609 292.25 609C294.968 609 297.576 610.054 299.498 611.929C301.42 613.804 302.5 616.348 302.5 619L292.25 619H282Z" fill="black"/>
<path d="M282 619C282 616.348 283.08 613.804 285.002 611.929C286.924 610.054 289.532 609 292.25 609C294.968 609 297.576 610.054 299.498 611.929C301.42 613.804 302.5 616.348 302.5 619L292.25 619H282Z" fill="#0C172B"/>
<path d="M308.5 619C308.5 616.348 309.58 613.804 311.502 611.929C313.424 610.054 316.032 609 318.75 609C321.468 609 324.076 610.054 325.998 611.929C327.92 613.804 329 616.348 329 619L318.75 619H308.5Z" fill="black"/>
<path d="M308.5 619C308.5 616.348 309.58 613.804 311.502 611.929C313.424 610.054 316.032 609 318.75 609C321.468 609 324.076 610.054 325.998 611.929C327.92 613.804 329 616.348 329 619L318.75 619H308.5Z" fill="#0C172B"/>
</svg>
