<svg fill="none" height="18" viewBox="0 0 18 18" width="18" xmlns="http://www.w3.org/2000/svg">
    <path
        d="M12.75 13.8223H9.75L6.41249 16.0423C5.91749 16.3723 5.25 16.0198 5.25 15.4198V13.8223C3 13.8223 1.5 12.3223 1.5 10.0723V5.57227C1.5 3.32227 3 1.82227 5.25 1.82227H12.75C15 1.82227 16.5 3.32227 16.5 5.57227V10.0723C16.5 12.3223 15 13.8223 12.75 13.8223Z"
        stroke="#FFAE12" stroke-linecap="round" stroke-linejoin="round" stroke-miterlimit="10"
        stroke-width="1.5" />
    <path
        d="M9.00011 8.52002V8.36255C9.00011 7.85255 9.31513 7.58254 9.63013 7.36504C9.93763 7.15504 10.2451 6.88505 10.2451 6.39005C10.2451 5.70005 9.69011 5.14502 9.00011 5.14502C8.31011 5.14502 7.75513 5.70005 7.75513 6.39005"
        stroke="#FFAE12" stroke-linecap="round" stroke-linejoin="round" stroke-width="1.5" />
    <path d="M8.99662 10.3125H9.00337" stroke="#FFAE12" stroke-linecap="round"
        stroke-linejoin="round" stroke-width="1.5" />
</svg>
