<svg width="22" height="22" viewBox="0 0 22 22" fill="none" xmlns="http://www.w3.org/2000/svg">
<path d="M11 5.90337V8.95587M11.0183 1.83337C7.645 1.83337 4.91333 4.56504 4.91333 7.93837V9.86337C4.91333 10.4867 4.65666 11.4217 4.33583 11.9534L3.17166 13.8967C2.45666 15.0975 2.95166 16.4359 4.27166 16.8759C8.65451 18.3334 13.3913 18.3334 17.7742 16.8759C18.0634 16.7794 18.3272 16.6192 18.5462 16.4071C18.7651 16.1949 18.9336 15.9363 19.0392 15.6503C19.1448 15.3643 19.1848 15.0583 19.1563 14.7547C19.1277 14.4512 19.0313 14.158 18.8742 13.8967L17.71 11.9534C17.3892 11.4217 17.1325 10.4775 17.1325 9.86337V7.93837C17.1233 4.58337 14.3733 1.83337 11.0183 1.83337Z" stroke="white" stroke-width="1.5" stroke-miterlimit="10" stroke-linecap="round"/>
<path d="M14.0525 17.2517C14.0525 18.9292 12.6775 20.3042 11 20.3042C10.1658 20.3042 9.39584 19.9559 8.84584 19.4059C8.29584 18.8559 7.9475 18.0859 7.9475 17.2517" stroke="white" stroke-width="1.5" stroke-miterlimit="10"/>
<circle cx="17.5" cy="3.5" r="3.5" fill="#DC362E"/>
</svg>
