<svg width="34" height="28" viewBox="0 0 34 28" fill="none" xmlns="http://www.w3.org/2000/svg">
<path d="M25.51 2.82812H18.49C16 2.82812 15.45 4.06813 15.13 5.58813L14 10.9981H30L28.87 5.58813C28.55 4.06813 28 2.82812 25.51 2.82812Z" stroke="#BABECC" stroke-width="1.5" stroke-linecap="round" stroke-linejoin="round"/>
<path d="M12.57 13.73C12.71 12.23 13 11 15.62 11H28.38C31 11 31.29 12.23 31.43 13.73L31.99 19.82C32.1 20.99 31.16 22 29.96 22H28.08C27 22 26.85 21.54 26.66 20.97L26.46 20.37C26.18 19.55 26 19 24.56 19H19.44C18 19 17.79 19.62 17.54 20.37L17.34 20.97C17.15 21.54 17 22 15.92 22H14.04C12.84 22 11.9 20.99 12.01 19.82L12.2 17.76" stroke="#BABECC" stroke-width="1.5" stroke-linecap="round" stroke-linejoin="round"/>
<path d="M14 8H13" stroke="#BABECC" stroke-width="1.5" stroke-linecap="round" stroke-linejoin="round"/>
<path d="M31 8H30" stroke="#BABECC" stroke-width="1.5" stroke-linecap="round" stroke-linejoin="round"/>
<path d="M22 3V5" stroke="#BABECC" stroke-width="1.5" stroke-linecap="round" stroke-linejoin="round"/>
<path d="M20.5 5H23.5" stroke="#BABECC" stroke-width="1.5" stroke-linecap="round" stroke-linejoin="round"/>
<path d="M16 15H19" stroke="#BABECC" stroke-width="1.5" stroke-linecap="round" stroke-linejoin="round"/>
<path d="M25 15H28" stroke="#BABECC" stroke-width="1.5" stroke-linecap="round" stroke-linejoin="round"/>
<path d="M10.52 13.3359H5.48C2.96 13.3359 2.33333 14.0093 2.33333 16.6959V24.2026C2.33333 25.9759 3.30666 26.3959 4.48666 25.1293L4.49333 25.1226C5.03999 24.5426 5.87333 24.5893 6.34666 25.2226L7.01999 26.1226C7.55999 26.8359 8.43333 26.8359 8.97333 26.1226L9.64666 25.2226C10.1267 24.5826 10.96 24.5359 11.5067 25.1226C12.6933 26.3893 13.66 25.9693 13.66 24.1959V16.6959C13.6667 14.0093 13.04 13.3359 10.52 13.3359ZM10 19.8359H6C5.72666 19.8359 5.5 19.6093 5.5 19.3359C5.5 19.0626 5.72666 18.8359 6 18.8359H10C10.2733 18.8359 10.5 19.0626 10.5 19.3359C10.5 19.6093 10.2733 19.8359 10 19.8359ZM10.6667 17.1693H5.33333C5.05999 17.1693 4.83333 16.9426 4.83333 16.6693C4.83333 16.3959 5.05999 16.1693 5.33333 16.1693H10.6667C10.94 16.1693 11.1667 16.3959 11.1667 16.6693C11.1667 16.9426 10.94 17.1693 10.6667 17.1693Z" fill="#FFAE12"/>
</svg>
