<svg width="18" height="18" viewBox="0 0 18 18" fill="none" xmlns="http://www.w3.org/2000/svg">
<path d="M11.6325 2.125H6.3675C4.5 2.125 4.0875 3.055 3.8475 4.195L3 8.2525H15L14.1525 4.195C13.9125 3.055 13.5 2.125 11.6325 2.125Z" stroke="#FFAE12" stroke-width="1.5" stroke-linecap="round" stroke-linejoin="round"/>
<path d="M1.9275 10.2975C2.0325 9.1725 2.25 8.25 4.215 8.25H13.785C15.75 8.25 15.9675 9.1725 16.0725 10.2975L16.4925 14.865C16.575 15.7425 15.87 16.5 14.97 16.5H13.56C12.75 16.5 12.6375 16.155 12.495 15.7275L12.345 15.2775C12.135 14.6625 12 14.25 10.92 14.25H7.08C6 14.25 5.8425 14.715 5.655 15.2775L5.505 15.7275C5.3625 16.155 5.25 16.5 4.44 16.5H3.03C2.13 16.5 1.425 15.7425 1.5075 14.865L1.65 13.32" stroke="#FFAE12" stroke-width="1.5" stroke-linecap="round" stroke-linejoin="round"/>
<path d="M3 6H2.25" stroke="#FFAE12" stroke-width="1.5" stroke-linecap="round" stroke-linejoin="round"/>
<path d="M15.75 6H15" stroke="#FFAE12" stroke-width="1.5" stroke-linecap="round" stroke-linejoin="round"/>
<path d="M9 2.25V3.75" stroke="#FFAE12" stroke-width="1.5" stroke-linecap="round" stroke-linejoin="round"/>
<path d="M7.875 3.75H10.125" stroke="#FFAE12" stroke-width="1.5" stroke-linecap="round" stroke-linejoin="round"/>
<path d="M4.5 11.25H6.75" stroke="#FFAE12" stroke-width="1.5" stroke-linecap="round" stroke-linejoin="round"/>
<path d="M11.25 11.25H13.5" stroke="#FFAE12" stroke-width="1.5" stroke-linecap="round" stroke-linejoin="round"/>
</svg>
