<svg width="22" height="22" viewBox="0 0 22 22" fill="none" xmlns="http://www.w3.org/2000/svg">
<path d="M20.1667 6.92135C20.1667 7.52635 19.6717 8.02135 19.0667 8.02135H2.93333C2.32833 8.02135 1.83333 7.52635 1.83333 6.92135V6.91219C1.83333 4.81302 3.52916 3.11719 5.62833 3.11719H16.3625C18.4617 3.11719 20.1667 4.82219 20.1667 6.92135Z" fill="#BABECC"/>
<path d="M1.83333 10.4965V15.089C1.83333 17.1881 3.52916 18.884 5.62833 18.884H16.3625C18.4617 18.884 20.1667 17.179 20.1667 15.0798V10.4965C20.1667 9.89148 19.6717 9.39648 19.0667 9.39648H2.93333C2.32833 9.39648 1.83333 9.89148 1.83333 10.4965ZM7.33333 15.8132H5.49999C5.12416 15.8132 4.81249 15.5015 4.81249 15.1257C4.81249 14.7498 5.12416 14.4382 5.49999 14.4382H7.33333C7.70916 14.4382 8.02083 14.7498 8.02083 15.1257C8.02083 15.5015 7.70916 15.8132 7.33333 15.8132ZM13.2917 15.8132H9.62499C9.24916 15.8132 8.93749 15.5015 8.93749 15.1257C8.93749 14.7498 9.24916 14.4382 9.62499 14.4382H13.2917C13.6675 14.4382 13.9792 14.7498 13.9792 15.1257C13.9792 15.5015 13.6675 15.8132 13.2917 15.8132Z" fill="#BABECC"/>
</svg>
