<svg width="18" height="18" viewBox="0 0 18 18" fill="none" xmlns="http://www.w3.org/2000/svg">
<path d="M15.75 16.5H2.25C1.9425 16.5 1.6875 16.245 1.6875 15.9375C1.6875 15.63 1.9425 15.375 2.25 15.375H15.75C16.0575 15.375 16.3125 15.63 16.3125 15.9375C16.3125 16.245 16.0575 16.5 15.75 16.5Z" fill="#FFAE12"/>
<path d="M14.265 2.61317C12.81 1.15817 11.385 1.12067 9.89249 2.61317L8.98499 3.52067C8.90999 3.59567 8.87999 3.71567 8.90999 3.82067C9.47999 5.80817 11.07 7.39817 13.0575 7.96817C13.0875 7.97567 13.1175 7.98317 13.1475 7.98317C13.23 7.98317 13.305 7.95317 13.365 7.89317L14.265 6.98567C15.0075 6.25067 15.3675 5.53817 15.3675 4.81817C15.375 4.07567 15.015 3.35567 14.265 2.61317Z" fill="#FFAE12"/>
<path d="M11.7075 8.64906C11.49 8.54406 11.28 8.43906 11.0775 8.31906C10.9125 8.22156 10.755 8.11656 10.5975 8.00406C10.47 7.92156 10.32 7.80156 10.1775 7.68156C10.1625 7.67406 10.11 7.62906 10.05 7.56906C9.8025 7.35906 9.525 7.08906 9.2775 6.78906C9.255 6.77406 9.2175 6.72156 9.165 6.65406C9.09 6.56406 8.9625 6.41406 8.85 6.24156C8.76 6.12906 8.655 5.96406 8.5575 5.79906C8.4375 5.59656 8.3325 5.39406 8.2275 5.18406V5.18406C8.08983 4.88906 7.70264 4.80142 7.47244 5.03162L3.255 9.24906C3.1575 9.34656 3.06749 9.53406 3.04499 9.66156L2.63999 12.5341C2.56499 13.0441 2.7075 13.5241 3.0225 13.8466C3.2925 14.1091 3.66749 14.2516 4.07249 14.2516C4.16249 14.2516 4.2525 14.2441 4.3425 14.2291L7.2225 13.8241C7.3575 13.8016 7.545 13.7116 7.635 13.6141L11.8594 9.38966C12.085 9.16406 12.0002 8.77591 11.7075 8.64906V8.64906Z" fill="#FFAE12"/>
</svg>
