<svg width="20" height="20" viewBox="0 0 20 20" fill="none" xmlns="http://www.w3.org/2000/svg">
<path d="M15.0334 11.2923C14.6834 11.634 14.4834 12.1256 14.5334 12.6506C14.6084 13.5506 15.4334 14.209 16.3334 14.209H17.9167V15.2006C17.9167 16.9256 16.5084 18.334 14.7834 18.334H6.35837C6.6167 18.1173 6.84171 17.8506 7.01671 17.5506C7.32504 17.0506 7.50004 16.459 7.50004 15.834C7.50004 13.9923 6.00837 12.5007 4.16671 12.5007C3.38337 12.5007 2.65837 12.7757 2.08337 13.234V9.59233C2.08337 7.86733 3.49171 6.45898 5.21671 6.45898H14.7834C16.5084 6.45898 17.9167 7.86733 17.9167 9.59233V10.7923H16.2334C15.7667 10.7923 15.3417 10.9756 15.0334 11.2923Z" stroke="black" stroke-width="1.5" stroke-linecap="round" stroke-linejoin="round"/>
<path d="M2.08337 10.3421V6.53379C2.08337 5.54212 2.6917 4.65875 3.6167 4.30875L10.2334 1.80875C11.2667 1.41708 12.375 2.18377 12.375 3.29211V6.45876" stroke="black" stroke-width="1.5" stroke-linecap="round" stroke-linejoin="round"/>
<path d="M18.799 11.641V13.3577C18.799 13.816 18.4324 14.191 17.9657 14.2077H16.3324C15.4324 14.2077 14.6074 13.5493 14.5324 12.6493C14.4824 12.1243 14.6824 11.6327 15.0324 11.291C15.3407 10.9743 15.7657 10.791 16.2324 10.791H17.9657C18.4324 10.8077 18.799 11.1826 18.799 11.641Z" stroke="black" stroke-width="1.5" stroke-linecap="round" stroke-linejoin="round"/>
<path d="M7.50004 15.8333C7.50004 16.4583 7.32504 17.05 7.01671 17.55C6.84171 17.85 6.6167 18.1167 6.35837 18.3333C5.77504 18.8583 5.00837 19.1667 4.16671 19.1667C2.95004 19.1667 1.89171 18.5167 1.31671 17.55C1.00838 17.05 0.833374 16.4583 0.833374 15.8333C0.833374 14.7833 1.31671 13.8417 2.08337 13.2333C2.65837 12.775 3.38337 12.5 4.16671 12.5C6.00837 12.5 7.50004 13.9917 7.50004 15.8333Z" stroke="black" stroke-width="1.5" stroke-miterlimit="10" stroke-linecap="round" stroke-linejoin="round"/>
<path d="M5.40984 15.8164H2.92651" stroke="black" stroke-width="1.5" stroke-miterlimit="10" stroke-linecap="round" stroke-linejoin="round"/>
<path d="M4.16675 14.5996V17.0913" stroke="black" stroke-width="1.5" stroke-miterlimit="10" stroke-linecap="round" stroke-linejoin="round"/>
</svg>
