<svg width="18" height="18" viewBox="0 0 18 18" fill="none" xmlns="http://www.w3.org/2000/svg">
<path d="M6.75 16.5H11.25C15 16.5 16.5 15 16.5 11.25V6.75C16.5 3 15 1.5 11.25 1.5H6.75C3 1.5 1.5 3 1.5 6.75V11.25C1.5 15 3 16.5 6.75 16.5Z" stroke="#FFAE12" stroke-width="1.5" stroke-linecap="round" stroke-linejoin="round"/>
<path d="M6.75 7.5C7.57843 7.5 8.25 6.82843 8.25 6C8.25 5.17157 7.57843 4.5 6.75 4.5C5.92157 4.5 5.25 5.17157 5.25 6C5.25 6.82843 5.92157 7.5 6.75 7.5Z" stroke="#FFAE12" stroke-width="1.5" stroke-linecap="round" stroke-linejoin="round"/>
<path d="M2.00244 14.2144L5.69994 11.7319C6.29244 11.3344 7.14744 11.3794 7.67994 11.8369L7.92744 12.0544C8.51244 12.5569 9.45744 12.5569 10.0424 12.0544L13.1624 9.37687C13.7474 8.87437 14.6924 8.87437 15.2774 9.37687L16.4999 10.4269" stroke="#FFAE12" stroke-width="1.5" stroke-linecap="round" stroke-linejoin="round"/>
</svg>
