<svg width="40" height="40" viewBox="0 0 40 40" fill="none" xmlns="http://www.w3.org/2000/svg">
<path d="M11.5333 9.18299L6.18335 3.81632C6.02795 3.66093 5.84347 3.53766 5.64043 3.45356C5.43739 3.36946 5.21978 3.32617 5.00002 3.32617C4.78025 3.32617 4.56264 3.36946 4.3596 3.45356C4.15656 3.53766 3.97208 3.66093 3.81668 3.81632C3.50284 4.13016 3.32653 4.55582 3.32653 4.99966C3.32653 5.44349 3.50284 5.86915 3.81668 6.18299L7.60002 9.99966C5.67829 11.0921 3.90772 12.4313 2.33335 13.983C2.02293 14.2953 1.84869 14.7177 1.84869 15.158C1.84869 15.5983 2.02293 16.0207 2.33335 16.333C2.48771 16.4905 2.67178 16.6158 2.87491 16.7016C3.07803 16.7874 3.29617 16.8321 3.51668 16.833C3.95392 16.8312 4.37291 16.6576 4.68335 16.3497C6.27158 14.7746 8.09294 13.4536 10.0834 12.433L12.5667 14.9997C10.5012 15.9025 8.62413 17.1859 7.03335 18.783C6.86003 18.9337 6.71971 19.1185 6.62122 19.326C6.52272 19.5335 6.46815 19.759 6.46096 19.9886C6.45376 20.2181 6.49408 20.4467 6.57938 20.6599C6.66469 20.8731 6.79314 21.0664 6.95668 21.2277C7.12022 21.3889 7.31532 21.5146 7.52973 21.5969C7.74415 21.6791 7.97325 21.7162 8.20267 21.7058C8.43209 21.6953 8.65687 21.6376 8.86292 21.5361C9.06896 21.4347 9.25182 21.2918 9.40002 21.1163C11.016 19.5076 12.9847 18.2978 15.15 17.583L17.85 20.2663C15.5395 20.7109 13.4149 21.837 11.75 23.4997C11.5767 23.6503 11.4364 23.8352 11.3379 24.0427C11.2394 24.2501 11.1848 24.4757 11.1776 24.7052C11.1704 24.9348 11.2107 25.1633 11.2961 25.3766C11.3814 25.5898 11.5098 25.7831 11.6733 25.9443C11.8369 26.1056 12.032 26.2313 12.2464 26.3135C12.4608 26.3958 12.6899 26.4329 12.9193 26.4224C13.1488 26.412 13.3735 26.3542 13.5796 26.2528C13.7856 26.1514 13.9685 26.0084 14.1167 25.833C14.8845 25.0496 15.7995 24.4254 16.8091 23.9964C17.8187 23.5674 18.9031 23.342 20 23.333C20.3516 23.3339 20.7027 23.3618 21.05 23.4163L33.8167 36.183C33.9716 36.3392 34.156 36.4632 34.3591 36.5478C34.5622 36.6324 34.78 36.676 35 36.676C35.22 36.676 35.4379 36.6324 35.641 36.5478C35.8441 36.4632 36.0284 36.3392 36.1834 36.183C36.3396 36.0281 36.4636 35.8437 36.5482 35.6406C36.6328 35.4375 36.6764 35.2197 36.6764 34.9997C36.6764 34.7796 36.6328 34.5618 36.5482 34.3587C36.4636 34.1556 36.3396 33.9713 36.1834 33.8163L11.5333 9.18299ZM20 26.6663C19.0111 26.6663 18.0444 26.9596 17.2222 27.509C16.3999 28.0584 15.7591 28.8393 15.3806 29.7529C15.0022 30.6665 14.9032 31.6719 15.0961 32.6418C15.289 33.6117 15.7652 34.5026 16.4645 35.2019C17.1637 35.9011 18.0547 36.3773 19.0246 36.5703C19.9945 36.7632 20.9998 36.6642 21.9134 36.2857C22.8271 35.9073 23.608 35.2664 24.1574 34.4442C24.7068 33.6219 25 32.6552 25 31.6663C25 30.3402 24.4732 29.0685 23.5356 28.1308C22.5979 27.1931 21.3261 26.6663 20 26.6663ZM20 33.333C19.6704 33.333 19.3482 33.2352 19.0741 33.0521C18.8 32.869 18.5864 32.6087 18.4602 32.3041C18.3341 31.9996 18.3011 31.6645 18.3654 31.3412C18.4297 31.0179 18.5884 30.7209 18.8215 30.4878C19.0546 30.2547 19.3516 30.096 19.6749 30.0317C19.9982 29.9674 20.3333 30.0004 20.6378 30.1265C20.9424 30.2527 21.2027 30.4663 21.3858 30.7404C21.5689 31.0145 21.6667 31.3367 21.6667 31.6663C21.6667 32.1084 21.4911 32.5323 21.1785 32.8448C20.866 33.1574 20.442 33.333 20 33.333ZM37.6834 13.983C35.02 11.322 31.7901 9.29694 28.2347 8.05889C24.6792 6.82083 20.8901 6.40177 17.15 6.83299C16.9311 6.85707 16.7192 6.92402 16.5262 7.03002C16.3332 7.13602 16.1629 7.27899 16.0252 7.45078C15.8875 7.62257 15.7849 7.81981 15.7234 8.03123C15.6619 8.24265 15.6426 8.46412 15.6667 8.68299C15.6908 8.90186 15.7577 9.11385 15.8637 9.30684C15.9697 9.49984 16.1127 9.67007 16.2845 9.80781C16.4563 9.94555 16.6535 10.0481 16.8649 10.1096C17.0763 10.1711 17.2978 10.1904 17.5167 10.1663C20.76 9.79617 24.045 10.1597 27.1289 11.2299C30.2128 12.3002 33.0167 14.0499 35.3334 16.3497C35.4888 16.504 35.673 16.6261 35.8756 16.7092C36.0783 16.7923 36.2953 16.8347 36.5142 16.8339C36.7332 16.8331 36.9499 16.7892 37.152 16.7047C37.354 16.6202 37.5374 16.4967 37.6917 16.3413C37.846 16.1859 37.9682 16.0017 38.0513 15.799C38.1344 15.5964 38.1767 15.3794 38.1759 15.1604C38.1752 14.9414 38.1313 14.7247 38.0468 14.5227C37.9622 14.3207 37.8388 14.1373 37.6834 13.983ZM30.6 21.0497C30.9169 21.3251 31.3261 21.4708 31.7457 21.4577C32.1654 21.4445 32.5646 21.2734 32.8636 20.9787C33.1626 20.6839 33.3393 20.2871 33.3584 19.8677C33.3775 19.4483 33.2376 19.0371 32.9667 18.7163C30.7404 16.4643 27.957 14.8426 24.9 14.0163C24.6822 13.9322 24.4492 13.8948 24.216 13.9065C23.9828 13.9182 23.7547 13.9787 23.5464 14.0842C23.3381 14.1897 23.1543 14.3378 23.0069 14.5189C22.8595 14.7 22.7518 14.91 22.6908 15.1354C22.6298 15.3607 22.6168 15.5964 22.6526 15.8271C22.6885 16.0578 22.7724 16.2784 22.899 16.4746C23.0256 16.6708 23.192 16.8382 23.3874 16.966C23.5828 17.0937 23.8029 17.179 24.0334 17.2163C26.5169 17.9047 28.7795 19.2255 30.6 21.0497Z" fill="#DC362E"/>
</svg>
