<svg fill="none" height="160" viewBox="0 0 1039 160" width="1039"
    xmlns="http://www.w3.org/2000/svg">
    <path
        d="M358.894 143.632C358.671 148.59 356.858 152.364 354.176 155.047C351.184 158.064 347.143 159.935 341.889 159.998C335.91 159.992 248.646 160 248.646 160C225.584 160 225.584 125.406 248.646 125.406H324.322H341.619C353.149 125.406 358.914 134.056 358.916 142.703L358.894 143.632ZM196.756 80V142.703C196.756 165.766 162.161 165.766 162.161 142.703V80C162.161 56.9374 196.756 56.9374 196.756 80ZM34.5944 125.406H92.9725L92.9734 17.2972C92.9734 -5.76465 127.567 -5.76465 127.567 17.2972V142.703C127.567 154.234 118.918 159.999 110.27 160H17.2972C11.9153 160 7.78945 158.115 4.91982 155.225C1.98976 152.389 0.0547829 148.284 0.00182114 142.922L0 17.2972C0 -5.76465 34.5944 -5.76465 34.5944 17.2972V125.406ZM248.646 62.7028H297.522C302.91 62.7338 306.959 64.5686 309.8 67.3782C312.797 70.2269 314.778 74.3846 314.819 79.8371C314.821 88.65 309.055 97.2972 297.522 97.2972H248.646C243.327 97.2972 239.234 95.4548 236.369 92.6206C233.372 89.7718 231.39 85.6153 231.35 80.1639C231.345 71.3484 237.11 62.7028 248.646 62.7028ZM341.619 0C346.934 0 351.032 1.84494 353.897 4.67578C356.672 7.41934 358.309 11.0706 358.783 14.8988L358.832 15.3832L358.869 15.8558L358.915 17.1014L358.913 17.4638L358.905 17.7998L358.884 18.2642C358.663 22.5575 357.311 25.8947 355.266 28.4271C354.96 28.8068 354.64 29.1647 354.304 29.5093L353.552 30.2396C350.748 32.8575 346.844 34.544 341.842 34.594L332.97 34.5953H324.322H274.591H265.943C265.943 34.5953 255.381 34.6058 248.638 34.6058C246.648 34.6058 245.674 34.4328 244.247 34.1232C241.015 33.4093 238.384 31.9108 236.367 29.9195C233.296 26.9048 231.389 22.808 231.349 17.4611C231.354 16.4485 231.42 15.4869 231.539 14.5746C232.037 11.056 233.51 7.69409 235.961 5.08554C239.165 1.80751 243.653 0.113998 248.186 0.00546265L248.646 0H257.295H265.943H315.673H324.322H341.619ZM162.162 17.4602C162.162 11.803 164.128 7.61714 167.121 4.74043C169.957 1.89505 174.017 0.0419312 179.286 0.000915527C184.847 0.0307465 188.895 1.86566 191.737 4.67487C194.733 7.52287 196.715 11.6809 196.756 17.1333C196.755 22.8252 194.765 27.0286 191.739 29.9068C188.873 32.7537 184.78 34.594 179.459 34.594C174.071 34.563 170.022 32.7279 167.18 29.9191C164.184 27.07 162.202 22.9126 162.162 17.4602ZM845.396 34.5953H787.018L787.017 142.703C787.017 165.766 752.423 165.766 752.423 142.703V17.2972C752.423 5.76871 761.073 0.0027771 769.72 0.000915527H862.693C868.1 0.0143433 872.203 1.89241 875.062 4.76501C878.001 7.60443 879.941 11.7156 879.989 17.0923L879.99 142.703C879.99 165.766 845.396 165.766 845.396 142.703V34.5953ZM607.561 160C607.086 160 606.612 159.982 606.139 159.948C605.011 159.869 604.062 159.727 603.162 159.528C599.929 158.815 597.3 157.316 595.282 155.325C592.204 152.294 590.303 148.203 590.264 142.866V80.163C590.264 74.721 592.081 70.6505 594.876 67.7879C597.876 64.6893 601.982 62.7591 607.336 62.7047H607.794L616.208 62.7028H624.857H674.588H683.236V34.5953H633.506H624.857H607.561L606.007 34.538C605.011 34.4645 604.062 34.3224 603.162 34.1236C599.929 33.4098 597.3 31.9109 595.282 29.92C591.977 26.6573 590.307 22.0613 590.264 17.4611C590.296 12.7953 591.831 8.34157 594.876 5.08554C597.876 1.98691 601.982 0.0566406 607.336 0.0018158L616.208 0.000915527H624.857H674.588H683.236H700.533C705.848 0.000915527 709.946 1.84569 712.811 4.67578C715.811 7.52602 717.791 11.6792 717.83 17.1342V79.8371V142.539C717.83 148.447 715.689 152.762 712.466 155.645C709.662 158.263 705.758 159.949 700.756 159.999H700.321L691.884 160H683.236H633.506H624.857H607.561ZM624.857 97.2972L624.857 125.406H674.588H683.236V97.2972H633.506H624.857ZM982.938 80L1033.1 130.161C1049.41 146.468 1024.94 170.93 1008.64 154.622L958.477 104.462L949.177 113.761V142.703C949.177 165.766 914.584 165.766 914.584 142.703V17.2972C914.584 -5.76465 949.177 -5.76465 949.177 17.2972V46.2397V64.8381L958.477 55.5385L1008.64 5.37874C1024.94 -10.9286 1049.41 13.5334 1033.1 29.8408L982.938 80ZM462.698 97.2972L462.697 125.404H512.428H521.077V97.2972H471.346H462.698ZM521.077 34.5953H471.346H462.698L462.697 62.7028H512.428H521.077V34.5953ZM555.67 17.1342V79.8371V142.538C555.67 148.445 553.529 152.76 550.306 155.643C547.502 158.261 543.599 159.947 538.597 159.997H538.162L529.724 159.998H521.077H471.346H462.698H445.401C444.927 159.998 444.453 159.981 443.98 159.946C442.852 159.868 441.903 159.725 441.003 159.527C437.769 158.813 435.139 157.314 433.123 155.323C430.124 152.474 428.144 148.317 428.104 142.865V80.163L428.103 17.2972C428.103 12.0186 429.92 7.94809 432.715 5.08554C435.716 1.98691 439.822 0.0566406 445.177 0.0018158H445.635L454.049 0.000915527H462.697H512.428H521.077H538.374C543.689 0.000915527 547.787 1.84569 550.652 4.67578C553.652 7.52602 555.63 11.6792 555.67 17.1342Z"
        fill="#454140" />
</svg>
