<svg width="35" height="26" viewBox="0 0 35 26" fill="none" xmlns="http://www.w3.org/2000/svg">
<path d="M13.5713 2.47656H7.42875C5.25 2.47656 4.76875 3.56156 4.48875 4.89156L3.5 9.62531H17.5L16.5113 4.89156C16.2313 3.56156 15.75 2.47656 13.5713 2.47656Z" stroke="#BABECC" stroke-width="1.5" stroke-linecap="round" stroke-linejoin="round"/>
<path d="M2.24876 12.0137C2.37126 10.7012 2.62501 9.625 4.91751 9.625H16.0825C18.375 9.625 18.6288 10.7012 18.7513 12.0137L19.2413 17.3425C19.3375 18.3662 18.515 19.25 17.465 19.25H15.82C14.875 19.25 14.7438 18.8475 14.5775 18.3487L14.4025 17.8238C14.1575 17.1063 14 16.625 12.74 16.625H8.26001C7.00001 16.625 6.81626 17.1675 6.59751 17.8238L6.42251 18.3487C6.25626 18.8475 6.12501 19.25 5.18001 19.25H3.53501C2.48501 19.25 1.66251 18.3662 1.75876 17.3425L1.92501 15.54" stroke="#BABECC" stroke-width="1.5" stroke-linecap="round" stroke-linejoin="round"/>
<path d="M3.5 7H2.625" stroke="#BABECC" stroke-width="1.5" stroke-linecap="round" stroke-linejoin="round"/>
<path d="M18.375 7H17.5" stroke="#BABECC" stroke-width="1.5" stroke-linecap="round" stroke-linejoin="round"/>
<path d="M10.5 2.625V4.375" stroke="#BABECC" stroke-width="1.5" stroke-linecap="round" stroke-linejoin="round"/>
<path d="M9.1875 4.375H11.8125" stroke="#BABECC" stroke-width="1.5" stroke-linecap="round" stroke-linejoin="round"/>
<path d="M5.25 13.125H7.875" stroke="#BABECC" stroke-width="1.5" stroke-linecap="round" stroke-linejoin="round"/>
<path d="M13.125 13.125H15.75" stroke="#BABECC" stroke-width="1.5" stroke-linecap="round" stroke-linejoin="round"/>
<path d="M18 26V12H23.7273C24.5949 11.9998 25.4438 12.253 26.1695 12.7284C26.8953 13.2039 27.4664 13.881 27.8127 14.6765C27.5636 14.9353 27.3481 15.2243 27.1713 15.5369C26.8785 16.0587 26.876 16.6022 26.9498 17.0056L27.3316 19.0738C26.9186 19.6428 26.3767 20.1058 25.7501 20.4248C25.1236 20.7438 24.4304 20.9098 23.7273 20.9091H20.5455V26H18ZM23.7273 18.3636C23.978 18.3636 24.2262 18.3143 24.4579 18.2183C24.6895 18.1224 24.8999 17.9818 25.0772 17.8045C25.2545 17.6272 25.3951 17.4167 25.491 17.1851C25.587 16.9535 25.6364 16.7053 25.6364 16.4545C25.6364 16.2038 25.587 15.9556 25.491 15.724C25.3951 15.4923 25.2545 15.2819 25.0772 15.1046C24.8999 14.9273 24.6895 14.7867 24.4579 14.6908C24.2262 14.5948 23.978 14.5455 23.7273 14.5455H20.5455V18.3636H23.7273ZM28.2022 16.7753C28.1555 16.567 28.1835 16.349 28.2811 16.1593C28.5827 15.6247 29.4265 14.5455 31.3636 14.5455C33.2995 14.5455 34.1445 15.6235 34.4449 16.1593C34.5434 16.3487 34.5722 16.5667 34.5264 16.7753L33.2969 23.4545H32V26H30.7273V23.4545H29.4304L28.2022 16.7753ZM32.9545 18.3636L33.2727 16.6518C33.0564 16.3387 32.5345 15.8182 31.3636 15.8182C30.1927 15.8182 29.6709 16.34 29.4545 16.6518L29.7727 18.3636H32.9545Z" fill="#FFAE12"/>
</svg>
