<svg width="13" height="18" viewBox="0 0 13 18" fill="none" xmlns="http://www.w3.org/2000/svg">
<g clip-path="url(#clip0_3233_25330)">
<path d="M6.47397 11.6406C6.05556 11.6418 5.65461 11.8085 5.35867 12.1043C5.06274 12.4001 4.89586 12.801 4.89447 13.2194V16.4481C4.89447 16.867 5.06088 17.2688 5.3571 17.565C5.65331 17.8612 6.05506 18.0276 6.47397 18.0276C6.89288 18.0276 7.29463 17.8612 7.59085 17.565C7.88706 17.2688 8.05347 16.867 8.05347 16.4481V16.4159V16.4174V13.2201C8.05228 12.8018 7.8857 12.401 7.59007 12.1051C7.29443 11.8092 6.89375 11.6422 6.47547 11.6406H6.47397Z" fill="#BABECC"/>
<path d="M12.1973 1.97325H9.1575C8.78925 0.8205 7.72725 0 6.47325 0C5.21925 0 4.158 0.8205 3.795 1.953L3.78975 1.97325H0.78975C0.580295 1.97325 0.379419 2.05646 0.231312 2.20456C0.0832056 2.35267 0 2.55355 0 2.763C0 2.97245 0.0832056 3.17333 0.231312 3.32144C0.379419 3.46954 0.580295 3.55275 0.78975 3.55275H3.8295C4.0305 4.227 4.467 4.779 5.04075 5.12475L5.05275 5.1315C2.8995 5.78175 1.356 7.7415 1.3425 10.0643V14.2103C1.34563 14.5547 1.48378 14.8841 1.72726 15.1277C1.97074 15.3713 2.30009 15.5097 2.6445 15.513H3.711V13.263C3.711 12.5197 4.00629 11.8068 4.53191 11.2812C5.05752 10.7555 5.77041 10.4603 6.51375 10.4603C7.25709 10.4603 7.96998 10.7555 8.49559 11.2812C9.02121 11.8068 9.3165 12.5197 9.3165 13.263V15.513H10.3823C10.727 15.5103 11.0568 15.3721 11.3007 15.1284C11.5445 14.8847 11.6828 14.555 11.6858 14.2103V10.1048C11.6853 8.99762 11.3274 7.92022 10.6654 7.03281C10.0034 6.14541 9.07261 5.49541 8.0115 5.1795L7.9755 5.1705C8.56198 4.82058 8.99663 4.26423 9.19425 3.6105L9.1995 3.591H12.2393C12.4485 3.59041 12.6491 3.50701 12.797 3.35903C12.945 3.21105 13.0284 3.01052 13.029 2.80125C13.0208 2.58418 12.931 2.37821 12.7775 2.22454C12.624 2.07087 12.4181 1.98085 12.201 1.9725H12.1995L12.1973 1.97325ZM6.47325 4.38C6.16085 4.38 5.85547 4.28736 5.59573 4.11381C5.33598 3.94025 5.13353 3.69356 5.01398 3.40495C4.89443 3.11633 4.86315 2.79875 4.9241 2.49235C4.98505 2.18596 5.13548 1.90452 5.35637 1.68363C5.57727 1.46273 5.85871 1.3123 6.1651 1.25135C6.4715 1.1904 6.78908 1.22168 7.0777 1.34123C7.36631 1.46078 7.613 1.66323 7.78656 1.92298C7.96011 2.18272 8.05275 2.4881 8.05275 2.8005L8.0535 2.8455C8.0535 3.693 7.3665 4.38 6.519 4.38L6.47175 4.37925H6.474L6.47325 4.38Z" fill="#BABECC"/>
</g>
<defs>
<clipPath id="clip0_3233_25330">
<rect width="12.75" height="18" fill="white"/>
</clipPath>
</defs>
</svg>
