<svg width="22" height="22" viewBox="0 0 22 22" fill="none" xmlns="http://www.w3.org/2000/svg">
<path d="M9.16669 17.4167C9.16669 18.425 9.99169 19.25 11 19.25C12.0084 19.25 12.8334 18.425 12.8334 17.4167C12.8334 16.4083 12.0084 15.5833 11 15.5833C9.99169 15.5833 9.16669 16.4083 9.16669 17.4167Z" stroke="#FFAE12"/>
<path d="M9.16669 4.58464C9.16669 5.59297 9.99169 6.41797 11 6.41797C12.0084 6.41797 12.8334 5.59297 12.8334 4.58464C12.8334 3.5763 12.0084 2.7513 11 2.7513C9.99169 2.7513 9.16669 3.5763 9.16669 4.58464Z" stroke="#FFAE12"/>
<path d="M9.16669 10.9987C9.16669 12.007 9.99169 12.832 11 12.832C12.0084 12.832 12.8334 12.007 12.8334 10.9987C12.8334 9.99037 12.0084 9.16537 11 9.16537C9.99169 9.16537 9.16669 9.99037 9.16669 10.9987Z" stroke="#FFAE12"/>
</svg>
