<svg width="28" height="28" viewBox="0 0 28 28" fill="none" xmlns="http://www.w3.org/2000/svg">
<g clip-path="url(#clip0_1866_13178)">
<path d="M19.632 15.5234C19.0741 15.525 18.5395 15.7473 18.1449 16.1417C17.7504 16.5361 17.5278 17.0706 17.526 17.6284V21.9334C17.526 22.492 17.7479 23.0277 18.1428 23.4226C18.5378 23.8176 19.0735 24.0394 19.632 24.0394C20.1905 24.0394 20.7262 23.8176 21.1212 23.4226C21.5161 23.0277 21.738 22.492 21.738 21.9334V21.8904V21.8924V17.6294C21.7364 17.0717 21.5143 16.5373 21.1201 16.1427C20.726 15.7482 20.1917 15.5255 19.634 15.5234H19.632Z" fill="#BABECC"/>
<path d="M27.263 2.631H23.21C22.719 1.094 21.303 0 19.631 0C17.959 0 16.544 1.094 16.06 2.604L16.053 2.631H12.053C11.7737 2.631 11.5059 2.74194 11.3084 2.93942C11.1109 3.13689 11 3.40473 11 3.684C11 3.96327 11.1109 4.23111 11.3084 4.42858C11.5059 4.62606 11.7737 4.737 12.053 4.737H16.106C16.374 5.636 16.956 6.372 17.721 6.833L17.737 6.842C14.866 7.709 12.808 10.322 12.79 13.419V18.947C12.7942 19.4062 12.9784 19.8455 13.303 20.1703C13.6276 20.4951 14.0668 20.6796 14.526 20.684H15.948V17.684C15.948 16.6929 16.3417 15.7424 17.0425 15.0415C17.7434 14.3407 18.6939 13.947 19.685 13.947C20.6761 13.947 21.6266 14.3407 22.3275 15.0415C23.0283 15.7424 23.422 16.6929 23.422 17.684V20.684H24.843C25.3026 20.6803 25.7424 20.4962 26.0676 20.1713C26.3927 19.8463 26.5771 19.4066 26.581 18.947V13.473C26.5804 11.9968 26.1032 10.5603 25.2205 9.37708C24.3378 8.19388 23.0968 7.32721 21.682 6.906L21.634 6.894C22.416 6.42743 22.9955 5.68563 23.259 4.814L23.266 4.788H27.319C27.598 4.78721 27.8654 4.67601 28.0627 4.47871C28.26 4.2814 28.3712 4.01403 28.372 3.735C28.3611 3.44558 28.2413 3.17094 28.0366 2.96605C27.8319 2.76116 27.5574 2.64114 27.268 2.63H27.266L27.263 2.631ZM19.631 5.84C19.2145 5.84 18.8073 5.71649 18.461 5.48507C18.1146 5.25366 17.8447 4.92475 17.6853 4.53993C17.5259 4.15511 17.4842 3.73166 17.5655 3.32314C17.6467 2.91462 17.8473 2.53936 18.1418 2.24483C18.4364 1.9503 18.8116 1.74973 19.2201 1.66847C19.6287 1.58721 20.0521 1.62891 20.4369 1.78831C20.8218 1.94771 21.1507 2.21764 21.3821 2.56397C21.6135 2.9103 21.737 3.31747 21.737 3.734L21.738 3.794C21.738 4.924 20.822 5.84 19.692 5.84L19.629 5.839H19.632L19.631 5.84Z" fill="#BABECC"/>
</g>
<path d="M10.52 13.3359H5.48001C2.96001 13.3359 2.33334 14.0093 2.33334 16.6959V24.2026C2.33334 25.9759 3.30668 26.3959 4.48668 25.1293L4.49334 25.1226C5.04001 24.5426 5.87334 24.5893 6.34668 25.2226L7.02001 26.1226C7.56001 26.8359 8.43334 26.8359 8.97334 26.1226L9.64668 25.2226C10.1267 24.5826 10.96 24.5359 11.5067 25.1226C12.6933 26.3893 13.66 25.9693 13.66 24.1959V16.6959C13.6667 14.0093 13.04 13.3359 10.52 13.3359ZM10 19.8359H6.00001C5.72668 19.8359 5.50001 19.6093 5.50001 19.3359C5.50001 19.0626 5.72668 18.8359 6.00001 18.8359H10C10.2733 18.8359 10.5 19.0626 10.5 19.3359C10.5 19.6093 10.2733 19.8359 10 19.8359ZM10.6667 17.1693H5.33334C5.06001 17.1693 4.83334 16.9426 4.83334 16.6693C4.83334 16.3959 5.06001 16.1693 5.33334 16.1693H10.6667C10.94 16.1693 11.1667 16.3959 11.1667 16.6693C11.1667 16.9426 10.94 17.1693 10.6667 17.1693Z" fill="#FFAE12"/>
<defs>
<clipPath id="clip0_1866_13178">
<rect width="17" height="24" fill="white" transform="translate(11)"/>
</clipPath>
</defs>
</svg>
