<svg width="32" height="28" viewBox="0 0 32 28" fill="none" xmlns="http://www.w3.org/2000/svg">
<path d="M23.51 2.82812H16.49C14 2.82812 13.45 4.06813 13.13 5.58813L12 10.9981H28L26.87 5.58813C26.55 4.06813 26 2.82812 23.51 2.82812Z" stroke="#BABECC" stroke-width="1.5" stroke-linecap="round" stroke-linejoin="round"/>
<path d="M10.57 13.73C10.71 12.23 11 11 13.62 11H26.38C29 11 29.29 12.23 29.43 13.73L29.99 19.82C30.1 20.99 29.16 22 27.96 22H26.08C25 22 24.85 21.54 24.66 20.97L24.46 20.37C24.18 19.55 24 19 22.56 19H17.44C16 19 15.79 19.62 15.54 20.37L15.34 20.97C15.15 21.54 15 22 13.92 22H12.04C10.84 22 9.9 20.99 10.01 19.82L10.2 17.76" stroke="#BABECC" stroke-width="1.5" stroke-linecap="round" stroke-linejoin="round"/>
<path d="M12 8H11" stroke="#BABECC" stroke-width="1.5" stroke-linecap="round" stroke-linejoin="round"/>
<path d="M29 8H28" stroke="#BABECC" stroke-width="1.5" stroke-linecap="round" stroke-linejoin="round"/>
<path d="M20 3V5" stroke="#BABECC" stroke-width="1.5" stroke-linecap="round" stroke-linejoin="round"/>
<path d="M18.5 5H21.5" stroke="#BABECC" stroke-width="1.5" stroke-linecap="round" stroke-linejoin="round"/>
<path d="M14 15H17" stroke="#BABECC" stroke-width="1.5" stroke-linecap="round" stroke-linejoin="round"/>
<path d="M23 15H26" stroke="#BABECC" stroke-width="1.5" stroke-linecap="round" stroke-linejoin="round"/>
<path d="M11.1667 14.3759V13.3359C11.1667 13.0626 10.94 12.8359 10.6667 12.8359C10.3933 12.8359 10.1667 13.0626 10.1667 13.3359V14.3359H5.83334V13.3359C5.83334 13.0626 5.60667 12.8359 5.33334 12.8359C5.06001 12.8359 4.83334 13.0626 4.83334 13.3359V14.3759C3.03334 14.5426 2.16001 15.6159 2.02667 17.2093C2.01334 17.4026 2.17334 17.5626 2.36001 17.5626H13.64C13.8333 17.5626 13.9933 17.3959 13.9733 17.2093C13.84 15.6159 12.9667 14.5426 11.1667 14.3759Z" fill="#FFAE12"/>
<path d="M13.3333 18.5625H2.66667C2.3 18.5625 2 18.8625 2 19.2292V23.3358C2 25.3358 3 26.6692 5.33333 26.6692H10.6667C13 26.6692 14 25.3358 14 23.3358V19.2292C14 18.8625 13.7 18.5625 13.3333 18.5625ZM6.14 24.1425C6.10667 24.1692 6.07333 24.2025 6.04 24.2225C6 24.2492 5.96 24.2692 5.92 24.2825C5.88 24.3025 5.84 24.3158 5.8 24.3225C5.75333 24.3292 5.71333 24.3358 5.66667 24.3358C5.58 24.3358 5.49333 24.3158 5.41333 24.2825C5.32667 24.2492 5.26 24.2025 5.19333 24.1425C5.07333 24.0158 5 23.8425 5 23.6692C5 23.4958 5.07333 23.3225 5.19333 23.1958C5.26 23.1358 5.32667 23.0892 5.41333 23.0558C5.53333 23.0025 5.66667 22.9892 5.8 23.0158C5.84 23.0225 5.88 23.0358 5.92 23.0558C5.96 23.0692 6 23.0892 6.04 23.1158C6.07333 23.1425 6.10667 23.1692 6.14 23.1958C6.26 23.3225 6.33333 23.4958 6.33333 23.6692C6.33333 23.8425 6.26 24.0158 6.14 24.1425ZM6.14 21.8092C6.01333 21.9292 5.84 22.0025 5.66667 22.0025C5.49333 22.0025 5.32 21.9292 5.19333 21.8092C5.07333 21.6825 5 21.5092 5 21.3358C5 21.1625 5.07333 20.9892 5.19333 20.8625C5.38 20.6758 5.67333 20.6158 5.92 20.7225C6.00667 20.7558 6.08 20.8025 6.14 20.8625C6.26 20.9892 6.33333 21.1625 6.33333 21.3358C6.33333 21.5092 6.26 21.6825 6.14 21.8092ZM8.47333 24.1425C8.34667 24.2625 8.17333 24.3358 8 24.3358C7.82667 24.3358 7.65333 24.2625 7.52667 24.1425C7.40667 24.0158 7.33333 23.8425 7.33333 23.6692C7.33333 23.4958 7.40667 23.3225 7.52667 23.1958C7.77333 22.9492 8.22667 22.9492 8.47333 23.1958C8.59333 23.3225 8.66667 23.4958 8.66667 23.6692C8.66667 23.8425 8.59333 24.0158 8.47333 24.1425ZM8.47333 21.8092C8.44 21.8358 8.40667 21.8625 8.37333 21.8892C8.33333 21.9158 8.29333 21.9358 8.25333 21.9492C8.21333 21.9692 8.17333 21.9825 8.13333 21.9892C8.08667 21.9958 8.04667 22.0025 8 22.0025C7.82667 22.0025 7.65333 21.9292 7.52667 21.8092C7.40667 21.6825 7.33333 21.5092 7.33333 21.3358C7.33333 21.1625 7.40667 20.9892 7.52667 20.8625C7.58667 20.8025 7.66 20.7558 7.74667 20.7225C7.99333 20.6158 8.28667 20.6758 8.47333 20.8625C8.59333 20.9892 8.66667 21.1625 8.66667 21.3358C8.66667 21.5092 8.59333 21.6825 8.47333 21.8092ZM10.8067 24.1425C10.68 24.2625 10.5067 24.3358 10.3333 24.3358C10.16 24.3358 9.98667 24.2625 9.86 24.1425C9.74 24.0158 9.66667 23.8425 9.66667 23.6692C9.66667 23.4958 9.74 23.3225 9.86 23.1958C10.1067 22.9492 10.56 22.9492 10.8067 23.1958C10.9267 23.3225 11 23.4958 11 23.6692C11 23.8425 10.9267 24.0158 10.8067 24.1425ZM10.8067 21.8092C10.7733 21.8358 10.74 21.8625 10.7067 21.8892C10.6667 21.9158 10.6267 21.9358 10.5867 21.9492C10.5467 21.9692 10.5067 21.9825 10.4667 21.9892C10.42 21.9958 10.3733 22.0025 10.3333 22.0025C10.16 22.0025 9.98667 21.9292 9.86 21.8092C9.74 21.6825 9.66667 21.5092 9.66667 21.3358C9.66667 21.1625 9.74 20.9892 9.86 20.8625C9.92667 20.8025 9.99333 20.7558 10.08 20.7225C10.2 20.6692 10.3333 20.6558 10.4667 20.6825C10.5067 20.6892 10.5467 20.7025 10.5867 20.7225C10.6267 20.7358 10.6667 20.7558 10.7067 20.7825C10.74 20.8092 10.7733 20.8358 10.8067 20.8625C10.9267 20.9892 11 21.1625 11 21.3358C11 21.5092 10.9267 21.6825 10.8067 21.8092Z" fill="#FFAE12"/>
</svg>
