<svg width="32" height="32" viewBox="0 0 32 32" fill="none" xmlns="http://www.w3.org/2000/svg">
<rect width="32" height="32" rx="16" fill="#FFAE12"/>
<path d="M16 10C13.2475 10 11 12.2475 11 15C11 17.7525 13.2475 20 16 20C18.7525 20 21 17.7525 21 15C21 12.2475 18.7525 10 16 10ZM10.25 22C9.01625 22 8 23.0162 8 24.25V24.8496C8 26.32 8.93236 27.639 10.3545 28.5459C11.7766 29.4528 13.7224 30 16 30C18.2776 30 20.2234 29.4528 21.6455 28.5459C23.0676 27.639 24 26.32 24 24.8496V24.25C24 23.0162 22.9837 22 21.75 22H10.25Z" fill="#0B213F"/>
</svg>
