<svg width="60" height="60" viewBox="0 0 60 60" fill="none" xmlns="http://www.w3.org/2000/svg">
<g clip-path="url(#clip0_551_5026)">
<path d="M55.063 0H4.93705C2.21039 0 0 2.21039 0 4.93705V55.063C0 57.7896 2.21039 60 4.93705 60H55.063C57.7896 60 60 57.7896 60 55.063V4.93705C60 2.21039 57.7896 0 55.063 0Z" fill="#FFAE12"/>
<path d="M53.6806 4.25977H41.3281V18.676H55.7443V4.25977H53.6855H53.6806ZM53.6806 8.37727V16.6123H43.3868V6.31852H53.6806V8.37727Z" fill="black"/>
<path d="M24.8531 8.37727H26.9119V6.31852V4.25977H24.8531V6.31852H22.7944H20.7356V8.37727V10.436H22.7944V8.37727H24.8531Z" fill="black"/>
<path d="M33.0881 8.37727H35.1469V10.436H33.0881V12.4948H35.1469V14.5535H37.2056H39.2644V12.4948H37.2056V10.436V8.37727H39.2644V6.31852V4.25977H37.2056H35.1469V6.31852H33.0881H31.0294V8.37727V10.436H33.0881V8.37727Z" fill="black"/>
<path d="M47.5043 8.37695H45.4456V10.4357V12.4945V14.5532H47.5043H49.5631H51.6218V12.4945V10.4357V8.37695H49.5631H47.5043Z" fill="black"/>
<path d="M12.4957 14.5532H14.5544V12.4945V10.4357V8.37695H12.4957H10.4369H8.37819V10.4357V12.4945V14.5532H10.4369H12.4957Z" fill="black"/>
<path d="M8.37818 18.676H18.6719V4.25977H4.26068V18.676H8.37818ZM6.31943 14.5585V6.31852H16.6132V16.6123H6.31943V14.5535V14.5585Z" fill="black"/>
<path d="M31.0294 16.6167V14.553H33.0881V12.4943H31.0294V10.4355H28.9706V12.4943V14.553V16.6167V18.6755H31.0294V16.6167Z" fill="black"/>
<path d="M35.1469 16.6172H33.0881V18.6759H35.1469V16.6172Z" fill="black"/>
<path d="M37.2056 18.6759V20.7347H39.2644V18.6759V16.6172H37.2056V18.6759Z" fill="black"/>
<path d="M33.0881 18.6758H31.0294V20.7345H33.0881V18.6758Z" fill="black"/>
<path d="M16.6181 20.7344V22.7931H18.6769H20.7356V20.7344H18.6769H16.6181Z" fill="black"/>
<path d="M6.31943 20.7344H4.26068V22.7931V24.8519H6.31943V22.7931H8.37818V20.7344H6.31943Z" fill="black"/>
<path d="M24.8531 22.793H22.7944V24.8517H24.8531V22.793Z" fill="black"/>
<path d="M53.6806 22.7931V20.7344H51.6218H49.5631V22.7931H51.6218V24.8519H53.6806V22.7931Z" fill="black"/>
<path d="M51.6218 26.9103V24.8516H49.5631H47.5043V26.9103H49.5631H51.6218Z" fill="black"/>
<path d="M47.5043 26.9102H45.4456V28.9689H47.5043V26.9102Z" fill="black"/>
<path d="M53.6806 28.9689H51.6218H49.5631V31.0277V33.0864H51.6218V35.1452H53.6806H55.7393V33.0864V31.0277V28.9689V26.9102H53.6806V28.9689Z" fill="black"/>
<path d="M12.4957 28.9694H14.5544V31.0281H16.6181H18.6769V28.9694H16.6181V26.9106H18.6769V24.8519H16.6181H14.5544V22.7931H12.4957V20.7344H10.4369V22.7931H8.37818V24.8519H10.4369V26.9106H8.37818H6.31943V28.9694H8.37818H10.4369V31.0281H12.4957V28.9694Z" fill="black"/>
<path d="M10.4369 31.0293H8.37819V33.088H10.4369V31.0293Z" fill="black"/>
<path d="M47.5043 31.0289H45.4456V28.9702H43.3868V26.9114H45.4456V24.8527H43.3868V22.7939H47.5043V20.7352H41.3281V22.7939H39.2693V26.9114H37.2106V28.9702H41.3281V31.0289H35.1518V33.0877H33.0931V31.0289H31.0343V35.1464H37.2106V39.2639H33.0931V37.2052H28.9756V41.3227H26.9168V37.2052H28.9756V28.9702H33.0931V31.0289H35.1518V26.9114H37.2106V24.8527H35.1518V20.7352H33.0931V22.7939H31.0343V20.7352H28.9756V18.6764H26.9168V12.5002H24.8581V10.4414H22.7993V12.5002H20.7406V20.7352H22.7993V14.5589H24.8581V20.7352H26.9168V26.9114H20.7406V33.0877H14.5643V31.0289H12.5056V33.0877H10.4468V35.1464H12.5056V37.2052H10.4468V39.2639H18.6818V37.2052H14.5643V35.1464H18.6818V37.2052H20.7406V35.1464H22.7993V33.0877H24.8581V31.0289H22.7993V28.9702H24.8581V31.0289H26.9168V35.1464H22.7993V37.2052H20.7406V43.3814H22.7993V47.4989H24.8581V45.4402H26.9168V43.3814H28.9756V45.4402H31.0343V41.3227H33.0931V45.4402H37.2106V49.5577H39.2693V47.4989H45.4456V49.5577H47.5043V53.6752H51.6218V55.7339H55.7393V49.5577H53.6806V51.6164H51.6218V49.5577H49.5631V47.4989H47.5043V45.4402H49.5631V47.4989H53.6806V45.4402H55.7393V41.3227H51.6218V43.3814H49.5631V41.3227H47.5043V37.2052H45.4456V35.1464H43.3868V33.0877H45.4456V35.1464H49.5631V33.0877H47.5043V31.0289ZM24.8531 41.3227H22.7944V39.2639H24.8531V41.3227ZM37.2056 43.3814H35.1469V41.3227H37.2056V43.3814ZM39.2644 33.0877H41.3231V35.1464H39.2644V33.0877ZM45.4406 39.2639V45.4402H39.2644V39.2639H45.4406Z" fill="black"/>
<path d="M6.31943 33.0879H4.26068V35.1466H6.31943V33.0879Z" fill="black"/>
<path d="M8.37818 35.1465H6.31943V37.2052H4.26068V39.264H6.31943H8.37818V37.2052H10.4369V35.1465H8.37818Z" fill="black"/>
<path d="M55.7393 37.2051H53.6806V39.2638H55.7393V37.2051Z" fill="black"/>
<path d="M14.5544 41.3281H4.26068V55.7443H18.6769V41.3281H14.5594H14.5544ZM16.6132 45.4456V53.6806H6.31943V43.3869H16.6132V45.4456Z" fill="black"/>
<path d="M43.3868 41.3281H41.3281V43.3869H43.3868V41.3281Z" fill="black"/>
<path d="M10.4369 45.4453H8.37819V47.5041V49.5628V51.6216H10.4369H12.4957H14.5544V49.5628V47.5041V45.4453H12.4957H10.4369Z" fill="black"/>
<path d="M28.9706 47.5039H26.9119V49.5627H28.9706V47.5039Z" fill="black"/>
<path d="M22.7944 47.5039H20.7356V49.5627H22.7944V47.5039Z" fill="black"/>
<path d="M35.1469 47.5039H33.0881V49.5627H35.1469V47.5039Z" fill="black"/>
<path d="M41.3281 49.5625H39.2644V51.6212V53.68H41.3281V51.6212H43.3868V49.5625H41.3281Z" fill="black"/>
<path d="M37.2056 49.5625H35.1469V51.6213H37.2056V49.5625Z" fill="black"/>
<path d="M20.7356 51.6212V53.68V55.7388H22.7944V53.68H24.8531H26.9119V51.6212V49.5625H24.8531H22.7944V51.6212H20.7356Z" fill="black"/>
<path d="M35.1469 51.6211H33.0881V53.6798H35.1469V51.6211Z" fill="black"/>
<path d="M45.4456 51.6211H43.3868V53.6798H45.4456V51.6211Z" fill="black"/>
<path d="M31.0294 53.6797H28.9706V55.7384H31.0294V53.6797Z" fill="black"/>
<path d="M47.5043 53.6797H45.4456V55.7384H47.5043V53.6797Z" fill="black"/>
<path d="M35.1469 53.6797V55.7384H37.2056H39.2644V53.6797H37.2056H35.1469Z" fill="black"/>
</g>
<defs>
<clipPath id="clip0_551_5026">
<rect width="60" height="60" rx="8" fill="white"/>
</clipPath>
</defs>
</svg>
