<svg width="27" height="44" viewBox="0 0 27 44" fill="none" xmlns="http://www.w3.org/2000/svg">
<g clip-path="url(#clip0_398_3737)">
<path opacity="0.4" d="M12.1146 43.9994C17.7823 43.9994 22.3768 43.3752 22.3768 42.6052C22.3768 41.8352 17.7823 41.2109 12.1146 41.2109C6.447 41.2109 1.85248 41.8352 1.85248 42.6052C1.85248 43.3752 6.447 43.9994 12.1146 43.9994Z" fill="black"/>
<path d="M5.10508 0L0 22.5897H8.80608L4.2122 38.7988L26.2917 14.9326H15.6979L24.8876 0H5.10508Z" fill="#FDC10D"/>
<path d="M26.2917 14.9316L4.2122 38.7978L20.3673 14.9316H26.2917Z" fill="#EAA60F"/>
<path d="M24.8876 0L15.6979 14.9326L21.0591 0H24.8876Z" fill="#EAA60F"/>
<path d="M5.88215 14.2965L5.41511 16.1981L2.80518 16.1205L3.28595 14.1621L5.88215 14.2965Z" fill="#FEE3B0"/>
<path d="M3.67648 12.5701L6.41495 1.41602L9.02489 1.49353L6.28642 12.6476L3.67648 12.5701Z" fill="#FAE6C0"/>
</g>
<defs>
<clipPath id="clip0_398_3737">
<rect width="26.2917" height="44" fill="white"/>
</clipPath>
</defs>
</svg>
