<svg width="20" height="20" viewBox="0 0 20 20" fill="none" xmlns="http://www.w3.org/2000/svg">
<path d="M16.6667 20C15.7407 20 14.9537 19.7083 14.3056 19.125C13.6574 18.5417 13.3333 17.8333 13.3333 17C13.3333 16.8833 13.3426 16.7623 13.3611 16.637C13.3796 16.5123 13.4074 16.4 13.4444 16.3L5.61111 12.2C5.2963 12.45 4.94444 12.6457 4.55556 12.787C4.16667 12.929 3.75926 13 3.33333 13C2.40741 13 1.62037 12.7083 0.972222 12.125C0.324074 11.5417 0 10.8333 0 10C0 9.16667 0.324074 8.45833 0.972222 7.875C1.62037 7.29167 2.40741 7 3.33333 7C3.75926 7 4.16667 7.07067 4.55556 7.212C4.94444 7.354 5.2963 7.55 5.61111 7.8L13.4444 3.7C13.4074 3.6 13.3796 3.48767 13.3611 3.363C13.3426 3.23767 13.3333 3.11667 13.3333 3C13.3333 2.16667 13.6574 1.45833 14.3056 0.875C14.9537 0.291667 15.7407 0 16.6667 0C17.5926 0 18.3796 0.291667 19.0278 0.875C19.6759 1.45833 20 2.16667 20 3C20 3.83333 19.6759 4.54167 19.0278 5.125C18.3796 5.70833 17.5926 6 16.6667 6C16.2407 6 15.8333 5.929 15.4444 5.787C15.0556 5.64567 14.7037 5.45 14.3889 5.2L6.55556 9.3C6.59259 9.4 6.62037 9.51233 6.63889 9.637C6.65741 9.76233 6.66667 9.88333 6.66667 10C6.66667 10.1167 6.65741 10.2373 6.63889 10.362C6.62037 10.4873 6.59259 10.6 6.55556 10.7L14.3889 14.8C14.7037 14.55 15.0556 14.354 15.4444 14.212C15.8333 14.0707 16.2407 14 16.6667 14C17.5926 14 18.3796 14.2917 19.0278 14.875C19.6759 15.4583 20 16.1667 20 17C20 17.8333 19.6759 18.5417 19.0278 19.125C18.3796 19.7083 17.5926 20 16.6667 20ZM16.6667 4C16.9815 4 17.2452 3.90433 17.4578 3.713C17.6711 3.521 17.7778 3.28333 17.7778 3C17.7778 2.71667 17.6711 2.479 17.4578 2.287C17.2452 2.09567 16.9815 2 16.6667 2C16.3519 2 16.0881 2.09567 15.8756 2.287C15.6622 2.479 15.5556 2.71667 15.5556 3C15.5556 3.28333 15.6622 3.521 15.8756 3.713C16.0881 3.90433 16.3519 4 16.6667 4ZM3.33333 11C3.64815 11 3.91222 10.904 4.12556 10.712C4.33815 10.5207 4.44444 10.2833 4.44444 10C4.44444 9.71667 4.33815 9.479 4.12556 9.287C3.91222 9.09567 3.64815 9 3.33333 9C3.01852 9 2.75444 9.09567 2.54111 9.287C2.32852 9.479 2.22222 9.71667 2.22222 10C2.22222 10.2833 2.32852 10.5207 2.54111 10.712C2.75444 10.904 3.01852 11 3.33333 11ZM16.6667 18C16.9815 18 17.2452 17.904 17.4578 17.712C17.6711 17.5207 17.7778 17.2833 17.7778 17C17.7778 16.7167 17.6711 16.4793 17.4578 16.288C17.2452 16.096 16.9815 16 16.6667 16C16.3519 16 16.0881 16.096 15.8756 16.288C15.6622 16.4793 15.5556 16.7167 15.5556 17C15.5556 17.2833 15.6622 17.5207 15.8756 17.712C16.0881 17.904 16.3519 18 16.6667 18Z" fill="#BABECC"/>
</svg>
