<svg width="20" height="20" viewBox="0 0 20 20" fill="none" xmlns="http://www.w3.org/2000/svg">
<path d="M16.2833 5.4513L13.725 2.89297C12.9417 2.10964 11.8833 1.66797 10.775 1.66797H6.66667C4.16667 1.66797 2.5 3.33464 2.5 5.83464V14.168C2.5 16.668 4.16667 18.3346 6.66667 18.3346H13.3333C15.8333 18.3346 17.5 16.668 17.5 14.168V8.39297C17.5 7.28464 17.0583 6.2263 16.2833 5.4513Z" stroke="#FFAE12" stroke-width="1.5" stroke-linecap="round" stroke-linejoin="round"/>
<path d="M8.33331 15.418H11.6666C13.0416 15.418 14.1666 14.293 14.1666 12.918V10.418C14.1666 9.04297 13.0416 7.91797 11.6666 7.91797H8.33331C6.95831 7.91797 5.83331 9.04297 5.83331 10.418V12.918C5.83331 14.293 6.95831 15.418 8.33331 15.418Z" stroke="#FFAE12" stroke-width="1.5" stroke-linecap="round" stroke-linejoin="round"/>
<path d="M10 7.91797V15.418" stroke="#FFAE12" stroke-width="1.5" stroke-linecap="round" stroke-linejoin="round"/>
<path d="M6.25 11.668H13.75" stroke="#FFAE12" stroke-width="1.5" stroke-linecap="round" stroke-linejoin="round"/>
</svg>
