<svg width="28" height="28" viewBox="0 0 28 28" fill="none" xmlns="http://www.w3.org/2000/svg">
<path d="M18.8883 2.33398H9.11168C4.86501 2.33398 2.33334 4.86565 2.33334 9.11232V18.8773C2.33334 23.1357 4.86501 25.6673 9.11168 25.6673H18.8767C23.1233 25.6673 25.655 23.1357 25.655 18.889V9.11232C25.6667 4.86565 23.135 2.33398 18.8883 2.33398ZM18.6667 14.8757H14.875V18.6673C14.875 19.1457 14.4783 19.5423 14 19.5423C13.5217 19.5423 13.125 19.1457 13.125 18.6673V14.8757H9.33334C8.85501 14.8757 8.45834 14.479 8.45834 14.0007C8.45834 13.5223 8.85501 13.1257 9.33334 13.1257H13.125V9.33398C13.125 8.85565 13.5217 8.45898 14 8.45898C14.4783 8.45898 14.875 8.85565 14.875 9.33398V13.1257H18.6667C19.145 13.1257 19.5417 13.5223 19.5417 14.0007C19.5417 14.479 19.145 14.8757 18.6667 14.8757Z" fill="#3B3B3B"/>
</svg>
