<svg width="28" height="28" viewBox="0 0 28 28" fill="none" xmlns="http://www.w3.org/2000/svg">
<path d="M24.8493 14.1738H20.7893C19.646 14.1738 18.631 14.7997 18.1176 15.8195L17.1376 17.7434C16.9043 18.2069 16.4376 18.4967 15.9243 18.4967H12.0976C11.736 18.4967 11.2226 18.4156 10.8843 17.7434L9.90429 15.8311C9.39096 14.8228 8.36429 14.1854 7.23263 14.1854H3.14929C2.69429 14.1854 2.33263 14.5447 2.33263 14.9967V18.7748C2.33263 22.9818 4.87596 25.4967 9.12263 25.4967H18.8993C22.901 25.4967 25.3626 23.3179 25.666 19.447V14.9851C25.666 14.5447 25.3043 14.1738 24.8493 14.1738Z" fill="#3B3B3B"/>
<path d="M14.8737 4.41598L15.7137 5.25041C15.8887 5.42426 16.1104 5.50538 16.3321 5.50538C16.5537 5.50538 16.7754 5.42426 16.9504 5.25041C17.2887 4.91432 17.2887 4.35803 16.9504 4.02194L14.6171 1.70406C14.6054 1.69247 14.5937 1.69247 14.5937 1.68088C14.5237 1.61134 14.4304 1.55339 14.3371 1.50704C14.3254 1.50704 14.3254 1.50704 14.3137 1.49545C14.2204 1.46068 14.1271 1.44909 14.0337 1.4375C13.9987 1.4375 13.9754 1.4375 13.9404 1.4375C13.8704 1.4375 13.8004 1.46068 13.7304 1.48386C13.6954 1.49545 13.6721 1.50704 13.6487 1.51863C13.5554 1.56498 13.4621 1.61134 13.3921 1.69247L11.0587 4.01035C10.7204 4.34644 10.7204 4.90273 11.0587 5.23882C11.3971 5.57492 11.9571 5.57492 12.2954 5.23882L13.1354 4.40439V5.79512H14.8854V4.41598H14.8737Z" fill="#3B3B3B"/>
<path d="M25.666 12.5284V12.5747C25.4093 12.482 25.1293 12.4356 24.8493 12.4356H20.7893C18.981 12.4356 17.3593 13.4323 16.5543 15.0317L15.6793 16.7469H12.3426L11.4676 15.0433C10.6626 13.4323 9.04096 12.4356 7.23263 12.4356H3.14929C2.86929 12.4356 2.58929 12.482 2.33263 12.5747V12.5284C2.33263 8.30982 4.86429 5.79492 9.11096 5.79492H13.1243V10.4307C13.1243 10.9058 13.521 11.2999 13.9993 11.2999C14.4776 11.2999 14.8743 10.9058 14.8743 10.4307V5.79492H18.8876C23.1343 5.79492 25.666 8.30982 25.666 12.5284Z" fill="#3B3B3B"/>
</svg>
