<svg width="16" height="16" viewBox="0 0 16 16" fill="none" xmlns="http://www.w3.org/2000/svg">
<path d="M14.6667 6.66659V9.99992C14.6667 13.3333 13.3333 14.6666 10 14.6666H6C2.66666 14.6666 1.33333 13.3333 1.33333 9.99992V5.99992C1.33333 2.66659 2.66666 1.33325 6 1.33325H9.33333" stroke="#FFAE12" stroke-width="1.5" stroke-linecap="round" stroke-linejoin="round"/>
<path d="M14.6667 6.66658H12C9.99999 6.66658 9.33333 5.99992 9.33333 3.99992V1.33325L14.6667 6.66658Z" stroke="#FFAE12" stroke-width="1.5" stroke-linecap="round" stroke-linejoin="round"/>
<path d="M4.66667 8.66675H8.66667" stroke="#FFAE12" stroke-width="1.5" stroke-linecap="round" stroke-linejoin="round"/>
<path d="M4.66667 6H7.33334" stroke="#FFAE12" stroke-width="1.5" stroke-linecap="round" stroke-linejoin="round"/>
<path d="M10.6497 11.7118C10.6497 12.1059 10.9522 12.4237 11.3281 12.4237H12.095C12.422 12.4237 12.6878 12.1456 12.6878 11.8034C12.6878 11.4306 12.5258 11.2993 12.2845 11.2137L11.0531 10.7859C10.8117 10.7004 10.6497 10.569 10.6497 10.1962C10.6497 9.85398 10.9156 9.57593 11.2425 9.57593H12.0095C12.3853 9.57593 12.6878 9.89371 12.6878 10.2879" stroke="#FFAE12" stroke-width="0.8" stroke-linecap="round" stroke-linejoin="round"/>
<path d="M11.6667 9.1665V12.8332" stroke="#FFAE12" stroke-width="0.8" stroke-linecap="round" stroke-linejoin="round"/>
</svg>
