<svg width="24" height="24" viewBox="0 0 24 24" fill="none" xmlns="http://www.w3.org/2000/svg">
<path d="M21.6612 10.4398L20.6812 14.6198C19.8412 18.2298 18.1812 19.6898 15.0612 19.3898C14.5612 19.3498 14.0212 19.2598 13.4412 19.1198L11.7612 18.7198C7.59116 17.7298 6.30116 15.6698 7.28116 11.4898L8.26116 7.29976C8.46116 6.44976 8.70116 5.70976 9.00116 5.09976C10.1712 2.67976 12.1612 2.02976 15.5012 2.81976L17.1712 3.20976C21.3612 4.18976 22.6412 6.25976 21.6612 10.4398Z" stroke="#ABABAB" stroke-width="1.5" stroke-linecap="round" stroke-linejoin="round"/>
<path d="M15.0613 19.3901C14.4413 19.8101 13.6613 20.1601 12.7113 20.4701L11.1313 20.9901C7.16132 22.2701 5.07132 21.2001 3.78132 17.2301L2.50132 13.2801C1.22132 9.3101 2.28132 7.2101 6.25132 5.9301L7.83132 5.4101C8.24132 5.2801 8.63132 5.1701 9.00132 5.1001C8.70132 5.7101 8.46132 6.4501 8.26132 7.3001L7.28132 11.4901C6.30132 15.6701 7.59132 17.7301 11.7613 18.7201L13.4413 19.1201C14.0213 19.2601 14.5613 19.3501 15.0613 19.3901Z" stroke="#ABABAB" stroke-width="1.5" stroke-linecap="round" stroke-linejoin="round"/>
<path d="M12.6396 8.53027L17.4896 9.76027" stroke="#ABABAB" stroke-width="1.5" stroke-linecap="round" stroke-linejoin="round"/>
<path d="M11.6602 12.3994L14.5602 13.1394" stroke="#ABABAB" stroke-width="1.5" stroke-linecap="round" stroke-linejoin="round"/>
</svg>
