<svg fill="none" height="38" viewBox="0 0 38 38" width="38" xmlns="http://www.w3.org/2000/svg">
    <path
        d="M19 3.16675C14.6418 3.16675 11.0833 6.72523 11.0833 11.0834C11.0833 15.4416 14.6418 19.0001 19 19.0001C23.3582 19.0001 26.9166 15.4416 26.9166 11.0834C26.9166 6.72523 23.3582 3.16675 19 3.16675ZM9.89581 22.1667C7.94237 22.1667 6.33331 23.7758 6.33331 25.7292V26.6786C6.33331 29.0068 7.80954 31.0951 10.0613 32.5311C12.313 33.967 15.3938 34.8334 19 34.8334C22.6061 34.8334 25.687 33.967 27.9387 32.5311C30.1904 31.0951 31.6666 29.0068 31.6666 26.6786V25.7292C31.6666 23.7758 30.0576 22.1667 28.1041 22.1667H9.89581Z"
        fill="#969494" />
</svg>
