<svg width="60" height="27" viewBox="0 0 60 27" fill="none" xmlns="http://www.w3.org/2000/svg">
<path d="M44.4577 6.03605L41.5661 6.03601L41.3065 6.02649C41.1282 6.01356 40.9738 5.99071 40.827 5.95805C40.3905 5.85995 40.0172 5.6757 39.7115 5.4307C39.0282 4.88055 38.6825 4.02461 38.6747 3.15834C38.6827 2.24389 38.9842 1.57511 39.4456 1.10302C39.9472 0.584942 40.6336 0.262293 41.5287 0.253124L41.5661 0.252865H43.0118H44.4576H52.7711H54.2168H57.1084C57.997 0.252865 58.682 0.561272 59.1609 1.03445C59.6744 1.53847 59.9932 2.22333 59.9999 3.11716L59.995 3.30196C59.9532 4.12961 59.6611 4.74374 59.2289 5.18596L59.1032 5.30803C58.6344 5.74565 57.9819 6.02749 57.1457 6.03579L55.6625 6.03605H54.2168H45.9033H44.4577ZM27.1086 3.17159C27.1086 2.2259 27.4372 1.52622 27.9376 1.04535C28.4118 0.569599 29.0904 0.259789 29.9712 0.252932C30.9009 0.257923 31.5776 0.564665 32.0527 1.03432C32.5536 1.51052 32.8848 2.20552 32.8916 3.11704C32.8915 4.06859 32.5588 4.77124 32.0531 5.25235C31.574 5.72831 30.8897 6.03588 30.0001 6.03588C29.0994 6.03068 28.4226 5.72396 27.9475 5.25431C27.4466 4.77808 27.1153 4.0831 27.1086 3.17159ZM57.1084 21.2169C59.0357 21.2169 59.9996 22.6629 60 24.1084C60.0001 24.8655 59.736 25.6226 59.2075 26.172C58.6661 26.7131 57.9119 26.989 57.1536 26.9997L41.5661 27C37.7108 27 37.7108 21.2169 41.5661 21.2169L54.2168 21.2169L57.1084 21.2169ZM32.8916 13.6264V24.1084C32.8916 27.9638 27.1085 27.9638 27.1085 24.1084V13.6264C27.1085 9.77109 32.8916 9.77109 32.8916 13.6264ZM5.78308 21.2169H15.5422L15.5423 3.14446C15.5423 -0.710934 21.3254 -0.710934 21.3254 3.14446V24.1084C21.3254 26.0358 19.8794 26.9996 18.4338 27H2.89156C2.00319 27 1.31948 26.6926 0.840528 26.2196C0.338741 25.7434 0.00685415 25.048 0.000128286 24.1358L0 3.14446C0 -0.710934 5.78308 -0.710934 5.78308 3.14446V21.2169ZM41.5661 10.7349L44.4577 10.7349L49.7368 10.7349C50.6375 10.7401 51.3142 11.0468 51.7892 11.5164C52.2902 11.9927 52.6214 12.6877 52.6281 13.5992C52.6286 15.0725 51.6648 16.518 49.7368 16.518L46.8451 16.5179L41.5661 16.518C40.6769 16.518 39.9927 16.21 39.5137 15.7362C39.0127 15.26 38.6815 14.5651 38.6748 13.6538C38.6739 12.1801 39.6377 10.7349 41.5661 10.7349Z" fill="#FFAE12"/>
</svg>
