<svg width="98" height="21" viewBox="0 0 98 21" fill="none" xmlns="http://www.w3.org/2000/svg">
<path d="M15.9458 10.9335L15.9459 16.6093H23.2432H25.4054C28.2883 16.6093 28.2883 20.9336 25.4054 20.9336H15.9459H13.7838H8.44574H4.32419H2.16169L2.11166 20.9331L2.04286 20.9311C1.98015 20.9284 1.92238 20.9239 1.86592 20.9177L1.81112 20.9112C1.30364 20.8395 0.916711 20.6346 0.628451 20.3501C0.255852 19.9964 0.00848845 19.4808 9.65842e-05 18.8056C-0.00960068 17.7039 0.710922 16.6093 2.16169 16.6093H4.32419H6.28347H8.44574H11.6211L11.6216 10.9335C11.6216 8.05064 15.9458 8.05064 15.9458 10.9335ZM97.0264 10.9615L97.0266 18.7457L97.0263 18.7908L97.0254 18.8328L97.0237 18.8876C96.9952 19.5207 96.7598 19.9991 96.4124 20.3356L96.3561 20.3879C96.0056 20.7152 95.5176 20.9259 94.8923 20.9321L93.7834 20.9323H92.7023H86.486H85.405L83.2419 20.9336C82.993 20.9336 82.8713 20.912 82.6931 20.8733C82.2889 20.784 81.9602 20.5968 81.7081 20.3478C81.3241 19.971 81.0857 19.4589 81.0807 18.7905C81.0815 18.6639 81.0895 18.5438 81.1045 18.4298C81.1666 17.99 81.3509 17.5696 81.6572 17.2436C82.0577 16.8338 82.6186 16.6221 83.1853 16.6085L83.2429 16.608H84.3239H85.4049H91.6213L92.7022 16.6093V10.9335V8.77138V5.25792H86.4858H85.4048V8.77138L89.3522 8.77149C90.0257 8.77536 90.5318 9.0047 90.8869 9.35585C91.2615 9.71195 91.5092 10.2316 91.5143 10.9132C91.5146 12.0148 90.7938 13.0957 89.3522 13.0957L87.19 13.0956L83.2427 13.0957C82.5757 13.0948 82.0655 12.8647 81.708 12.5111C81.3334 12.155 81.0857 11.6355 81.0807 10.9541L81.0806 3.11613C81.0806 2.43592 81.3077 1.92695 81.6571 1.56918C82.0322 1.18185 82.5454 0.940572 83.2148 0.933765H83.2719L84.3237 0.933596H85.4048H91.6211H92.7021H94.8644C95.5287 0.933596 96.0409 1.16414 96.3991 1.5179C96.7811 1.89227 97.0186 2.40049 97.0264 3.06275V10.9007L97.0264 10.9482L97.0264 10.9615ZM36.216 3.09576V16.6093H38.1753H39.9313C42.8141 16.6093 42.814 20.9336 39.9312 20.9336H36.216H34.0538C33.3895 20.9336 32.8783 20.7038 32.5202 20.3501C32.145 19.994 31.8968 19.474 31.8917 18.7919V3.09576C31.8917 0.212871 36.216 0.212871 36.216 3.09576ZM43.5134 18.7918C43.5134 18.0847 43.7592 17.5615 44.1334 17.2019C44.4878 16.8462 44.9953 16.6146 45.6539 16.6094C46.3491 16.6132 46.8551 16.8425 47.2103 17.1937C47.5849 17.5498 47.8326 18.0695 47.8377 18.7511C47.8376 19.4625 47.5888 19.9879 47.2107 20.3478C46.8524 20.7036 46.3407 20.9336 45.6756 20.9336C45.0021 20.9297 44.4959 20.7003 44.1407 20.3492C43.7661 19.9931 43.5184 19.4734 43.5134 18.7918ZM23.2433 10.9539C23.2434 10.2468 23.489 9.72359 23.8632 9.36405C24.2178 9.00828 24.7252 8.77667 25.3838 8.77155C26.079 8.77528 26.5851 9.00464 26.9402 9.35579C27.3148 9.71184 27.5625 10.2315 27.5675 10.9131C27.5675 11.6246 27.3187 12.1501 26.9405 12.5098C26.5823 12.8657 26.0706 13.0956 25.4054 13.0956C24.7319 13.0918 24.2258 12.8625 23.8706 12.5113C23.496 12.1552 23.2484 11.6355 23.2433 10.9539ZM13.7838 0.933596H25.4054C28.2883 0.933596 28.2883 5.25792 25.4054 5.25792H15.9459H13.7838C10.9009 5.25792 10.9009 0.933596 13.7838 0.933596ZM56.4861 3.09576V16.6093H63.7835L63.7835 3.09576C63.7835 1.65459 64.8648 0.933875 65.9456 0.933596H72.4321H74.5942C75.6755 0.933363 76.7563 1.65408 76.7563 3.09576V5.25792V8.77138V10.9335C76.7563 13.8164 72.432 13.8164 72.432 10.9335L72.4321 5.25792H68.1078V18.7714C68.1078 20.2127 67.0267 20.9335 65.9456 20.9336H54.3239C53.6512 20.9336 53.1355 20.6979 52.7767 20.3368C52.4105 19.9824 52.1686 19.469 52.162 18.7988L52.1619 3.09576C52.1619 0.212871 56.4861 0.212871 56.4861 3.09576Z" fill="black" fill-opacity="0.3"/>
</svg>
