<svg width="22" height="22" viewBox="0 0 22 22" fill="none" xmlns="http://www.w3.org/2000/svg">
<path d="M16.5367 12.4208C16.1517 12.7966 15.9317 13.3375 15.9867 13.915C16.0692 14.905 16.9767 15.6291 17.9667 15.6291H19.7083V16.72C19.7083 18.6175 18.1592 20.1666 16.2617 20.1666H6.99417C7.27834 19.9283 7.52584 19.635 7.71834 19.305C8.0575 18.755 8.25 18.1041 8.25 17.4166C8.25 15.3908 6.60917 13.75 4.58334 13.75C3.72167 13.75 2.92417 14.0525 2.29167 14.5566V10.5508C2.29167 8.6533 3.84084 7.10413 5.73834 7.10413H16.2617C18.1592 7.10413 19.7083 8.6533 19.7083 10.5508V11.8708H17.8567C17.3433 11.8708 16.8758 12.0724 16.5367 12.4208Z" stroke="white" stroke-width="1.5" stroke-linecap="round" stroke-linejoin="round"/>
<path d="M2.29167 11.3758V7.1867C2.29167 6.09587 2.96084 5.12416 3.97834 4.73916L11.2567 1.98916C12.3933 1.55833 13.6125 2.40169 13.6125 3.62085V7.10418" stroke="white" stroke-width="1.5" stroke-linecap="round" stroke-linejoin="round"/>
<path d="M20.6789 12.8059V14.6943C20.6789 15.1985 20.2756 15.6109 19.7622 15.6293H17.9656C16.9756 15.6293 16.0681 14.9051 15.9856 13.9151C15.9306 13.3376 16.1506 12.7968 16.5356 12.4209C16.8747 12.0726 17.3422 11.871 17.8556 11.871H19.7622C20.2756 11.8893 20.6789 12.3018 20.6789 12.8059Z" stroke="white" stroke-width="1.5" stroke-linecap="round" stroke-linejoin="round"/>
<path d="M8.25001 17.4167C8.25001 18.1042 8.0575 18.755 7.71834 19.305C7.52584 19.635 7.27834 19.9283 6.99417 20.1667C6.3525 20.7442 5.50917 21.0833 4.58334 21.0833C3.24501 21.0833 2.08084 20.3683 1.44834 19.305C1.10917 18.755 0.916672 18.1042 0.916672 17.4167C0.916672 16.2617 1.44834 15.2258 2.29167 14.5567C2.92417 14.0525 3.72167 13.75 4.58334 13.75C6.60917 13.75 8.25001 15.3908 8.25001 17.4167Z" stroke="white" stroke-width="1.5" stroke-miterlimit="10" stroke-linecap="round" stroke-linejoin="round"/>
<path d="M5.95075 17.3978H3.21909" stroke="white" stroke-width="1.5" stroke-miterlimit="10" stroke-linecap="round" stroke-linejoin="round"/>
<path d="M4.58334 16.0596V18.8004" stroke="white" stroke-width="1.5" stroke-miterlimit="10" stroke-linecap="round" stroke-linejoin="round"/>
</svg>
