<svg width="18" height="18" viewBox="0 0 18 18" fill="none" xmlns="http://www.w3.org/2000/svg">
<path d="M2.77772 16.3259L3.1944 15.7023L2.77772 16.3259ZM1.67412 15.2223L2.29772 14.8056L1.67412 15.2223ZM16.3259 15.2223L15.7023 14.8056L16.3259 15.2223ZM15.2223 16.3259L14.8056 15.7023L15.2223 16.3259ZM15.2223 3.67412L14.8056 4.29772L15.2223 3.67412ZM16.3259 4.77772L15.7023 5.1944L16.3259 4.77772ZM2.77772 3.67412L3.1944 4.29772L2.77772 3.67412ZM1.67412 4.77772L2.29772 5.1944L1.67412 4.77772ZM9.21194 1.60113L9.04684 2.33274L9.21194 1.60113ZM10.8848 1.97863L11.0499 1.24703V1.24703L10.8848 1.97863ZM15.122 3.51327L14.5822 4.03395L14.5822 4.03395L15.122 3.51327ZM4.71328 1.16437L4.97222 1.86825V1.86825L4.71328 1.16437ZM3.57626 1.85473L3.0702 1.30119L3.0702 1.30119L3.57626 1.85473ZM1.83774 3.57508C1.71948 3.97205 1.94542 4.38973 2.34239 4.50799C2.73936 4.62625 3.15704 4.40031 3.2753 4.00333L1.83774 3.57508ZM14.7961 4.25968C15.0772 4.56387 15.5517 4.58255 15.8559 4.30141C16.1601 4.02027 16.1788 3.54576 15.8976 3.24157L14.7961 4.25968ZM1 8.5V7.75C0.585786 7.75 0.25 8.08579 0.25 8.5H1ZM1 11.5H0.25C0.25 11.9142 0.585786 12.25 1 12.25L1 11.5ZM14 14.75C14.4143 14.75 14.75 14.4142 14.75 14C14.75 13.5858 14.4143 13.25 14 13.25V14.75ZM13 13.25C12.5858 13.25 12.25 13.5858 12.25 14C12.25 14.4142 12.5858 14.75 13 14.75V13.25ZM8 3.75H10V2.25H8V3.75ZM10 16.25H8V17.75H10V16.25ZM8 16.25C6.57993 16.25 5.57133 16.2491 4.78975 16.1696C4.02071 16.0914 3.55507 15.9433 3.1944 15.7023L2.36104 16.9495C3.00926 17.3826 3.7503 17.5716 4.63795 17.6619C5.51305 17.7509 6.61115 17.75 8 17.75V16.25ZM0.25 10C0.25 11.3889 0.249093 12.4869 0.338116 13.3621C0.428414 14.2497 0.617393 14.9907 1.05052 15.639L2.29772 14.8056C2.05673 14.4449 1.90865 13.9793 1.83041 13.2102C1.75091 12.4287 1.75 11.4201 1.75 10H0.25ZM3.1944 15.7023C2.83953 15.4652 2.53484 15.1605 2.29772 14.8056L1.05052 15.639C1.39707 16.1576 1.84239 16.6029 2.36104 16.9495L3.1944 15.7023ZM16.25 10C16.25 11.4201 16.2491 12.4287 16.1696 13.2102C16.0914 13.9793 15.9433 14.4449 15.7023 14.8056L16.9495 15.639C17.3826 14.9907 17.5716 14.2497 17.6619 13.3621C17.7509 12.4869 17.75 11.3889 17.75 10H16.25ZM10 17.75C11.3889 17.75 12.4869 17.7509 13.3621 17.6619C14.2497 17.5716 14.9907 17.3826 15.639 16.9495L14.8056 15.7023C14.4449 15.9433 13.9793 16.0914 13.2103 16.1696C12.4287 16.2491 11.4201 16.25 10 16.25V17.75ZM15.7023 14.8056C15.4652 15.1605 15.1605 15.4652 14.8056 15.7023L15.639 16.9495C16.1576 16.6029 16.6029 16.1576 16.9495 15.639L15.7023 14.8056ZM10 3.75C11.4201 3.75 12.4287 3.75091 13.2103 3.83041C13.9793 3.90865 14.4449 4.05673 14.8056 4.29772L15.639 3.05052C14.9907 2.61739 14.2497 2.42841 13.3621 2.33812C12.4869 2.24909 11.3889 2.25 10 2.25V3.75ZM17.75 10C17.75 8.61115 17.7509 7.51305 17.6619 6.63794C17.5716 5.7503 17.3826 5.00926 16.9495 4.36104L15.7023 5.1944C15.9433 5.55507 16.0914 6.02071 16.1696 6.78975C16.2491 7.57133 16.25 8.57993 16.25 10H17.75ZM14.8056 4.29772C15.1605 4.53484 15.4652 4.83953 15.7023 5.1944L16.9495 4.36104C16.6029 3.84239 16.1576 3.39707 15.639 3.05052L14.8056 4.29772ZM8 2.25C6.61115 2.25 5.51305 2.24909 4.63795 2.33812C3.7503 2.42841 3.00926 2.61739 2.36104 3.05052L3.1944 4.29772C3.55507 4.05673 4.02071 3.90865 4.78975 3.83041C5.57133 3.75091 6.57993 3.75 8 3.75V2.25ZM1.75 10C1.75 8.57993 1.75091 7.57133 1.83041 6.78975C1.90865 6.02071 2.05673 5.55507 2.29772 5.1944L1.05052 4.36104C0.617393 5.00926 0.428414 5.7503 0.338116 6.63794C0.249093 7.51305 0.25 8.61115 0.25 10H1.75ZM2.36104 3.05052C1.84239 3.39707 1.39707 3.84239 1.05052 4.36104L2.29772 5.1944C2.53484 4.83953 2.83953 4.53484 3.1944 4.29772L2.36104 3.05052ZM9.04684 2.33274L10.7197 2.71023L11.0499 1.24703L9.37704 0.869531L9.04684 2.33274ZM10.7197 2.71023C11.9093 2.97869 12.7474 3.16872 13.3803 3.37919C14.0024 3.58606 14.3451 3.78809 14.5822 4.03395L15.6618 2.9926C15.1858 2.4991 14.5846 2.19889 13.8537 1.95583C13.1336 1.71636 12.2096 1.50876 11.0499 1.24703L10.7197 2.71023ZM9.37704 0.869531C8.21716 0.607784 7.29377 0.398525 6.53912 0.305165C5.77255 0.210332 5.09998 0.222972 4.45434 0.460488L4.97222 1.86825C5.30112 1.74726 5.70318 1.71319 6.35495 1.79382C7.01864 1.87592 7.85731 2.0643 9.04684 2.33274L9.37704 0.869531ZM4.45434 0.460488C3.94196 0.648981 3.47148 0.934331 3.0702 1.30119L4.08232 2.40826C4.33858 2.17398 4.64082 1.99016 4.97222 1.86825L4.45434 0.460488ZM3.2753 4.00333C3.53865 3.11931 3.77318 2.6909 4.08232 2.40826L3.0702 1.30119C2.45125 1.86706 2.12145 2.62269 1.83774 3.57508L3.2753 4.00333ZM14.5822 4.03395C14.6706 4.12561 14.7408 4.19988 14.7961 4.25968L15.8976 3.24157C15.8334 3.17204 15.7556 3.08981 15.6618 2.9926L14.5822 4.03395ZM1 9.25H3.5V7.75H1V9.25ZM3.5 10.75H1V12.25H3.5V10.75ZM1.75 11.5V8.5H0.25V11.5H1.75ZM4.25 10C4.25 10.4142 3.91421 10.75 3.5 10.75V12.25C4.74264 12.25 5.75 11.2426 5.75 10H4.25ZM3.5 9.25C3.91421 9.25 4.25 9.58579 4.25 10H5.75C5.75 8.75736 4.74264 7.75 3.5 7.75V9.25ZM14 13.25H13V14.75H14V13.25Z" fill="#FFAE12"/>
</svg>
