<svg width="28" height="28" viewBox="0 0 28 28" fill="none" xmlns="http://www.w3.org/2000/svg">
<path d="M24.85 14.2676H20.79C19.6466 14.2676 18.6316 14.8976 18.1183 15.9242L17.1383 17.8609C16.905 18.3276 16.4383 18.6192 15.925 18.6192H12.0983C11.7366 18.6192 11.2233 18.5376 10.885 17.8609L9.90498 15.9359C9.39165 14.9209 8.36498 14.2792 7.23331 14.2792H3.14998C2.69498 14.2792 2.33331 14.6409 2.33331 15.0959V18.8992C2.33331 23.1342 4.87665 25.6659 9.12331 25.6659H18.9C22.9016 25.6659 25.3633 23.4726 25.6666 19.5759V15.0842C25.6666 14.6409 25.305 14.2676 24.85 14.2676Z" fill="#3B3B3B"/>
<path d="M14.875 2.33398C14.875 1.85565 14.4783 1.45898 14 1.45898C13.5217 1.45898 13.125 1.85565 13.125 2.33398V4.66732H14.875V2.33398Z" fill="#3B3B3B"/>
<path d="M25.6666 11.4443V12.6577C25.41 12.5644 25.13 12.5177 24.85 12.5177H20.79C18.9816 12.5177 17.36 13.521 16.555 15.131L15.68 16.8577H12.3433L11.4683 15.1427C10.6633 13.521 9.04165 12.5177 7.23331 12.5177H3.14998C2.86998 12.5177 2.58998 12.5644 2.33331 12.6577V11.4443C2.33331 7.19768 4.86498 4.66602 9.11165 4.66602H13.125V8.38768L12.285 7.54768C11.9466 7.20935 11.3866 7.20935 11.0483 7.54768C10.71 7.88602 10.71 8.44602 11.0483 8.78435L13.3816 11.1177C13.3933 11.1293 13.405 11.1293 13.405 11.141C13.4866 11.211 13.5683 11.2693 13.6616 11.3043C13.7783 11.351 13.8833 11.3743 14 11.3743C14.1166 11.3743 14.2216 11.351 14.3266 11.3043C14.4316 11.2693 14.5366 11.1993 14.6183 11.1177L16.9516 8.78435C17.29 8.44602 17.29 7.88602 16.9516 7.54768C16.6133 7.20935 16.0533 7.20935 15.715 7.54768L14.875 8.38768V4.66602H18.8883C23.135 4.66602 25.6666 7.19768 25.6666 11.4443Z" fill="#3B3B3B"/>
</svg>
