<svg fill="none" height="50" viewBox="0 0 50 50" width="50" xmlns="http://www.w3.org/2000/svg">
    <path
        d="M14.4167 11.4792L7.72917 4.77089C7.53492 4.57665 7.30432 4.42256 7.05052 4.31744C6.79673 4.21231 6.52471 4.1582 6.25 4.1582C5.9753 4.1582 5.70328 4.21231 5.44948 4.31744C5.19569 4.42256 4.96508 4.57665 4.77084 4.77089C4.37854 5.16319 4.15815 5.69527 4.15815 6.25006C4.15815 6.80486 4.37854 7.33693 4.77084 7.72923L9.5 12.5001C7.09785 13.8656 4.88463 15.5396 2.91667 17.4792C2.52865 17.8696 2.31085 18.3976 2.31085 18.948C2.31085 19.4984 2.52865 20.0264 2.91667 20.4167C3.10962 20.6136 3.33971 20.7702 3.59362 20.8775C3.84752 20.9848 4.1202 21.0406 4.39584 21.0417C4.94238 21.0394 5.46613 20.8224 5.85417 20.4376C7.83946 18.4687 10.1162 16.8174 12.6042 15.5417L15.7083 18.7501C13.1265 19.8786 10.7801 21.4829 8.79167 23.4792C8.57502 23.6676 8.39963 23.8987 8.2765 24.158C8.15338 24.4173 8.08518 24.6993 8.07618 24.9862C8.06718 25.2731 8.11758 25.5588 8.22421 25.8254C8.33084 26.0919 8.49141 26.3335 8.69584 26.5351C8.90026 26.7366 9.14413 26.8937 9.41215 26.9966C9.68017 27.0994 9.96655 27.1458 10.2533 27.1327C10.5401 27.1196 10.8211 27.0474 11.0786 26.9206C11.3362 26.7938 11.5648 26.6152 11.75 26.3959C13.7699 24.385 16.2309 22.8727 18.9375 21.9792L22.3125 25.3334C19.4243 25.8891 16.7686 27.2968 14.6875 29.3751C14.4709 29.5634 14.2955 29.7945 14.1723 30.0538C14.0492 30.3131 13.981 30.5951 13.972 30.882C13.963 31.169 14.0134 31.4547 14.12 31.7212C14.2267 31.9877 14.3872 32.2294 14.5917 32.4309C14.7961 32.6324 15.04 32.7896 15.308 32.8924C15.576 32.9953 15.8624 33.0416 16.1492 33.0285C16.4359 33.0155 16.7169 32.9433 16.9745 32.8165C17.232 32.6897 17.4606 32.511 17.6458 32.2917C18.6056 31.3124 19.7494 30.5323 21.0114 29.996C22.2734 29.4598 23.6288 29.1779 25 29.1667C25.4395 29.1679 25.8783 29.2027 26.3125 29.2709L42.2708 45.2292C42.4645 45.4245 42.6949 45.5795 42.9488 45.6853C43.2027 45.791 43.475 45.8455 43.75 45.8455C44.025 45.8455 44.2973 45.791 44.5512 45.6853C44.8051 45.5795 45.0355 45.4245 45.2292 45.2292C45.4244 45.0356 45.5794 44.8051 45.6852 44.5513C45.791 44.2974 45.8454 44.0251 45.8454 43.7501C45.8454 43.475 45.791 43.2027 45.6852 42.9489C45.5794 42.695 45.4244 42.4646 45.2292 42.2709L14.4167 11.4792ZM25 33.3334C23.7639 33.3334 22.5555 33.7 21.5277 34.3867C20.4999 35.0735 19.6988 36.0496 19.2258 37.1916C18.7527 38.3337 18.6289 39.5903 18.8701 40.8027C19.1113 42.0151 19.7065 43.1287 20.5806 44.0028C21.4547 44.8769 22.5683 45.4721 23.7807 45.7133C24.9931 45.9545 26.2497 45.8307 27.3918 45.3576C28.5338 44.8846 29.5099 44.0835 30.1967 43.0557C30.8835 42.0279 31.25 40.8195 31.25 39.5834C31.25 37.9258 30.5915 36.3361 29.4194 35.164C28.2473 33.9919 26.6576 33.3334 25 33.3334ZM25 41.6667C24.588 41.6667 24.1852 41.5445 23.8426 41.3156C23.5 41.0867 23.2329 40.7613 23.0753 40.3807C22.9176 40 22.8763 39.5811 22.9567 39.177C23.0371 38.7728 23.2355 38.4016 23.5269 38.1103C23.8182 37.8189 24.1894 37.6205 24.5936 37.5401C24.9977 37.4597 25.4166 37.501 25.7973 37.6586C26.1779 37.8163 26.5033 38.0834 26.7322 38.426C26.9612 38.7686 27.0833 39.1714 27.0833 39.5834C27.0833 40.1359 26.8638 40.6658 26.4731 41.0565C26.0824 41.4472 25.5525 41.6667 25 41.6667ZM47.1042 17.4792C43.775 14.153 39.7376 11.6217 35.2933 10.0741C30.849 8.52652 26.1126 8.0027 21.4375 8.54173C21.1639 8.57182 20.8989 8.65551 20.6577 8.78801C20.4164 8.92051 20.2037 9.09923 20.0315 9.31397C19.8593 9.5287 19.7311 9.77525 19.6542 10.0395C19.5773 10.3038 19.5532 10.5806 19.5833 10.8542C19.6134 11.1278 19.6971 11.3928 19.8296 11.634C19.9621 11.8753 20.1408 12.0881 20.3556 12.2602C20.5703 12.4324 20.8169 12.5606 21.0811 12.6375C21.3454 12.7144 21.6223 12.7385 21.8958 12.7084C25.9499 12.2457 30.0562 12.7001 33.9111 14.0379C37.7659 15.3758 41.2708 17.5629 44.1667 20.4376C44.3609 20.6304 44.5913 20.7832 44.8445 20.887C45.0978 20.9909 45.3691 21.0439 45.6428 21.0429C45.9165 21.0419 46.1874 20.987 46.4399 20.8814C46.6925 20.7757 46.9217 20.6214 47.1146 20.4271C47.3075 20.2329 47.4602 20.0026 47.5641 19.7493C47.6679 19.496 47.7209 19.2248 47.7199 18.951C47.719 18.6773 47.6641 18.4064 47.5584 18.1539C47.4528 17.9014 47.2984 17.6721 47.1042 17.4792ZM38.25 26.3126C38.6461 26.6569 39.1576 26.839 39.6821 26.8226C40.2067 26.8061 40.7057 26.5923 41.0795 26.2238C41.4532 25.8554 41.6741 25.3594 41.698 24.8351C41.7219 24.3108 41.547 23.7968 41.2083 23.3959C38.4255 20.5809 34.9462 18.5537 31.125 17.5209C30.8528 17.4157 30.5615 17.369 30.27 17.3836C29.9785 17.3982 29.6933 17.4739 29.433 17.6058C29.1726 17.7377 28.9429 17.9228 28.7586 18.1491C28.5744 18.3755 28.4398 18.638 28.3635 18.9197C28.2872 19.2014 28.2709 19.496 28.3158 19.7844C28.3606 20.0727 28.4655 20.3485 28.6237 20.5937C28.782 20.839 28.9899 21.0482 29.2342 21.208C29.4785 21.3677 29.7536 21.4743 30.0417 21.5209C33.1461 22.3814 35.9743 24.0323 38.25 26.3126Z"
        fill="#DC362E" />
</svg>
